<?xml version="1.0" encoding="UTF-8"?>
<svg version="1.1" xmlns="http://www.w3.org/2000/svg" width="592" height="469">
<path d="M0 0 C195.36 0 390.72 0 592 0 C592 154.77 592 309.54 592 469 C396.64 469 201.28 469 0 469 C0 314.23 0 159.46 0 0 Z " fill="#134C5A" transform="translate(0,0)"/>
<path d="M0 0 C195.36 0 390.72 0 592 0 C592 154.77 592 309.54 592 469 C396.64 469 201.28 469 0 469 C0 314.23 0 159.46 0 0 Z M158.05957031 24.58642578 C155.71930155 25.05636595 153.37294105 25.48103809 151.0234375 25.90234375 C134.02104711 28.9764086 117.48250319 33.14977791 100.9375 38.125 C99.80030518 38.46176758 98.66311035 38.79853516 97.49145508 39.14550781 C96.43079834 39.47131836 95.3701416 39.79712891 94.27734375 40.1328125 C93.33109131 40.42043457 92.38483887 40.70805664 91.40991211 41.00439453 C88.86083701 42.05749232 87.75342341 42.9077487 86 45 C85.34380043 47.8881354 84.85461957 50.64125014 84.46484375 53.56640625 C84.27856163 54.86589455 84.27856163 54.86589455 84.08851624 56.19163513 C83.82632322 58.04105388 83.57035137 59.89136349 83.32006836 61.74243164 C82.94942587 64.47458948 82.55768432 67.20299606 82.16210938 69.93164062 C78.73275937 94.12792125 77.61681685 118.20271294 77.6875 142.625 C77.68932281 143.93905823 77.69114563 145.25311646 77.69302368 146.60699463 C77.74871513 175.55338402 80.33766858 203.22022156 85.42871094 231.7109375 C85.95310152 234.729993 86.43264773 237.7503534 86.8828125 240.78125 C87.01107422 241.64387451 87.13933594 242.50649902 87.27148438 243.39526367 C87.49494257 244.92320534 87.71308964 246.45194156 87.92382812 247.98168945 C88.59291237 252.48559765 89.80275862 256.57399765 91.3046875 260.86938477 C92.23861425 263.73117506 92.74316521 266.58887485 93.1875 269.5625 C93.42533203 271.11130859 93.42533203 271.11130859 93.66796875 272.69140625 C93.77753906 273.45324219 93.88710937 274.21507812 94 275 C94.66 275 95.32 275 96 275 C96.08636719 275.53625 96.17273438 276.0725 96.26171875 276.625 C97.62947745 284.25433294 99.9499875 291.52335966 102.32666016 298.88134766 C102.99402184 300.98118981 103.63244494 303.08767741 104.26171875 305.19921875 C104.46949951 305.88870605 104.67728027 306.57819336 104.89135742 307.28857422 C105.46238229 309.18740942 106.02824891 311.08779367 106.59375 312.98828125 C107.96351335 317.16600601 109.80436339 321.10068748 111.65332031 325.0847168 C113.89445826 329.93631728 116.00111094 334.84621945 118.125 339.75 C118.55425781 340.73871094 118.98351562 341.72742188 119.42578125 342.74609375 C121.17995674 346.78879358 122.93076793 350.83227416 124.6484375 354.890625 C125.8476898 357.6495985 127.12701482 360.32443913 128.5 363 C130.49697314 366.94568107 132.31205444 370.91339497 134 375 C134.66 375 135.32 375 136 375 C136.20367187 375.76570313 136.40734375 376.53140625 136.6171875 377.3203125 C138.56425054 382.50148024 141.33887803 387.10433176 144.125 391.875 C144.68832031 392.84953125 145.25164062 393.8240625 145.83203125 394.828125 C147.21650363 397.22161962 148.60593541 399.6120838 150 402 C150.66 402 151.32 402 152 402 C152.10401123 402.56356201 152.20802246 403.12712402 152.31518555 403.70776367 C153.12831534 406.42950188 154.36117644 408.32561641 155.95703125 410.67578125 C156.87536743 412.03074707 156.87536743 412.03074707 157.81225586 413.41308594 C158.47233643 414.36989258 159.13241699 415.32669922 159.8125 416.3125 C160.82485718 417.78831543 160.82485718 417.78831543 161.85766602 419.29394531 C167.16965562 426.9624379 172.78407696 434.29707533 178.7421875 441.47021484 C180.51975074 443.63213473 182.22247176 445.85082817 183.9375 448.0625 C185.28423485 449.71442009 186.63939501 451.35948521 188 453 C188.47550293 453.59329102 188.95100586 454.18658203 189.44091797 454.79785156 C195.50638632 463.01077072 195.50638632 463.01077072 204.05859375 467.66796875 C206.58431187 467.39927533 208.65591647 466.96303206 211 466 C211 465.34 211 464.68 211 464 C212.72863281 463.82404297 212.72863281 463.82404297 214.4921875 463.64453125 C218.86765738 463.09543382 222.92323132 461.99588517 227.125 460.6875 C228.61696551 460.23364462 230.10915676 459.78053068 231.6015625 459.328125 C232.33922852 459.10318359 233.07689453 458.87824219 233.83691406 458.64648438 C235.85108881 458.04450529 237.87025249 457.47454238 239.8984375 456.921875 C245.71175297 455.33298617 251.21449163 453.65233638 256.66015625 451.06640625 C259.56102438 449.74430775 262.51818136 448.62723086 265.5 447.5 C269.98220785 445.79571864 274.39486108 444.01652028 278.75415039 442.01928711 C280.17994783 441.37218369 281.61065194 440.73570209 283.04760742 440.11376953 C289.5549662 437.29503796 295.75442507 434.00597008 301.98242188 430.62304688 C316.05219568 423.08935381 316.05219568 423.08935381 323 425 C323 425.66 323 426.32 323 427 C324.91411557 427.98414433 326.8313967 428.96213349 328.75 429.9375 C330.35101563 430.75541016 330.35101563 430.75541016 331.984375 431.58984375 C339.06857472 434.902533 347.29953066 435.23764063 354.86328125 433.24609375 C365.90588354 428.97315963 374.26104032 421.62100345 379.30859375 410.82421875 C382.03090525 403.64162287 382.33048795 394.24581454 379.9375 386.9375 C378.86267508 383.56971525 378.89037366 382.32392532 380 379 C382.22265625 376.5703125 382.22265625 376.5703125 385.0625 374.125 C386.44115234 372.92230469 386.44115234 372.92230469 387.84765625 371.6953125 C389.48941607 370.28797666 391.13506379 368.88548498 392.78442383 367.48706055 C398.64969198 362.44832619 404.10842916 357.03992874 409.5625 351.5625 C410.46935547 350.65951172 411.37621094 349.75652344 412.31054688 348.82617188 C422.30642745 338.81579401 431.16792147 328.0303712 440 317 C440.58265625 316.27425781 441.1653125 315.54851562 441.765625 314.80078125 C470.94579876 278.32556405 492.70852926 237.24152342 510 194 C510.37705078 193.06478516 510.75410156 192.12957031 511.14257812 191.16601562 C514.87486092 181.89550675 518.30702234 172.63463719 521 163 C521.21962402 162.22881836 521.43924805 161.45763672 521.66552734 160.66308594 C522.39405638 158.09128472 523.10571202 155.51535472 523.8125 152.9375 C524.04404785 152.11515869 524.2755957 151.29281738 524.51416016 150.44555664 C524.82619385 149.27947876 524.82619385 149.27947876 525.14453125 148.08984375 C525.33378174 147.39753662 525.52303223 146.70522949 525.71801758 145.99194336 C526.04771535 143.66293543 525.80745779 142.20329566 525 140 C522.72167325 137.54091019 522.72167325 137.54091019 519.8125 135.0625 C518.71272186 134.08686084 517.61379795 133.1102581 516.515625 132.1328125 C515.93876953 131.62266602 515.36191406 131.11251953 514.76757812 130.58691406 C512.99937102 128.99943531 511.26899298 127.37946728 509.546875 125.7421875 C503.03194527 119.5516298 496.40165805 113.75886017 489.1953125 108.38671875 C486.02399137 106.01792021 482.9210967 103.5752598 479.8125 101.125 C467.25032077 91.38762393 453.70617779 83.01296338 440 75 C438.94039063 74.37351563 437.88078125 73.74703125 436.7890625 73.1015625 C431.15302577 69.78368997 425.47230906 66.56794899 419.7109375 63.47265625 C417.89037812 62.48367803 416.08297013 61.47013116 414.2890625 60.43359375 C408.60920039 57.18679578 403.08085419 54.87760305 396.83984375 52.92578125 C391.92475769 51.32347672 387.30731788 49.11314804 382.65698242 46.86962891 C375.24766558 43.36879582 367.68488944 40.76930874 359.875 38.3125 C358.66457031 37.92255859 357.45414062 37.53261719 356.20703125 37.13085938 C350.60858144 35.34898063 345.05339835 33.66383846 339.29785156 32.47680664 C336.51810325 31.90000591 333.75914923 31.24969776 330.99609375 30.59765625 C329.92423828 30.34693359 328.85238281 30.09621094 327.74804688 29.83789062 C325.5678034 29.32723773 323.3880994 28.81427518 321.20898438 28.29882812 C268.79257686 16.07770986 210.91811096 13.69428126 158.05957031 24.58642578 Z " fill="#FBFCFC" transform="translate(0,0)"/>
<path d="M0 0 C0.99 0 1.98 0 3 0 C3.928125 1.4540625 3.928125 1.4540625 4.875 2.9375 C13.24329232 15.33870428 29.13118944 19.68243522 42.9375 22.5625 C43.9282251 22.77519531 44.9189502 22.98789063 45.93969727 23.20703125 C52.41329107 24.56217366 58.88550046 25.61250362 65.4375 26.5 C82.17182081 28.81637449 98.75012336 33.82218145 111 46 C110.04077267 33.75911397 107.86692713 22.65035739 104 11 C103.6184375 9.85015625 103.236875 8.7003125 102.84375 7.515625 C102.42609375 6.27039062 102.42609375 6.27039062 102 5 C108.75323932 5.83337847 113.77503499 7.65428172 119.48046875 11.3671875 C122.10057004 13.11130584 122.10057004 13.11130584 125.39453125 14.84375 C143.45039298 25.0883142 154.48657257 45.12397194 160 64.5 C160.99 68.2125 160.99 68.2125 162 72 C162.33 62.43 162.66 52.86 163 43 C173.96745864 47.38698346 180.25378003 56.03448791 185.14453125 66.43359375 C192.59458709 83.87286303 195.09477222 104.79449504 189 123 C185.18245163 130.49875572 178.84098236 135.2858138 171 138 C170.01 138 169.02 138 168 138 C167.67 139.32 167.34 140.64 167 142 C168.5778125 142.928125 168.5778125 142.928125 170.1875 143.875 C170.77917969 144.22304687 171.37085938 144.57109375 171.98046875 144.9296875 C174.01567227 146.06543701 174.01567227 146.06543701 176.375 146.87890625 C189.92887542 152.66754054 199.40772052 164.80293281 205 178 C205.56654297 179.27617187 205.56654297 179.27617187 206.14453125 180.578125 C207.46988331 185.87953324 207.33717651 191.11901722 207.3125 196.5625 C207.31056641 198.30345947 207.31056641 198.30345947 207.30859375 200.07958984 C207.21864244 208.09087849 206.59591477 215.36677441 204 223 C200.61510494 222.38073856 197.45498876 221.50264988 194.1875 220.4375 C179.31714577 216.38013184 161.56211346 218.85975407 148 226 C132.75973782 235.43138588 124.51707013 247.80501969 120 265 C119.62875 266.155 119.2575 267.31 118.875 268.5 C117.74530131 273.01879475 117.26389125 277.35428667 117 282 C116.90138672 283.69576172 116.90138672 283.69576172 116.80078125 285.42578125 C116.27280593 303.24949989 120.18506505 319.63929654 127.29296875 335.91015625 C128.60415327 338.92185778 129.55789512 341.72050561 130 345 C108.94963819 358.77308235 86.18647413 364.72570973 61 362 C59.31528429 361.38035881 57.64404785 360.72064478 56 360 C53.93131769 359.63120903 53.93131769 359.63120903 51.9375 359.5 C48.4328213 359.05496144 46.971248 358.5784755 44 357 C41.34947277 356.24490794 38.68529625 355.62656912 36 355 C36 354.34 36 353.68 36 353 C34.68708984 352.58041016 34.68708984 352.58041016 33.34765625 352.15234375 C22.12578158 348.28950475 13.58007815 341.96903401 5 334 C4.45698242 333.50081055 3.91396484 333.00162109 3.35449219 332.48730469 C-5.7032128 324.07542537 -15.66024503 314.13223682 -21.02270508 302.84790039 C-21.86261056 300.82636806 -21.86261056 300.82636806 -24 300 C-24.8515625 297.93359375 -24.8515625 297.93359375 -25.625 295.4375 C-25.88539063 294.61121094 -26.14578125 293.78492188 -26.4140625 292.93359375 C-26.60742188 292.29550781 -26.80078125 291.65742188 -27 291 C-27.66 291 -28.32 291 -29 291 C-29.31453125 290.2265625 -29.6290625 289.453125 -29.953125 288.65625 C-32.81387792 281.66174481 -32.81387792 281.66174481 -36.125 274.875 C-38.79976559 269.68856428 -41 263.87149124 -41 258 C-41.66 258 -42.32 258 -43 258 C-46.63883315 250.20250039 -47.32044719 241.23349181 -48.625 232.8125 C-48.760271 231.95712646 -48.89554199 231.10175293 -49.03491211 230.22045898 C-49.75930285 225.41839671 -50.14455823 220.85584241 -50 216 C-50.66 216 -51.32 216 -52 216 C-52 204.12 -52 192.24 -52 180 C-51.34 180 -50.68 180 -50 180 C-50.061875 179.0925 -50.12375 178.185 -50.1875 177.25 C-50.20626492 172.62444806 -48.91875947 168.398473 -47.734375 163.95703125 C-46.82622336 160.30027172 -46.36021824 156.74626966 -46 153 C-45.34 153 -44.68 153 -44 153 C-43.9484375 152.30777344 -43.896875 151.61554688 -43.84375 150.90234375 C-41.5915283 131.47693161 -26.72499702 112.44152596 -11.875 100.3828125 C-6.79654415 96.51048991 -1.66152635 92.95943423 4 90 C3.45472656 90.18175781 2.90945312 90.36351562 2.34765625 90.55078125 C0.75155562 91.08281479 -0.84624815 91.60975407 -2.4453125 92.1328125 C-4.03680745 92.67304473 -5.61805392 93.24589242 -7.1796875 93.8671875 C-14.98832366 96.8705091 -24.2982526 97.69118843 -32.125 94.234375 C-38.77299786 89.85777641 -42.90520527 83.15479773 -46 76 C-46.34289062 75.42894531 -46.68578125 74.85789062 -47.0390625 74.26953125 C-49.51326391 68.42599052 -49.15853447 61.56667878 -49.125 55.3125 C-49.12886719 54.57966797 -49.13273437 53.84683594 -49.13671875 53.09179688 C-49.12982553 49.26950384 -48.92320283 45.71479235 -48 42 C-45 43 -45 43 -43.125 45.375 C-39.39920165 49.97745679 -35.80457381 51.32504956 -30 52 C-30 52.66 -30 53.32 -30 54 C-27.00634489 54.72069475 -24.01514837 55.37656707 -21 56 C-19.72382813 56.26425781 -18.44765625 56.52851562 -17.1328125 56.80078125 C-5.35850713 59.07456982 6.03369732 59.31862936 18 59 C17.49210937 58.5875 16.98421875 58.175 16.4609375 57.75 C7.7151319 50.41269493 0.6693158 41.62038284 -1 30 C-1.14005313 26.95709495 -1.14175247 23.92065826 -1.125 20.875 C-1.12306641 20.03348389 -1.12113281 19.19196777 -1.11914062 18.32495117 C-1.076595 12.17769865 -0.76810344 6.10367915 0 0 Z " fill="#FDFEFE" transform="translate(171,57)"/>
<path d="M0 0 C6.45646265 -0.33646355 12.33568105 0.93340929 18.625 2.3125 C19.70458984 2.54541748 20.78417969 2.77833496 21.89648438 3.01831055 C24.01400834 3.47660689 26.13090048 3.93783485 28.24707031 4.40234375 C30.3659504 4.86234893 32.49052653 5.29617374 34.6171875 5.71875 C45.09021389 7.87579609 55.15646407 11.60473883 65.25463867 15.06542969 C67.70723958 15.9003391 70.16620848 16.71114911 72.62890625 17.515625 C77.38096536 19.09715801 82.03725435 20.89245007 86.6875 22.75 C87.55528076 23.09562988 88.42306152 23.44125977 89.31713867 23.79736328 C95.72302501 26.3895319 101.86397113 29.30000943 107.95703125 32.5546875 C111.03549146 34.12657048 111.03549146 34.12657048 114.69921875 35.0078125 C118.09278237 36.02788961 118.66992419 36.60685893 121 39 C122.82670175 40.16929541 122.82670175 40.16929541 124.8359375 41.19140625 C125.57070313 41.57876953 126.30546875 41.96613281 127.0625 42.36523438 C128.2071875 42.95788086 128.2071875 42.95788086 129.375 43.5625 C130.13039063 43.96146484 130.88578125 44.36042969 131.6640625 44.77148438 C135.37987013 46.71708645 139.05707789 48.54693109 143 50 C143 50.66 143 51.32 143 52 C143.7425 52.268125 144.485 52.53625 145.25 52.8125 C147.89110345 53.95297649 149.71569429 55.28677072 152 57 C153.64797236 57.71162443 155.31165408 58.39031953 157 59 C157 59.66 157 60.32 157 61 C157.70640625 61.24105469 158.4128125 61.48210937 159.140625 61.73046875 C162.45552465 63.20224796 164.90507765 65.060884 167.75 67.3125 C168.89789101 68.21553885 170.04635883 69.11784482 171.1953125 70.01953125 C171.80665039 70.50115723 172.41798828 70.9827832 173.04785156 71.47900391 C175.09629737 73.0750291 177.16554027 74.64008818 179.2421875 76.19921875 C186.73980249 81.83771331 193.97615573 87.52691641 200.80078125 93.9765625 C202.78663828 95.80369206 204.81047012 97.42674512 207 99 C206.06860183 107.53781658 204.5855751 115.13931614 201 123 C199.23884324 127.27384161 197.53652722 131.57086579 195.91186523 135.8984375 C192.90950096 143.8862984 189.55181976 151.64645533 185.9375 159.375 C185.65687714 159.9760556 185.37625427 160.57711121 185.08712769 161.19638062 C173.26935993 186.46239689 160.2708584 211.22471402 143.22314453 233.40039062 C141.32198981 235.88669117 139.48125249 238.41757828 137.625 240.9375 C129.17050811 252.14987427 120.30624604 262.93003158 110.65625 273.1328125 C107.98850284 276.01241017 105.48632467 278.96416155 103 282 C100 280 100 280 98.8125 276.875 C93.06525033 262.93791956 73.72603747 255.0403868 61 249 C59.08131261 248.04571881 57.16451675 247.08762117 55.25 246.125 C54.43015625 245.71507812 53.6103125 245.30515625 52.765625 244.8828125 C51.89164062 244.44582031 51.89164062 244.44582031 51 244 C51 243.34 51 242.68 51 242 C54.04221065 241.91867358 57.0822238 241.85934626 60.125 241.8125 C60.9809375 241.78736328 61.836875 241.76222656 62.71875 241.73632812 C68.07631123 241.67451011 71.22054463 242.40276095 76 245 C81.49917057 245.74078633 87.82721292 246.34361595 92.625 243.125 C93.40875 242.42375 94.1925 241.7225 95 241 C95.99 240.34 96.98 239.68 98 239 C98.84823864 236.5810574 99.52614784 234.29174793 100.125 231.8125 C100.29386719 231.16474609 100.46273437 230.51699219 100.63671875 229.84960938 C104.90880358 213.01355853 104.95050958 194.34597814 99 178 C98.63489172 176.34000457 98.29032117 174.67469475 98 173 C97.01 172.67 96.02 172.34 95 172 C94.34934426 170.39048316 93.70140569 168.77982024 93.06640625 167.1640625 C89.45387289 159.83313399 83.32457576 154.00695581 77 149 C77.61611185 145.83819526 78.15413924 144.81253336 80.3125 142.1875 C90.23209938 128.37503458 88.45048162 106.94303089 86.22436523 91.00683594 C82.93149528 71.50273689 74.2382449 51.92029576 58 40 C52.44620375 36.41126509 47.67629489 34.41974721 41.0078125 34.62890625 C37.71428006 33.59727449 36.76102925 30.8578989 35 28 C25.20058275 15.87751555 13.87665411 8.09127615 0 1 C0 0.67 0 0.34 0 0 Z " fill="#FAFAFA" transform="translate(291,50)"/>
<path d="M0 0 C0.99 0 1.98 0 3 0 C3.928125 1.4540625 3.928125 1.4540625 4.875 2.9375 C13.24329232 15.33870428 29.13118944 19.68243522 42.9375 22.5625 C43.9282251 22.77519531 44.9189502 22.98789063 45.93969727 23.20703125 C52.41329107 24.56217366 58.88550046 25.61250362 65.4375 26.5 C82.17182081 28.81637449 98.75012336 33.82218145 111 46 C110.04077267 33.75911397 107.86692713 22.65035739 104 11 C103.6184375 9.85015625 103.236875 8.7003125 102.84375 7.515625 C102.42609375 6.27039062 102.42609375 6.27039062 102 5 C108.75323932 5.83337847 113.77503499 7.65428172 119.48046875 11.3671875 C122.10057004 13.11130584 122.10057004 13.11130584 125.39453125 14.84375 C143.45039298 25.0883142 154.48657257 45.12397194 160 64.5 C160.99 68.2125 160.99 68.2125 162 72 C162.33 62.43 162.66 52.86 163 43 C173.96745864 47.38698346 180.25378003 56.03448791 185.14453125 66.43359375 C192.59458709 83.87286303 195.09477222 104.79449504 189 123 C185.18245163 130.49875572 178.84098236 135.2858138 171 138 C170.01 138 169.02 138 168 138 C167.67 139.32 167.34 140.64 167 142 C168.32 142.66 169.64 143.32 171 144 C169 145 169 145 166.72265625 144.2578125 C165.84480469 143.88398438 164.96695313 143.51015625 164.0625 143.125 C161.38124664 141.99563555 158.76180239 140.9206008 156 140 C155.11328125 137.8046875 155.11328125 137.8046875 154.3125 134.875 C147.88178352 114.54719209 134.57020575 97.71549783 115.59375 87.734375 C114.80484375 87.37085938 114.80484375 87.37085938 114 87 C114 86.34 114 85.68 114 85 C112.205625 84.5978125 112.205625 84.5978125 110.375 84.1875 C106.62144624 83.25912994 103.39911194 81.86951157 100 80 C100 79.34 100 78.68 100 78 C93.67551301 76.93034128 87.35583327 75.86670454 81 75 C81.50789062 75.40089844 82.01578125 75.80179687 82.5390625 76.21484375 C87.62586583 80.41574313 92.18976104 84.93270585 95 91 C94.67 91.99 94.34 92.98 94 94 C91.5 92.625 91.5 92.625 89 91 C89 90.34 89 89.68 89 89 C88.30777344 88.87496094 87.61554688 88.74992187 86.90234375 88.62109375 C83.7211356 87.94032377 80.67289194 87.01539464 77.5625 86.0625 C57.02248052 80.21518597 33.18498992 79.2247572 13 87 C5.33004041 89.93713516 5.33004041 89.93713516 2.375 90.5 C-0.1549464 90.92435269 -0.1549464 90.92435269 -2.8125 92.4375 C-11.15181149 96.52539779 -21.2380907 97.68801688 -30.25 95.0625 C-38.07504576 91.60643812 -42.74184587 83.53246523 -46 76 C-46.34289062 75.42894531 -46.68578125 74.85789062 -47.0390625 74.26953125 C-49.51326391 68.42599052 -49.15853447 61.56667878 -49.125 55.3125 C-49.12886719 54.57966797 -49.13273437 53.84683594 -49.13671875 53.09179688 C-49.12982553 49.26950384 -48.92320283 45.71479235 -48 42 C-45 43 -45 43 -43.125 45.375 C-39.39920165 49.97745679 -35.80457381 51.32504956 -30 52 C-30 52.66 -30 53.32 -30 54 C-27.00634489 54.72069475 -24.01514837 55.37656707 -21 56 C-19.72382813 56.26425781 -18.44765625 56.52851562 -17.1328125 56.80078125 C-5.35850713 59.07456982 6.03369732 59.31862936 18 59 C17.49210937 58.5875 16.98421875 58.175 16.4609375 57.75 C7.7151319 50.41269493 0.6693158 41.62038284 -1 30 C-1.14005313 26.95709495 -1.14175247 23.92065826 -1.125 20.875 C-1.12306641 20.03348389 -1.12113281 19.19196777 -1.11914062 18.32495117 C-1.076595 12.17769865 -0.76810344 6.10367915 0 0 Z " fill="#5DC7E2" transform="translate(171,57)"/>
<path d="M0 0 C0 0.66 0 1.32 0 2 C0.71800781 2.23460937 1.43601562 2.46921875 2.17578125 2.7109375 C5.48203904 4.22001782 7.56217922 6.12280319 10.1875 8.625 C13.1245358 11.88785177 13.1245358 11.88785177 17 13 C17.99 11.515 17.99 11.515 19 10 C18.67 12.31 18.34 14.62 18 17 C14.61510494 16.38073856 11.45498876 15.50264988 8.1875 14.4375 C-6.68285423 10.38013184 -24.43788654 12.85975407 -38 20 C-53.24026218 29.43138588 -61.48292987 41.80501969 -66 59 C-66.556875 60.7325 -66.556875 60.7325 -67.125 62.5 C-68.25469869 67.01879475 -68.73610875 71.35428667 -69 76 C-69.06574219 77.13050781 -69.13148438 78.26101563 -69.19921875 79.42578125 C-69.72719407 97.24949989 -65.81493495 113.63929654 -58.70703125 129.91015625 C-57.39584673 132.92185778 -56.44210488 135.72050561 -56 139 C-60.75516713 142.74046619 -65.33558594 142.53652154 -71.125 142.5 C-72.08825195 142.49863037 -73.05150391 142.49726074 -74.04394531 142.49584961 C-84.04220819 142.28693802 -94.95865606 140.52067197 -104 136 C-104 135.34 -104 134.68 -104 134 C-104.99 133.79375 -105.98 133.5875 -107 133.375 C-111.8208913 131.98100733 -115.18570671 129.164292 -119 126 C-119.68835938 125.48050781 -120.37671875 124.96101562 -121.0859375 124.42578125 C-132.02781728 115.63672619 -140.74648794 102.30155307 -145 89 C-145.31453125 88.13246094 -145.6290625 87.26492188 -145.953125 86.37109375 C-149.12028435 76.25058001 -148.27280672 65.48137395 -148 55 C-144.49052826 58.31617898 -141.81589656 61.56392769 -139.3125 65.6875 C-136.95337752 69.57764151 -136.95337752 69.57764151 -134 73 C-133.96036133 72.41210693 -133.92072266 71.82421387 -133.87988281 71.21850586 C-132.15972082 46.85350418 -127.59638389 25.06791398 -109 8 C-99.69437472 0.13421359 -89.36114317 -5.10811616 -77.8125 -8.8125 C-77.17159424 -9.01963623 -76.53068848 -9.22677246 -75.87036133 -9.44018555 C-51.73657044 -16.74776316 -21.47619976 -12.91549622 0 0 Z " fill="#A8E1EF" transform="translate(357,263)"/>
<path d="M0 0 C0.21914063 0.51949219 0.43828125 1.03898437 0.6640625 1.57421875 C0.98117187 2.27160156 1.29828125 2.96898437 1.625 3.6875 C1.92664063 4.37199219 2.22828125 5.05648438 2.5390625 5.76171875 C7.09759345 12.74577821 14.97247896 15.6811376 22.1875 19.25 C45.4644602 31.11403204 45.4644602 31.11403204 50.25390625 42.46484375 C52.14400825 48.88723223 51.71819106 54.07619288 49 60.1875 C46.24788495 65.20792889 42.54406309 68.59477158 38 72 C35.462068 70.731034 35.27324416 69.72320946 34.0625 67.1875 C29.39186864 58.56793834 21.89358079 51.83130117 14.94116211 45.03369141 C6.00529488 36.26939489 -0.27877014 28.15755844 -4 16 C-5.43094602 29.80067942 1.01585134 41.24143675 9 52 C9.54398437 52.75539063 10.08796875 53.51078125 10.6484375 54.2890625 C14.11695855 58.94195659 17.96943975 63.15286086 21.9375 67.375 C38.27427012 84.78340929 38.27427012 84.78340929 38.3125 97.4375 C38.32925781 98.71496094 38.34601563 99.99242187 38.36328125 101.30859375 C37.62381854 108.82248901 33.20182871 113.87450839 28 119 C21.64431105 124.18831751 14.95493974 123.74774632 7 123 C-5.78056931 120.4585134 -12.84713724 109.91900712 -19.75 99.625 C-30.80907191 81.62840845 -35.52853859 56.65063846 -31.28125 35.80078125 C-30.36200239 32.43144222 -29.29656303 29.24140757 -28 26 C-27.649375 25.1028125 -27.29875 24.205625 -26.9375 23.28125 C-22.35905801 12.97975552 -12.2101642 0 0 0 Z " fill="#5CC6E1" transform="translate(332,296)"/>
<path d="M0 0 C-0.16242188 1.26585937 -0.32484375 2.53171875 -0.4921875 3.8359375 C-1.07536579 9.10927048 -1.15116465 14.3238555 -1.125 19.625 C-1.12306641 20.57906738 -1.12113281 21.53313477 -1.11914062 22.51611328 C-1.071589 30.37666138 -0.68303664 38.16947284 0 46 C-8.15980686 44.73017415 -13.91011088 43.78651883 -19 37 C-23.29319965 33.35153882 -27.10511022 30.28423347 -32.75 29.4375 C-38.39700219 30.41486576 -42.32141316 31.40176645 -46 36 C-53.07450206 50.14900411 -49.97681624 70.93294104 -45.19140625 85.3203125 C-44.13829715 88.57286584 -43.45801903 91.62013545 -43 95 C-42.34 95 -41.68 95 -41 95 C-39.80859375 96.6875 -39.80859375 96.6875 -38.4375 99 C-35.06163046 104.28579077 -30.83135401 108.0597624 -26 112 C-26.57898929 114.80632566 -27.01391978 116.01716772 -28.875 118.3125 C-31.35134911 121.44435328 -32.54792132 124.29719937 -34 128 C-34.66 128 -35.32 128 -36 128 C-36.495 130.97 -36.495 130.97 -37 134 C-37.66 134 -38.32 134 -39 134 C-39.268125 135.19625 -39.53625 136.3925 -39.8125 137.625 C-40.48403522 140.34924216 -41.18651858 142.35749395 -42.5 144.875 C-44.22543841 148.46966336 -44.88617183 151.82366545 -45.5703125 155.73046875 C-46 158 -46 158 -47 161 C-47.66 161 -48.32 161 -49 161 C-57.55336855 126.7865258 -54.68458172 88.69319727 -53.5625 53.6875 C-53.52334473 52.45628418 -53.48418945 51.22506836 -53.44384766 49.95654297 C-53.07430189 39.78624704 -52.31343848 29.82049715 -50.4375 19.8125 C-50.29892578 19.05130859 -50.16035156 18.29011719 -50.01757812 17.50585938 C-49.68269599 15.66978148 -49.34200192 13.83476504 -49 12 C-36.76903673 7.69651292 -24.24336328 4.36516645 -11.5625 1.6875 C-10.75184082 1.51613525 -9.94118164 1.34477051 -9.10595703 1.16821289 C-6.02158172 0.536406 -3.15689764 0 0 0 Z " fill="#CDD5D7" transform="translate(156,52)"/>
<path d="M0 0 C0.33 0 0.66 0 1 0 C0.99333817 0.79337769 0.98667633 1.58675537 0.97981262 2.4041748 C0.91857494 10.04658321 0.87347295 17.68886552 0.84456348 25.33145905 C0.82919933 29.25640191 0.80853127 33.18113498 0.77368164 37.10595703 C0.50871885 67.81149714 3.01940946 97.44049429 8.41992188 127.69775391 C9.25578679 132.45613304 10.01033849 137.22586429 10.75 142 C11.47723649 146.67066617 12.21343291 151.33886172 13 156 C12.34 155.34 11.68 154.68 11 154 C8.77341846 153.62995706 8.77341846 153.62995706 6.2109375 153.5859375 C5.36321777 153.55032715 4.51549805 153.5147168 3.64208984 153.47802734 C2.02488037 153.42702881 2.02488037 153.42702881 0.375 153.375 C-3.04875 153.25125 -6.4725 153.1275 -10 153 C-10 140.46 -10 127.92 -10 115 C-32.44 115 -54.88 115 -78 115 C-78 114.34 -78 113.68 -78 113 C-55.56 113 -33.12 113 -10 113 C-10 89.57 -10 66.14 -10 42 C-9.34 41.67 -8.68 41.34 -8 41 C-8 52.22 -8 63.44 -8 75 C-5.69 75 -3.38 75 -1 75 C-1.00222061 74.17838379 -1.00444122 73.35676758 -1.00672913 72.51025391 C-1.02682037 64.74262201 -1.04201904 56.97500284 -1.05181217 49.20735168 C-1.05701626 45.21455775 -1.06406868 41.22178541 -1.07543945 37.22900391 C-1.08635663 33.37107126 -1.09229545 29.51315931 -1.09487724 25.6552124 C-1.09671564 24.18812739 -1.10030541 22.72104342 -1.10573006 21.25396729 C-1.13109858 14.10458473 -1.15126372 7.07489399 0 0 Z " fill="#E2E4E5" transform="translate(78,104)"/>
<path d="M0 0 C0.33 0 0.66 0 1 0 C1 5.61 1 11.22 1 17 C1.99 17.33 2.98 17.66 4 18 C3.690625 18.70125 3.38125 19.4025 3.0625 20.125 C-2.28555582 34.59620986 0.05706324 53.03479995 4.80859375 67.3203125 C5.86170285 70.57286584 6.54198097 73.62013545 7 77 C7.66 77 8.32 77 9 77 C10.19140625 78.6875 10.19140625 78.6875 11.5625 81 C14.93836954 86.28579077 19.16864599 90.0597624 24 94 C23.42101071 96.80632566 22.98608022 98.01716772 21.125 100.3125 C18.64865089 103.44435328 17.45207868 106.29719937 16 110 C15.34 110 14.68 110 14 110 C13.67 111.98 13.34 113.96 13 116 C12.34 116 11.68 116 11 116 C10.731875 117.19625 10.46375 118.3925 10.1875 119.625 C9.51596478 122.34924216 8.81348142 124.35749395 7.5 126.875 C5.77456159 130.46966336 5.11382817 133.82366545 4.4296875 137.73046875 C4 140 4 140 3 143 C2.34 143 1.68 143 1 143 C-7.55336855 108.7865258 -4.68458172 70.69319727 -3.5625 35.6875 C-3.52334473 34.45628418 -3.48418945 33.22506836 -3.44384766 31.95654297 C-3.11322766 22.85752593 -2.68186312 13.76689735 -0.9375 4.8125 C-0.67259766 3.42998047 -0.67259766 3.42998047 -0.40234375 2.01953125 C-0.26957031 1.35308594 -0.13679688 0.68664062 0 0 Z " fill="#F7F9F9" transform="translate(106,70)"/>
<path d="M0 0 C2.76152917 0.00541428 5.52289918 -0.00001444 8.28442383 -0.00634766 C17.00183458 -0.00927778 25.63786941 0.02709214 34.30200195 1.13037109 C32.77205404 2.88818359 31.24210612 4.64599609 29.7121582 6.40380859 C27.08713399 9.61782716 27.16692346 11.85604399 27.17700195 15.94287109 C27.17442383 16.98056641 27.1718457 18.01826172 27.16918945 19.08740234 C27.29124021 21.88380051 27.6683684 24.40976988 28.30200195 27.13037109 C27.06321289 26.83904297 25.82442383 26.54771484 24.5480957 26.24755859 C18.85887774 24.98328793 13.12427307 24.12838631 7.36450195 23.25537109 C-26.59541589 17.93224903 -26.59541589 17.93224903 -38.69799805 9.13037109 C-39.64674805 8.44974609 -40.59549805 7.76912109 -41.57299805 7.06787109 C-42.27424805 6.42849609 -42.97549805 5.78912109 -43.69799805 5.13037109 C-43.69799805 4.14037109 -43.69799805 3.15037109 -43.69799805 2.13037109 C-38.67152255 1.34912162 -33.68145574 0.85017256 -28.6003418 0.57568359 C-27.8268187 0.533638 -27.05329559 0.49159241 -26.2563324 0.44827271 C-17.50626322 0.0145325 -8.75911321 -0.02041568 0 0 Z " fill="#FCFDFD" transform="translate(230.697998046875,44.86962890625)"/>
<path d="M0 0 C11.88 0 23.76 0 36 0 C36 11.55 36 23.1 36 35 C24.12 35 12.24 35 0 35 C0 23.45 0 11.9 0 0 Z " fill="#FEFEFE" transform="translate(518,219)"/>
<path d="M0 0 C11.88 0 23.76 0 36 0 C36 11.55 36 23.1 36 35 C24.12 35 12.24 35 0 35 C0 23.45 0 11.9 0 0 Z " fill="#FEFEFE" transform="translate(518,182)"/>
<path d="M0 0 C5.589375 -0.020625 11.17875 -0.04125 16.9375 -0.0625 C18.70343506 -0.071604 20.46937012 -0.08070801 22.28881836 -0.09008789 C23.68082605 -0.09300714 25.07283459 -0.09555567 26.46484375 -0.09765625 C27.55835144 -0.1053302 27.55835144 -0.1053302 28.6739502 -0.11315918 C30.44970076 -0.11347011 32.22534208 -0.06228515 34 0 C35 1 35 1 35.11352539 4.32641602 C35.11327435 5.80225555 35.10771514 7.27810097 35.09765625 8.75390625 C35.09664917 9.44093628 35.09564209 10.12796631 35.09460449 10.83581543 C35.08935776 13.41139384 35.07539659 15.98694853 35.0625 18.5625 C35.041875 24.316875 35.02125 30.07125 35 36 C23.45 36 11.9 36 0 36 C0 24.12 0 12.24 0 0 Z " fill="#FEFEFE" transform="translate(444,368)"/>
<path d="M0 0 C11.55 0 23.1 0 35 0 C35 11.55 35 23.1 35 35 C23.45 35 11.9 35 0 35 C0 23.45 0 11.9 0 0 Z " fill="#FEFEFE" transform="translate(70,406)"/>
<path d="M0 0 C11.22 0 22.44 0 34 0 C34 11.55 34 23.1 34 35 C22.45 35 10.9 35 -1 35 C-1.020625 29.59625 -1.04125 24.1925 -1.0625 18.625 C-1.071604 16.92037598 -1.08070801 15.21575195 -1.09008789 13.45947266 C-1.09300802 12.11100341 -1.09555635 10.76253328 -1.09765625 9.4140625 C-1.10277222 8.71176514 -1.10788818 8.00946777 -1.11315918 7.28588867 C-1.1140718 2.2281436 -1.1140718 2.2281436 0 0 Z " fill="#FEFEFE" transform="translate(108,406)"/>
<path d="M0 0 C1.38594524 0.00050016 2.77191659 0.01154826 4.15771484 0.03173828 C4.80442139 0.03375244 5.45112793 0.0357666 6.11743164 0.0378418 C8.5345773 0.04831053 10.9516219 0.07623318 13.36865234 0.10205078 C21.47427734 0.16392578 21.47427734 0.16392578 29.74365234 0.22705078 C29.74365234 11.77705078 29.74365234 23.32705078 29.74365234 35.22705078 C24.33990234 35.24767578 18.93615234 35.26830078 13.36865234 35.28955078 C11.66402832 35.29865479 9.9594043 35.30775879 8.203125 35.31713867 C6.85465575 35.3200588 5.50618562 35.32260713 4.15771484 35.32470703 C3.45541748 35.329823 2.75312012 35.33493896 2.02954102 35.34020996 C-3.02820406 35.34112258 -3.02820406 35.34112258 -5.25634766 34.22705078 C-5.30572466 29.7063965 -5.34205589 25.18589861 -5.36621094 20.66503906 C-5.37627883 19.1265998 -5.38993412 17.58817971 -5.40722656 16.04980469 C-5.43144082 13.84060945 -5.44282256 11.63166683 -5.45166016 9.42236328 C-5.46198273 8.73272491 -5.4723053 8.04308655 -5.48294067 7.33255005 C-5.48334244 5.62904172 -5.37825791 3.92619135 -5.25634766 2.22705078 C-3.25634766 0.22705078 -3.25634766 0.22705078 0 0 Z " fill="#FEFEFE" transform="translate(523.25634765625,32.77294921875)"/>
<path d="M0 0 C11.55 0 23.1 0 35 0 C35 11.22 35 22.44 35 34 C23.45 34 11.9 34 0 34 C0 22.78 0 11.56 0 0 Z " fill="#FEFEFE" transform="translate(406,369)"/>
<path d="M0 0 C3.526875 -0.12375 7.05375 -0.2475 10.6875 -0.375 C11.79053467 -0.42962402 12.89356934 -0.48424805 14.0300293 -0.54052734 C21.06848449 -0.66027057 21.06848449 -0.66027057 23.82275391 1.29199219 C25.65680175 3.42039339 27 5.11789135 27 8 C27.66 8 28.32 8 29 8 C29.98484108 9.74681293 30.96266187 11.4975851 31.9375 13.25 C32.48277344 14.22453125 33.02804688 15.1990625 33.58984375 16.203125 C37.21280888 23.38883978 36 28.02019479 36 37 C24.12 37 12.24 37 0 37 C0 24.79 0 12.58 0 0 Z " fill="#FBFCFC" transform="translate(107,367)"/>
<path d="M0 0 C11.55 0 23.1 0 35 0 C35.04125 2.97 35.0825 5.94 35.125 9 C35.14320801 9.91910156 35.16141602 10.83820313 35.18017578 11.78515625 C35.24083216 20.91100577 33.20152675 26.59694651 29 35 C19.43 35 9.86 35 0 35 C0 23.45 0 11.9 0 0 Z " fill="#FEFEFE" transform="translate(444,182)"/>
<path d="M0 0 C1.43352211 0.00025101 2.86705028 0.00580931 4.30053711 0.01586914 C5.30159485 0.01737976 5.30159485 0.01737976 6.32287598 0.0189209 C8.82456166 0.02416731 11.32622292 0.03812848 13.82788086 0.05102539 C22.21194336 0.08196289 22.21194336 0.08196289 30.76538086 0.11352539 C30.76538086 11.66352539 30.76538086 23.21352539 30.76538086 35.11352539 C22.18538086 35.11352539 13.60538086 35.11352539 4.76538086 35.11352539 C4.76538086 34.45352539 4.76538086 33.79352539 4.76538086 33.11352539 C4.20850586 33.07227539 3.65163086 33.03102539 3.07788086 32.98852539 C-0.52219396 31.62633492 -2.54246476 29.48456235 -4.23461914 26.11352539 C-4.87277125 21.82650939 -4.75169074 17.62441102 -4.60961914 13.30102539 C-4.59543945 12.1440918 -4.58125977 10.9871582 -4.56665039 9.79516602 C-4.39681743 0.15431505 -4.39681743 0.15431505 0 0 Z " fill="#FEFEFE" transform="translate(522.234619140625,106.886474609375)"/>
<path d="M0 0 C11.55 0 23.1 0 35 0 C35 19.543125 35 19.543125 29.625 25.375 C29.11710937 25.98859375 28.60921875 26.6021875 28.0859375 27.234375 C26.74982914 28.84473718 25.37702598 30.42448379 24 32 C23.34 32.99 22.68 33.98 22 35 C19.86108398 35.35644531 19.86108398 35.35644531 17.24609375 35.328125 C15.84133789 35.32039063 15.84133789 35.32039063 14.40820312 35.3125 C13.42787109 35.291875 12.44753906 35.27125 11.4375 35.25 C9.96120117 35.24226563 9.96120117 35.24226563 8.45507812 35.234375 C1.15386542 35.15386542 1.15386542 35.15386542 0 34 C-0.08846834 31.47931819 -0.11534524 28.98545583 -0.09765625 26.46484375 C-0.09664917 25.79747192 -0.09564209 25.1301001 -0.09460449 24.44250488 C-0.08935808 21.9408192 -0.07539691 19.43915794 -0.0625 16.9375 C-0.041875 11.348125 -0.02125 5.75875 0 0 Z " fill="#FDFEFE" transform="translate(406,257)"/>
<path d="M0 0 C7.59 0 15.18 0 23 0 C23 11.55 23 23.1 23 35 C11.45 35 -0.1 35 -12 35 C-12 18.81188119 -12 18.81188119 -5.37890625 10.13671875 C-3.30479017 6.92272017 -1.71065744 3.42131488 0 0 Z " fill="#FDFDFD" transform="translate(381,406)"/>
<path d="M0 0 C1.084021 0.00523682 2.16804199 0.01047363 3.28491211 0.01586914 C4.33815674 0.0183667 5.39140137 0.02086426 6.4765625 0.0234375 C7.82484131 0.0325415 9.17312012 0.04164551 10.56225586 0.05102539 C14.83163086 0.07165039 19.10100586 0.09227539 23.49975586 0.11352539 C23.49975586 11.33352539 23.49975586 22.55352539 23.49975586 34.11352539 C11.94975586 34.11352539 0.39975586 34.11352539 -11.50024414 34.11352539 C-11.50024414 26.23852539 -11.50024414 26.23852539 -10.40649414 21.83618164 C-10.1809082 20.9112793 -9.95532227 19.98637695 -9.72290039 19.03344727 C-9.48442383 18.09049805 -9.24594727 17.14754883 -9.00024414 16.17602539 C-8.76176758 15.20600586 -8.52329102 14.23598633 -8.27758789 13.23657227 C-7.69231026 10.86034507 -7.09971163 8.48620497 -6.50024414 6.11352539 C-5.84024414 6.11352539 -5.18024414 6.11352539 -4.50024414 6.11352539 C-4.35586914 5.30915039 -4.21149414 4.50477539 -4.06274414 3.67602539 C-3.28858947 0.14932078 -3.28858947 0.14932078 0 0 Z " fill="#FDFDFD" transform="translate(529.500244140625,144.886474609375)"/>
<path d="M0 0 C11.55 0 23.1 0 35 0 C35 11.55 35 23.1 35 35 C26.42 35 17.84 35 9 35 C8.34 32.69 7.68 30.38 7 28 C6.52031724 26.47949327 6.0308034 24.96201902 5.52734375 23.44921875 C5.26759766 22.66869141 5.00785156 21.88816406 4.74023438 21.08398438 C4.47533203 20.29314453 4.21042969 19.50230469 3.9375 18.6875 C3.66873047 17.87732422 3.39996094 17.06714844 3.12304688 16.23242188 C2.86458984 15.45833984 2.60613281 14.68425781 2.33984375 13.88671875 C1.98974243 12.83810669 1.98974243 12.83810669 1.63256836 11.76831055 C1.01445521 9.92906112 1.01445521 9.92906112 0 8 C0 5.36 0 2.72 0 0 Z " fill="#FEFEFE" transform="translate(369,107)"/>
<path d="M0 0 C11.88 0 23.76 0 36 0 C36 9.9 36 19.8 36 30 C24.12 30 12.24 30 0 30 C0 20.1 0 10.2 0 0 Z " fill="#FEFEFE" transform="translate(518,0)"/>
<path d="M0 0 C9.9 0 19.8 0 30 0 C30 11.55 30 23.1 30 35 C20.1 35 10.2 35 0 35 C0 23.45 0 11.9 0 0 Z " fill="#FEFEFE" transform="translate(0,257)"/>
<path d="M0 0 C9.9 0 19.8 0 30 0 C30 11.55 30 23.1 30 35 C20.1 35 10.2 35 0 35 C0 23.45 0 11.9 0 0 Z " fill="#FEFEFE" transform="translate(0,219)"/>
<path d="M0 0 C11.55 0 23.1 0 35 0 C35 9.9 35 19.8 35 30 C23.45 30 11.9 30 0 30 C0 20.1 0 10.2 0 0 Z " fill="#FEFEFE" transform="translate(556,0)"/>
<path d="M0 0 C11.55 0 23.1 0 35 0 C35 9.9 35 19.8 35 30 C23.45 30 11.9 30 0 30 C0 20.1 0 10.2 0 0 Z " fill="#FEFEFE" transform="translate(369,0)"/>
<path d="M0 0 C11.55 0 23.1 0 35 0 C35 9.9 35 19.8 35 30 C23.45 30 11.9 30 0 30 C0 20.1 0 10.2 0 0 Z " fill="#FEFEFE" transform="translate(70,0)"/>
<path d="M0 0 C11.55 0 23.1 0 35 0 C35 9.9 35 19.8 35 30 C23.45 30 11.9 30 0 30 C0 20.1 0 10.2 0 0 Z " fill="#FEFEFE" transform="translate(33,0)"/>
<path d="M0 0 C11.55 0 23.1 0 35 0 C35 9.9 35 19.8 35 30 C30.17612933 30.0229102 25.35244611 30.04283686 20.52856445 30.05493164 C18.88630536 30.05997174 17.24405077 30.06680378 15.60180664 30.07543945 C13.24624521 30.08751926 10.89074291 30.09323139 8.53515625 30.09765625 C7.79660904 30.10281754 7.05806183 30.10797882 6.2971344 30.11329651 C4.53101912 30.1134925 2.76502854 30.06194719 1 30 C0 29 0 29 -0.11352539 26.22436523 C-0.10828857 25.01466064 -0.10305176 23.80495605 -0.09765625 22.55859375 C-0.09515869 21.38353271 -0.09266113 20.20847168 -0.09008789 18.99780273 C-0.08098389 17.49290283 -0.07187988 15.98800293 -0.0625 14.4375 C-0.041875 9.673125 -0.02125 4.90875 0 0 Z " fill="#FEFEFE" transform="translate(406,0)"/>
<path d="M0 0 C9.9 0 19.8 0 30 0 C30 11.22 30 22.44 30 34 C20.1 34 10.2 34 0 34 C0 22.78 0 11.56 0 0 Z " fill="#FEFEFE" transform="translate(0,145)"/>
<path d="M0 0 C8.91 0 17.82 0 27 0 C27 11.55 27 23.1 27 35 C10.40941472 36.52962843 10.40941472 36.52962843 6.1171875 33.8046875 C2.92771125 30.80010843 0.59442774 27.2887486 -1.77978516 23.63134766 C-3.80718031 20.92085258 -6.32281916 19.05134636 -9 17 C-8.4054429 13.97436498 -7.50729497 12.05487168 -5.625 9.625 C-3.18216396 6.4628012 -1.8866163 3.7732326 0 0 Z " fill="#FCFDFD" transform="translate(377,182)"/>
<path d="M0 0 C12.5754929 1.79649899 23.78481691 8.23900929 35 14 C35.02888514 17.14581423 35.04675923 20.29159469 35.0625 23.4375 C35.07087891 24.33533203 35.07925781 25.23316406 35.08789062 26.15820312 C35.09111328 27.01220703 35.09433594 27.86621094 35.09765625 28.74609375 C35.10289307 29.53685303 35.10812988 30.3276123 35.11352539 31.14233398 C35 33 35 33 34 34 C31.47931819 34.08846834 28.98545583 34.11534524 26.46484375 34.09765625 C25.46378601 34.09614563 25.46378601 34.09614563 24.44250488 34.09460449 C21.9408192 34.08935808 19.43915794 34.07539691 16.9375 34.0625 C8.5534375 34.0315625 8.5534375 34.0315625 0 34 C0 22.78 0 11.56 0 0 Z " fill="#FCFDFD" transform="translate(369,71)"/>
<path d="M0 0 C0 11.55 0 23.1 0 35 C-11.55 35 -23.1 35 -35 35 C-35 23 -35 23 -32.3671875 19.125 C-31.23298138 18.05090158 -30.06776962 17.00866822 -28.875 16 C-28.30523437 15.46761719 -27.73546875 14.93523437 -27.1484375 14.38671875 C-23.65940397 11.19108122 -19.93723914 8.6248261 -16 6 C-14.4689527 4.35778467 -14.4689527 4.35778467 -13.25 2.75 C-10 0 -10 0 0 0 Z " fill="#FCFDFD" transform="translate(441,331)"/>
<path d="M0 0 C5.61 0 11.22 0 17 0 C17 11.88 17 23.76 17 36 C11.905625 36.020625 6.81125 36.04125 1.5625 36.0625 C-0.04681396 36.071604 -1.65612793 36.08070801 -3.31420898 36.09008789 C-4.57048096 36.09258545 -5.82675293 36.09508301 -7.12109375 36.09765625 C-9.06133423 36.10551147 -9.06133423 36.10551147 -11.04077148 36.11352539 C-14 36 -14 36 -15 35 C-14.82984118 27.82330139 -11.31109708 22.06444583 -8.0625 15.8125 C-7.51142578 14.73291016 -6.96035156 13.65332031 -6.39257812 12.54101562 C-5.37053101 10.54038635 -4.34437874 8.54184493 -3.31274414 6.54614258 C-2.1920516 4.37249509 -1.09368141 2.18736282 0 0 Z " fill="#F9FBFB" transform="translate(499,219)"/>
<path d="M0 0 C11.55 0 23.1 0 35 0 C35 8.58 35 17.16 35 26 C23.45 26 11.9 26 0 26 C0 17.42 0 8.84 0 0 Z " fill="#FEFEFE" transform="translate(556,443)"/>
<path d="M0 0 C11.55 0 23.1 0 35 0 C35 8.58 35 17.16 35 26 C23.45 26 11.9 26 0 26 C0 17.42 0 8.84 0 0 Z " fill="#FEFEFE" transform="translate(481,443)"/>
<path d="M0 0 C11.55 0 23.1 0 35 0 C35 8.58 35 17.16 35 26 C23.45 26 11.9 26 0 26 C0 17.42 0 8.84 0 0 Z " fill="#FEFEFE" transform="translate(444,443)"/>
<path d="M0 0 C11.55 0 23.1 0 35 0 C35 8.58 35 17.16 35 26 C23.45 26 11.9 26 0 26 C0 17.42 0 8.84 0 0 Z " fill="#FEFEFE" transform="translate(369,443)"/>
<path d="M0 0 C11.55 0 23.1 0 35 0 C35 8.58 35 17.16 35 26 C23.45 26 11.9 26 0 26 C0 17.42 0 8.84 0 0 Z " fill="#FEFEFE" transform="translate(70,443)"/>
<path d="M0 0 C11.55 0 23.1 0 35 0 C35 8.58 35 17.16 35 26 C23.45 26 11.9 26 0 26 C0 17.42 0 8.84 0 0 Z " fill="#FEFEFE" transform="translate(33,443)"/>
<path d="M0 0 C1.43352212 0.00015908 2.86704998 0.00585132 4.30053711 0.01586914 C5.43041298 0.01799156 5.43041298 0.01799156 6.58311462 0.02015686 C8.99807646 0.02577163 11.41294687 0.03832656 13.82788086 0.05102539 C15.46134307 0.05603849 17.09480672 0.06060173 18.72827148 0.06469727 C22.74070516 0.07489664 26.75294021 0.09446894 30.76538086 0.11352539 C30.76538086 8.69352539 30.76538086 17.27352539 30.76538086 26.11352539 C19.21538086 26.11352539 7.66538086 26.11352539 -4.23461914 26.11352539 C-4.25524414 22.00915039 -4.27586914 17.90477539 -4.29711914 13.67602539 C-4.30622314 12.37995361 -4.31532715 11.08388184 -4.32470703 9.74853516 C-4.32720459 8.735896 -4.32970215 7.72325684 -4.33227539 6.67993164 C-4.33751221 5.63780518 -4.34274902 4.59567871 -4.34814453 3.52197266 C-4.17339745 -0.18529608 -3.8081027 0.13365294 0 0 Z " fill="#FEFEFE" transform="translate(410.234619140625,442.886474609375)"/>
<path d="M0 0 C4.82387067 -0.0229102 9.64755389 -0.04283686 14.47143555 -0.05493164 C16.11369464 -0.05997174 17.75594923 -0.06680378 19.39819336 -0.07543945 C21.75375479 -0.08751926 24.10925709 -0.09323139 26.46484375 -0.09765625 C27.20339096 -0.10281754 27.94193817 -0.10797882 28.7028656 -0.11329651 C30.46898088 -0.1134925 32.23497146 -0.06194719 34 0 C35 1 35 1 35.11352539 3.40844727 C35.10828857 4.45057373 35.10305176 5.4927002 35.09765625 6.56640625 C35.09515869 7.57904541 35.09266113 8.59168457 35.09008789 9.63500977 C35.08098389 10.93108154 35.07187988 12.22715332 35.0625 13.5625 C35.041875 17.666875 35.02125 21.77125 35 26 C23.45 26 11.9 26 0 26 C0 17.42 0 8.84 0 0 Z " fill="#FEFEFE" transform="translate(145,443)"/>
<path d="M0 0 C1.43352212 0.00015908 2.86704998 0.00585132 4.30053711 0.01586914 C5.43041298 0.01799156 5.43041298 0.01799156 6.58311462 0.02015686 C8.99807646 0.02577163 11.41294687 0.03832656 13.82788086 0.05102539 C15.46134307 0.05603849 17.09480672 0.06060173 18.72827148 0.06469727 C22.74070516 0.07489664 26.75294021 0.09446894 30.76538086 0.11352539 C30.76538086 8.69352539 30.76538086 17.27352539 30.76538086 26.11352539 C19.21538086 26.11352539 7.66538086 26.11352539 -4.23461914 26.11352539 C-4.25524414 22.00915039 -4.27586914 17.90477539 -4.29711914 13.67602539 C-4.30622314 12.37995361 -4.31532715 11.08388184 -4.32470703 9.74853516 C-4.32720459 8.735896 -4.32970215 7.72325684 -4.33227539 6.67993164 C-4.33751221 5.63780518 -4.34274902 4.59567871 -4.34814453 3.52197266 C-4.17339745 -0.18529608 -3.8081027 0.13365294 0 0 Z " fill="#FEFEFE" transform="translate(111.234619140625,442.886474609375)"/>
<path d="M0 0 C11.22 0 22.44 0 34 0 C34 8.58 34 17.16 34 26 C22.45 26 10.9 26 -1 26 C-1.020625 22.08125 -1.04125 18.1625 -1.0625 14.125 C-1.071604 12.89023926 -1.08070801 11.65547852 -1.09008789 10.38330078 C-1.09258545 9.41376465 -1.09508301 8.44422852 -1.09765625 7.4453125 C-1.10289307 6.45031738 -1.10812988 5.45532227 -1.11352539 4.43017578 C-1 2 -1 2 0 0 Z " fill="#FEFEFE" transform="translate(519,443)"/>
<path d="M0 0 C9.9 0 19.8 0 30 0 C30 9.9 30 19.8 30 30 C20.1 30 10.2 30 0 30 C0 20.1 0 10.2 0 0 Z " fill="#FEFEFE" transform="translate(0,0)"/>
<path d="M0 0 C8.25 0 16.5 0 25 0 C25 11.55 25 23.1 25 35 C16.42 35 7.84 35 -1 35 C-0.67 23.45 -0.34 11.9 0 0 Z " fill="#FEFEFE" transform="translate(379,144)"/>
<path d="M0 0 C6.27 0 12.54 0 19 0 C19.33 0.99 19.66 1.98 20 3 C20.66 3 21.32 3 22 3 C22.33776684 4.7491497 22.67003671 6.49936145 23 8.25 C23.185625 9.22453125 23.37125 10.1990625 23.5625 11.203125 C24 14 24 14 24 18 C24.66 18 25.32 18 26 18 C26.50377768 20.26999825 27.00290019 22.54103003 27.5 24.8125 C27.7784375 26.07707031 28.056875 27.34164063 28.34375 28.64453125 C29 32 29 32 29 35 C19.43 35 9.86 35 0 35 C0 23.45 0 11.9 0 0 Z " fill="#FBFCFC" transform="translate(70,257)"/>
<path d="M0 0 C0 8.58 0 17.16 0 26 C-11.55 26 -23.1 26 -35 26 C-35 9 -35 9 -32.125 5.6875 C-30.15234375 4.78125 -30.15234375 4.78125 -28 4 C-27.32066406 3.6184375 -26.64132812 3.236875 -25.94140625 2.84375 C-17.74040463 -1.36334962 -8.96539758 -0.26762381 0 0 Z " fill="#FCFDFD" transform="translate(292,443)"/>
<path d="M0 0 C0.73541016 0.00202423 1.47082031 0.00404846 2.22851562 0.00613403 C2.97939453 0.00517731 3.73027344 0.00422058 4.50390625 0.00323486 C6.09440189 0.00255315 7.6849003 0.00440682 9.27539062 0.00857544 C11.71816217 0.01392386 14.16074984 0.00863019 16.60351562 0.00222778 C18.1451827 0.00288857 19.68684966 0.00416973 21.22851562 0.00613403 C21.96392578 0.0041098 22.69933594 0.00208557 23.45703125 0 C28.61356402 0.02399493 28.61356402 0.02399493 29.72851562 1.13894653 C29.81703092 3.73253975 29.84377507 6.29934345 29.82617188 8.89285278 C29.82475693 9.66829941 29.82334198 10.44374603 29.82188416 11.24269104 C29.81626908 13.72898148 29.80371409 16.21518314 29.79101562 18.70144653 C29.78600256 20.38308586 29.78143932 22.0647266 29.77734375 23.74636841 C29.76629476 27.87726219 29.74902007 32.00808929 29.72851562 36.13894653 C25.68115376 34.64353406 23.73551912 33.34733923 21.04101562 29.95144653 C13.76137799 21.40578496 4.53043267 15.94744497 -6.27148438 13.13894653 C-6.2983499 11.15985256 -6.31781813 9.18065682 -6.33398438 7.20144653 C-6.34558594 6.0992981 -6.3571875 4.99714966 -6.36914062 3.86160278 C-6.19909559 -0.87925278 -4.23286339 0.01969681 0 0 Z " fill="#FBFBFC" transform="translate(337.271484375,68.86105346679688)"/>
<path d="M0 0 C0 11.88 0 23.76 0 36 C-7.59 36 -15.18 36 -23 36 C-23.9375 27.375 -23.9375 27.375 -24.22631836 24.69287109 C-24.34438843 23.61900146 -24.34438843 23.61900146 -24.46484375 22.5234375 C-24.54508789 21.74274902 -24.62533203 20.96206055 -24.70800781 20.15771484 C-24.97370839 17.80087559 -24.97370839 17.80087559 -25.91796875 14.8125 C-26 12 -26 12 -23.7109375 8.7890625 C-22.61798045 7.71467511 -21.5049748 6.66038415 -20.375 5.625 C-19.859375 5.07972656 -19.34375 4.53445313 -18.8125 3.97265625 C-12.58732881 -1.85796183 -9.78443907 0 0 0 Z " fill="#FBFBFC" transform="translate(404,368)"/>
<path d="M0 0 C1.32 0.33 2.64 0.66 4 1 C4 1.66 4 2.32 4 3 C4.86496094 3.07347656 5.72992188 3.14695312 6.62109375 3.22265625 C11.28609944 4.29587721 14.06353881 6.81683936 17.72924805 9.78881836 C18.29812744 10.24780518 18.86700684 10.70679199 19.453125 11.1796875 C20.03126953 11.64858398 20.60941406 12.11748047 21.20507812 12.60058594 C23.00348425 14.0027165 24.84597234 15.2926315 26.734375 16.5703125 C27.3337085 16.98869385 27.93304199 17.4070752 28.55053711 17.83813477 C30.22710186 19.00315794 31.91982341 20.14482783 33.61328125 21.28515625 C36 24 36 24 36 33 C24.12 33 12.24 33 0 33 C0 22.11 0 11.22 0 0 Z " fill="#FBFCFC" transform="translate(443,109)"/>
<path d="M0 0 C9.9 0 19.8 0 30 0 C30 8.58 30 17.16 30 26 C20.1 26 10.2 26 0 26 C0 17.42 0 8.84 0 0 Z " fill="#FEFEFE" transform="translate(0,443)"/>
<path d="M0 0 C0.99 0 1.98 0 3 0 C3 9.9 3 19.8 3 30 C14.55 30 26.1 30 38 30 C38 20.1 38 10.2 38 0 C38.66 0 39.32 0 40 0 C40 9.9 40 19.8 40 30 C51.55 30 63.1 30 75 30 C75 20.1 75 10.2 75 0 C75.66 0 76.32 0 77 0 C77.495 14.355 77.495 14.355 78 29 C85.92 29.33 93.84 29.66 102 30 C98.89670904 31.55164548 96.65435223 32.45576586 93.375 33.25390625 C92.50359375 33.46853516 91.6321875 33.68316406 90.734375 33.90429688 C89.38085938 34.23010742 89.38085938 34.23010742 88 34.5625 C87.09765625 34.78357422 86.1953125 35.00464844 85.265625 35.23242188 C83.58646499 35.643518 81.90682791 36.05267407 80.2265625 36.45922852 C78.1487161 36.9638809 76.07377338 37.47889342 74 38 C74.33 36.02 74.66 34.04 75 32 C63.45 32 51.9 32 40 32 C40 43.88 40 55.76 40 68 C39.34 68 38.68 68 38 68 C38 56.45 38 44.9 38 33 C26.45 33 14.9 33 3 33 C3 44.55 3 56.1 3 68 C2.01 68 1.02 68 0 68 C0 56.45 0 44.9 0 33 C-9.9 33 -19.8 33 -30 33 C-30 32.01 -30 31.02 -30 30 C-20.1 30 -10.2 30 0 30 C0 20.1 0 10.2 0 0 Z " fill="#EDEEEE" transform="translate(30,0)"/>
<path d="M0 0 C9 0 9 0 11.28759766 1.87670898 C11.82433105 2.74110596 12.36106445 3.60550293 12.9140625 4.49609375 C13.53023437 5.44806641 14.14640625 6.40003906 14.78125 7.38085938 C15.3896875 8.38955078 15.998125 9.39824219 16.625 10.4375 C17.864342 12.39633448 19.10650703 14.35338584 20.3515625 16.30859375 C20.95000977 17.26620605 21.54845703 18.22381836 22.16503906 19.21044922 C24.44351426 22.67424081 26.97498309 25.86656771 29.63037109 29.04711914 C31 31 31 31 32 35 C21.44 35 10.88 35 0 35 C0 23.45 0 11.9 0 0 Z " fill="#F9FAFA" transform="translate(145,406)"/>
<path d="M0 0 C11.55 0 23.1 0 35 0 C35 1.65 35 3.3 35 5 C29.06084316 7.50710309 23.29722557 9.60061654 17 11 C16.87882812 11.70125 16.75765625 12.4025 16.6328125 13.125 C15.85045543 17.55434465 15.06263793 21.95576291 13.9375 26.3125 C13.11732753 29.53851171 12.49339007 32.71073287 12 36 C8.04 36 4.08 36 0 36 C0 24.12 0 12.24 0 0 Z " fill="#FBFCFC" transform="translate(70,32)"/>
<path d="M0 0 C11.88 0 23.76 0 36 0 C36 9.24 36 18.48 36 28 C29.25231165 26.87538528 29.25231165 26.87538528 25.86328125 24.5234375 C25.12585693 24.02054199 24.38843262 23.51764648 23.62866211 22.99951172 C22.86432861 22.46342285 22.09999512 21.92733398 21.3125 21.375 C19.71684384 20.28023193 18.12049063 19.18647914 16.5234375 18.09375 C15.75225586 17.56265625 14.98107422 17.0315625 14.18652344 16.484375 C10.48726662 13.97304389 6.68469072 11.63812126 2.87109375 9.3046875 C1 8 1 8 0 6 C0 4.02 0 2.04 0 0 Z " fill="#F9FAFB" transform="translate(443,70)"/>
<path d="M0 0 C8.58 0 17.16 0 26 0 C24.87408949 7.88137357 24.87408949 7.88137357 22.671875 12.03125 C22.20136719 12.92457031 21.73085938 13.81789062 21.24609375 14.73828125 C20.75238281 15.64964844 20.25867188 16.56101563 19.75 17.5 C19.27175781 18.41136719 18.79351562 19.32273438 18.30078125 20.26171875 C16.91228901 22.8693749 15.46720129 25.43599888 14 28 C13.61779297 28.73089844 13.23558594 29.46179688 12.84179688 30.21484375 C11.703125 32.15625 11.703125 32.15625 9 35 C6.03 35 3.06 35 0 35 C0 23.45 0 11.9 0 0 Z " fill="#FDFDFD" transform="translate(444,219)"/>
<path d="M0 0 C11.55 0 23.1 0 35 0 C35 7.26 35 14.52 35 22 C27.0651948 21.20651948 22.70251456 20.33463947 16 17 C14.08520582 16.14164399 12.16847871 15.28758896 10.25 14.4375 C8.48783243 13.65173814 6.73715004 12.83962252 5 12 C4.06671875 11.64035156 3.1334375 11.28070313 2.171875 10.91015625 C1.45515625 10.27980469 0.7384375 9.64945313 0 9 C0 6.03 0 3.06 0 0 Z " fill="#FAFBFB" transform="translate(369,32)"/>
<path d="M0 0 C4.96628434 -0.02290956 9.93238663 -0.04283643 14.89868164 -0.05493164 C16.58944316 -0.0599719 18.28020029 -0.06680405 19.97094727 -0.07543945 C22.39600707 -0.08751857 24.82100944 -0.09323123 27.24609375 -0.09765625 C28.38672523 -0.10539818 28.38672523 -0.10539818 29.55039978 -0.11329651 C31.3673257 -0.11349238 33.18413127 -0.06197277 35 0 C36 1 36 1 36.11352539 3.13305664 C36.10828857 4.04949951 36.10305176 4.96594238 36.09765625 5.91015625 C36.09443359 6.89951172 36.09121094 7.88886719 36.08789062 8.90820312 C36.07532227 10.46958008 36.07532227 10.46958008 36.0625 12.0625 C36.05798828 13.10728516 36.05347656 14.15207031 36.04882812 15.22851562 C36.03699913 17.8190666 36.02051689 20.40950559 36 23 C31.07604048 22.25444207 29.43784939 20.60554936 26 17 C21.50708024 13.38612976 18.75939011 12.38292249 13 13 C8.76483247 14.04827205 8.76483247 14.04827205 5.375 16.625 C4.92125 17.07875 4.4675 17.5325 4 18 C2.68 18 1.36 18 0 18 C0 12.06 0 6.12 0 0 Z " fill="#F8F9F9" transform="translate(107,69)"/>
<path d="M0 0 C0.33 0 0.66 0 1 0 C1 5.61 1 11.22 1 17 C1.99 17.33 2.98 17.66 4 18 C3.690625 18.70125 3.38125 19.4025 3.0625 20.125 C-2.84301983 36.10464188 0.66941199 55.41021473 6 71 C6.35295341 72.32827436 6.69929637 73.65893094 7 75 C6.01 74.67 5.02 74.34 4 74 C3.87625 73.195625 3.7525 72.39125 3.625 71.5625 C3.41875 70.716875 3.2125 69.87125 3 69 C2.34 68.67 1.68 68.34 1 68 C1.24398781 69.27932907 1.24398781 69.27932907 1.49290466 70.58450317 C2.00005554 74.00037407 2.12023983 77.19672929 2.11352539 80.64794922 C2.11344986 81.94884491 2.11337433 83.2497406 2.11329651 84.59005737 C2.10819101 85.99493448 2.10297504 87.39981119 2.09765625 88.8046875 C2.09578923 90.25342764 2.09436667 91.70216842 2.09336853 93.15090942 C2.08956573 96.94846363 2.07975474 100.74597908 2.06866455 104.54351807 C2.05840215 108.42484005 2.05386059 112.30616834 2.04882812 116.1875 C2.0381303 123.79168426 2.02108098 131.39583668 2 139 C2.66 137.35 3.32 135.7 4 134 C5.0326802 136.78823655 5.04509293 137.8677274 4.0625 140.75 C3.711875 141.4925 3.36125 142.235 3 143 C2.34 143 1.68 143 1 143 C-7.55336855 108.7865258 -4.68458172 70.69319727 -3.5625 35.6875 C-3.52334473 34.45628418 -3.48418945 33.22506836 -3.44384766 31.95654297 C-3.11322766 22.85752593 -2.68186312 13.76689735 -0.9375 4.8125 C-0.67259766 3.42998047 -0.67259766 3.42998047 -0.40234375 2.01953125 C-0.26957031 1.35308594 -0.13679688 0.68664062 0 0 Z " fill="#D1DADC" transform="translate(106,70)"/>
<path d="M0 0 C4.29 0 8.58 0 13 0 C13.65104393 3.76999859 14.29594794 7.54088428 14.9375 11.3125 C15.11990234 12.36501953 15.30230469 13.41753906 15.49023438 14.50195312 C16.64566251 21.32948304 17.45572647 28.0963199 18 35 C12.06 35 6.12 35 0 35 C0 23.45 0 11.9 0 0 Z " fill="#FEFEFE" transform="translate(70,219)"/>
<path d="M0 0 C4.41494562 0.64069132 6.0469708 2.12194152 8.9609375 5.4296875 C10.80836601 9.12454452 10.29877504 13.38838555 9.9609375 17.4296875 C8.55387956 21.31978887 7.35457166 22.19813799 3.7734375 24.3046875 C-1.47569725 25.85361251 -5.00530177 25.27239881 -10.2890625 23.8046875 C-14.05282783 20.84744331 -15.79016835 16.95416418 -16.5390625 12.3671875 C-15.89546854 8.58607301 -14.37947795 6.43879307 -12.0390625 3.4296875 C-11.61882812 2.88699219 -11.19859375 2.34429687 -10.765625 1.78515625 C-7.58313948 -0.71331089 -3.88437244 -0.08464734 0 0 Z " fill="#144D5A" transform="translate(262.0390625,196.5703125)"/>
<path d="M0 0 C3.62336624 0.42132166 4.3619282 1.51827685 6.6875 4.3125 C8.05600441 6.84453935 9.15678905 9.46444392 10.25 12.125 C10.54068359 12.81142578 10.83136719 13.49785156 11.13085938 14.20507812 C11.71122938 15.57745195 12.28501133 16.95263116 12.85205078 18.33056641 C13.63289058 20.18295024 14.48398994 22.0052765 15.33984375 23.82421875 C16.6875 27.3125 16.6875 27.3125 17.6875 35.3125 C10.7575 35.3125 3.8275 35.3125 -3.3125 35.3125 C-3.3354102 30.48862933 -3.35533686 25.66494611 -3.36743164 20.84106445 C-3.37247174 19.19880536 -3.37930378 17.55655077 -3.38793945 15.91430664 C-3.40001926 13.55874521 -3.40573139 11.20324291 -3.41015625 8.84765625 C-3.41531754 8.10910904 -3.42047882 7.37056183 -3.42579651 6.6096344 C-3.4259925 4.84351912 -3.37444719 3.07752854 -3.3125 1.3125 C-2.3125 0.3125 -2.3125 0.3125 0 0 Z " fill="#F6F8F9" transform="translate(110.3125,330.6875)"/>
<path d="M0 0 C0 0.66 0 1.32 0 2 C0.804375 2.268125 1.60875 2.53625 2.4375 2.8125 C3.7059375 3.4003125 3.7059375 3.4003125 5 4 C6 7 6 7 6 16 C-5.55 16 -17.1 16 -29 16 C-29 14.35 -29 12.7 -29 11 C-27.68 10.67 -26.36 10.34 -25 10 C-25 9.01 -25 8.02 -25 7 C-22.58618654 5.68200981 -20.16922404 4.37049082 -17.75 3.0625 C-17.06808594 2.68931641 -16.38617188 2.31613281 -15.68359375 1.93164062 C-15.01972656 1.57392578 -14.35585938 1.21621094 -13.671875 0.84765625 C-13.0644043 0.51773682 -12.45693359 0.18781738 -11.83105469 -0.15209961 C-7.21301418 -2.29056023 -4.76568756 -1.84128838 0 0 Z " fill="#F7F8F9" transform="translate(323,425)"/>
<path d="M0 0 C11.32 0 11.32 0 16 3 C16.33 3.33 16.66 3.66 17 4 C16.01686141 15.01115218 13.04979088 24.14088447 8 34 C5.36 34 2.72 34 0 34 C0 22.78 0 11.56 0 0 Z " fill="#F8FAFA" transform="translate(481,145)"/>
<path d="M0 0 C1.94140508 0.00503291 3.88281144 0.0095926 5.82421875 0.01367188 C10.50784521 0.0245175 15.1914077 0.04167976 19.875 0.0625 C19.875 0.3925 19.875 0.7225 19.875 1.0625 C8.325 1.0625 -3.225 1.0625 -15.125 1.0625 C-15.125 7.0025 -15.125 12.9425 -15.125 19.0625 C-25.58444725 17.61981762 -33.53209778 15.31188343 -42.125 9.0625 C-43.07375 8.381875 -44.0225 7.70125 -45 7 C-45.70125 6.360625 -46.4025 5.72125 -47.125 5.0625 C-47.125 4.0725 -47.125 3.0825 -47.125 2.0625 C-42.11299305 1.28460581 -37.13653458 0.78038002 -32.0703125 0.50390625 C-30.9134343 0.44052818 -30.9134343 0.44052818 -29.73318481 0.37586975 C-19.82570623 -0.11438669 -9.91659287 -0.04545748 0 0 Z " fill="#F3F6F7" transform="translate(234.125,44.9375)"/>
<path d="M0 0 C2.18467839 3.27701758 3.19696044 6.46296564 4.3125 10.1875 C4.5290625 10.89221436 4.745625 11.59692871 4.96875 12.32299805 C6.08341056 15.95249069 7.1757163 19.58841176 8.26171875 23.2265625 C10.38917965 30.28073093 12.69079713 37.04954487 15.984375 43.66796875 C17.046604 46.10700994 17.5720451 48.38110208 18 51 C15.69 50.67 13.38 50.34 11 50 C10.67 61.22 10.34 72.44 10 84 C16.93 84 23.86 84 31 84 C30.67 82.02 30.34 80.04 30 78 C32.23960447 80.87949147 34.29864224 83.76742026 36 87 C35.67 87.66 35.34 88.32 35 89 C34.61030029 88.5155542 34.22060059 88.0311084 33.8190918 87.53198242 C31.43391721 85.52326272 29.98600407 85.57763018 26.89453125 85.48828125 C25.91162109 85.45283203 24.92871094 85.41738281 23.91601562 85.38085938 C22.89185547 85.35830078 21.86769531 85.33574219 20.8125 85.3125 C19.77673828 85.27833984 18.74097656 85.24417969 17.67382812 85.20898438 C15.1159934 85.12647358 12.55850277 85.05733428 10 85 C10 85.66 10 86.32 10 87 C9.34 87 8.68 87 8 87 C8 86.34 8 85.68 8 85 C6.37203491 85.00785522 6.37203491 85.00785522 4.71118164 85.01586914 C0.69882018 85.03391836 -3.31353767 85.04543171 -7.32592773 85.05493164 C-9.06519168 85.05997204 -10.80445136 85.0668043 -12.54370117 85.07543945 C-15.03825937 85.08751792 -17.53276173 85.09323108 -20.02734375 85.09765625 C-20.80963852 85.10281754 -21.59193329 85.10797882 -22.39793396 85.11329651 C-24.26567114 85.11349226 -26.13329204 85.06199694 -28 85 C-29 84 -29 84 -29.11352539 80.94897461 C-29.11336634 79.60008729 -29.10767612 78.25119386 -29.09765625 76.90234375 C-29.0962413 76.19348526 -29.09482635 75.48462677 -29.09336853 74.75428772 C-29.08775443 72.48198288 -29.07519963 70.20977525 -29.0625 67.9375 C-29.05748681 66.40039204 -29.05292359 64.86328255 -29.04882812 63.32617188 C-29.03778042 59.55074358 -29.02050641 55.77538829 -29 52 C-28.01 51.505 -28.01 51.505 -27 51 C-27 61.89 -27 72.78 -27 84 C-15.45 84 -3.9 84 8 84 C7.9532147 76.63365526 7.90253657 69.26898758 7.81620789 61.90326691 C7.77705491 58.47219474 7.74456825 55.04137456 7.72900391 51.61010742 C7.71076548 47.66031871 7.66072714 43.71122067 7.609375 39.76171875 C7.60814636 38.54981369 7.60691772 37.33790863 7.60565186 36.08927917 C7.48792569 29.16150328 6.56802581 23.61246613 3.85357666 17.21540833 C3 15 3 15 3 12 C-6.9 12 -16.8 12 -27 12 C-27 11.34 -27 10.68 -27 10 C-17.43 10 -7.86 10 2 10 C1.34 8.02 0.68 6.04 0 4 C0 2.68 0 1.36 0 0 Z " fill="#E9EAEA" transform="translate(97,282)"/>
<path d="M0 0 C11.55 0 23.1 0 35 0 C35 0.33 35 0.66 35 1 C23.78 1 12.56 1 1 1 C1 12.22 1 23.44 1 35 C12.55 35 24.1 35 36 35 C36 23.78 36 12.56 36 1 C36.66 1 37.32 1 38 1 C38 12.22 38 23.44 38 35 C40.64 35 43.28 35 46 35 C43.24892128 43.90054879 39.59701637 52.41643491 36 61 C35.11900265 58.02181366 34.93294836 55.54707135 35.12109375 52.453125 C35.16419678 51.69161133 35.2072998 50.93009766 35.25170898 50.14550781 C35.34367554 48.71223145 35.34367554 48.71223145 35.4375 47.25 C35.7159375 42.67125 35.7159375 42.67125 36 38 C24.45 38 12.9 38 1 38 C1 49.55 1 61.1 1 73 C0.67 73 0.34 73 0 73 C0 48.91 0 24.82 0 0 Z " fill="#EFEFEF" transform="translate(443,144)"/>
<path d="M0 0 C5.61 0 11.22 0 17 0 C17 11.88 17 23.76 17 36 C14.36 36 11.72 36 9 36 C8.85304688 34.88625 8.70609375 33.7725 8.5546875 32.625 C7.16031295 22.88692001 4.93828214 14.16609385 1.20703125 5.0625 C0 2 0 2 0 0 Z " fill="#FDFDFD" transform="translate(387,219)"/>
<path d="M0 0 C2.05078125 0.03255208 4.1015625 0.06510417 6.15234375 0.09765625 C6.17699473 5.06387974 6.19518024 10.03006791 6.20727539 14.99633789 C6.21231565 16.68709941 6.2191478 18.37785654 6.2277832 20.06860352 C6.23986232 22.49366332 6.24557498 24.91866569 6.25 27.34375 C6.25516129 28.10417099 6.26032257 28.86459198 6.26564026 29.64805603 C6.26583613 31.46498195 6.21431652 33.28178752 6.15234375 35.09765625 C5.15234375 36.09765625 5.15234375 36.09765625 1.7734375 36.1953125 C0.37887298 36.18863994 -1.01567368 36.17668157 -2.41015625 36.16015625 C-3.4765332 36.15338867 -3.4765332 36.15338867 -4.56445312 36.14648438 C-6.32555638 36.13466489 -8.08661661 36.11672888 -9.84765625 36.09765625 C-9.39237851 34.22191196 -8.93328445 32.34709379 -8.47265625 30.47265625 C-8.21742188 29.42851562 -7.9621875 28.384375 -7.69921875 27.30859375 C-6.84765625 24.09765625 -6.84765625 24.09765625 -5.8125 21.25 C-4.59734078 17.27982391 -4.18908079 13.40518654 -3.78515625 9.28515625 C-2.86647646 0.1515051 -2.86647646 0.1515051 0 0 Z " fill="#FCFDFD" transform="translate(397.84765625,255.90234375)"/>
<path d="M0 0 C3.63 0 7.26 0 11 0 C11.20030994 8.89153561 11.12645403 17.65318932 10.125 26.5 C10.04652832 27.23532959 9.96805664 27.97065918 9.88720703 28.72827148 C9.66807238 30.49670073 9.34375524 32.25151657 9 34 C7 35 7 35 0 35 C0 23.45 0 11.9 0 0 Z " fill="#F7F9F9" transform="translate(70,70)"/>
<path d="M0 0 C2.97 0 5.94 0 9 0 C10.14382258 11.66032724 11.22911427 23.30823306 12 35 C8.04 35 4.08 35 0 35 C0 23.45 0 11.9 0 0 Z " fill="#FCFDFD" transform="translate(70,182)"/>
<path d="M0 0 C8.58 0 17.16 0 26 0 C26 7.59 26 15.18 26 23 C21.32523179 21.13009272 18.73907388 19.19928833 15.25 15.8125 C10.89352233 11.67560832 6.45743714 7.92016819 1.546875 4.4375 C1.03640625 3.963125 0.5259375 3.48875 0 3 C0 2.01 0 1.02 0 0 Z " fill="#F7F9F9" transform="translate(490,107)"/>
<path d="M0 0 C5.63922862 0.50940734 9.71517474 2.73231149 14.5625 5.4375 C21.11328527 9.0711722 21.11328527 9.0711722 28 12 C28 12.66 28 13.32 28 14 C28.66 14 29.32 14 30 14 C30 14.99 30 15.98 30 17 C25.8882744 17.02465746 21.77657722 17.04283959 17.66479492 17.05493164 C16.26504772 17.0599708 14.8653058 17.06680216 13.46557617 17.07543945 C11.45754223 17.0875232 9.44947043 17.09269807 7.44140625 17.09765625 C6.23170166 17.10289307 5.02199707 17.10812988 3.77563477 17.11352539 C1 17 1 17 0 16 C-0.07319621 13.30345146 -0.09242537 10.63308542 -0.0625 7.9375 C-0.05798828 7.17888672 -0.05347656 6.42027344 -0.04882812 5.63867188 C-0.0370068 3.75908129 -0.01907078 1.87953101 0 0 Z " fill="#F8FAFA" transform="translate(406,88)"/>
<path d="M0 0 C6.57377572 -0.35483448 12.59569465 0.9813981 19 2.375 C20.05445313 2.59671875 21.10890625 2.8184375 22.1953125 3.046875 C25.13637303 3.67341672 28.0691501 4.32746708 31 5 C31.75023437 5.16661133 32.50046875 5.33322266 33.2734375 5.50488281 C35.1875 5.9765625 35.1875 5.9765625 38 7 C39.16461426 10.49384279 39.13568319 13.33655389 39 17 C37.37818691 18.62181309 35.61105363 18.24832323 33.375 18.3125 C28.33796856 18.24115395 25.04477188 16.94715216 21 14 C19.41781992 12.87337867 17.83438505 11.74851833 16.25 10.625 C15.41210938 10.02816406 14.57421875 9.43132813 13.7109375 8.81640625 C9.3234947 5.87669314 4.68356897 3.43082572 0 1 C0 0.67 0 0.34 0 0 Z " fill="#F4F6F7" transform="translate(291,50)"/>
<path d="M0 0 C0.02886338 4.47915328 0.04675187 8.95828291 0.0625 13.4375 C0.07087891 14.71689453 0.07925781 15.99628906 0.08789062 17.31445312 C0.09272461 19.13686523 0.09272461 19.13686523 0.09765625 20.99609375 C0.10551147 22.68496704 0.10551147 22.68496704 0.11352539 24.40795898 C0 27 0 27 -1 28 C-2.34267413 28.08631874 -3.68974322 28.10706473 -5.03515625 28.09765625 C-5.84404297 28.09443359 -6.65292969 28.09121094 -7.48632812 28.08789062 C-8.33646484 28.07951172 -9.18660156 28.07113281 -10.0625 28.0625 C-10.91650391 28.05798828 -11.77050781 28.05347656 -12.65039062 28.04882812 C-14.76695663 28.03700373 -16.88348685 28.01906769 -19 28 C-17.39023395 21.73979868 -13.9433459 16.615328 -10.5625 11.1875 C-9.97662109 10.22134766 -9.39074219 9.25519531 -8.78710938 8.25976562 C-8.21927734 7.34259766 -7.65144531 6.42542969 -7.06640625 5.48046875 C-6.55021729 4.64410889 -6.03402832 3.80774902 -5.50219727 2.94604492 C-3.91323907 0.8876042 -2.76998611 0 0 0 Z " fill="#F4F6F7" transform="translate(479,264)"/>
<path d="M0 0 C0 3.96 0 7.92 0 12 C-11.55 12 -23.1 12 -35 12 C-35 10.35 -35 8.7 -35 7 C-30.85938318 5.81426358 -26.71180317 4.65493769 -22.5625 3.5 C-20.81549805 2.99919922 -20.81549805 2.99919922 -19.03320312 2.48828125 C-12.46905626 0.67620691 -6.80967742 -0.40785234 0 0 Z " fill="#F5F7F7" transform="translate(143,56)"/>
<path d="M0 0 C0.66 0 1.32 0 2 0 C2 9.9 2 19.8 2 30 C13.55 30 25.1 30 37 30 C37 30.99 37 31.98 37 33 C25.12 33 13.24 33 1 33 C0.67 44.55 0.34 56.1 0 68 C-0.33 68 -0.66 68 -1 68 C-1 56.45 -1 44.9 -1 33 C-6.40375 33.144375 -11.8075 33.28875 -17.375 33.4375 C-19.93193604 33.50215454 -19.93193604 33.50215454 -22.54052734 33.56811523 C-23.88900799 33.60623511 -25.23747884 33.64470398 -26.5859375 33.68359375 C-27.28823486 33.70006958 -27.99053223 33.71654541 -28.71411133 33.73352051 C-32.48302333 33.79484002 -32.48302333 33.79484002 -36 35 C-36 33.35 -36 31.7 -36 30 C-24.12 30 -12.24 30 0 30 C0 20.1 0 10.2 0 0 Z " fill="#F0F0F0" transform="translate(554,0)"/>
<path d="M0 0 C0.33 0 0.66 0 1 0 C1 11.55 1 23.1 1 35 C-3.95 35.33 -8.9 35.66 -14 36 C-13.29318527 31.05229687 -12.83189681 28.01359228 -11.0390625 23.64453125 C-10.64976562 22.69255859 -10.26046875 21.74058594 -9.859375 20.75976562 C-9.24835938 19.30086914 -9.24835938 19.30086914 -8.625 17.8125 C-8.22539062 16.82830078 -7.82578125 15.84410156 -7.4140625 14.83007812 C-5.60257001 10.44733889 -3.86775432 6.78317298 -1 3 C-0.67 2.01 -0.34 1.02 0 0 Z " fill="#F3F6F6" transform="translate(515,182)"/>
<path d="M0 0 C0 3.96 0 7.92 0 12 C-11.55 12 -23.1 12 -35 12 C-35 9.69 -35 7.38 -35 5 C-34.44127197 5.01047363 -33.88254395 5.02094727 -33.30688477 5.03173828 C-30.7254707 5.07383379 -28.14412924 5.09949343 -25.5625 5.125 C-24.68400391 5.14175781 -23.80550781 5.15851563 -22.90039062 5.17578125 C-14.8555561 5.23515272 -6.74282485 0 0 0 Z " fill="#FDFDFD" transform="translate(367,429)"/>
<path d="M0 0 C4.93819171 2.96291503 7.98937231 5.84016429 11.8125 10 C12.40998047 10.6290625 13.00746094 11.258125 13.62304688 11.90625 C14.18701172 12.5146875 14.75097656 13.123125 15.33203125 13.75 C15.84483643 14.30171875 16.3576416 14.8534375 16.88598633 15.421875 C18 17 18 17 18 20 C19.65 20 21.3 20 23 20 C23 20.33 23 20.66 23 21 C15.41 21 7.82 21 0 21 C0 14.07 0 7.14 0 0 Z " fill="#F7F8F9" transform="translate(182,448)"/>
<path d="M0 0 C5.94 0 11.88 0 18 0 C17.1122274 3.55109039 16.72972403 4.68333 14.6015625 7.34765625 C14.12203125 7.95287109 13.6425 8.55808594 13.1484375 9.18164062 C12.64570313 9.80232422 12.14296875 10.42300781 11.625 11.0625 C11.13 11.68705078 10.635 12.31160156 10.125 12.95507812 C7.86509902 15.78599686 5.59745681 18.46959581 3 21 C2.01 20.67 1.02 20.34 0 20 C0 13.4 0 6.8 0 0 Z " fill="#F9FAFB" transform="translate(406,294)"/>
<path d="M0 0 C1.32 0 2.64 0 4 0 C4.33 21.12 4.66 42.24 5 64 C5.66 62.35 6.32 60.7 7 59 C8.0326802 61.78823655 8.04509293 62.8677274 7.0625 65.75 C6.711875 66.4925 6.36125 67.235 6 68 C5.34 68 4.68 68 4 68 C0.05221804 52.20887217 -0.2682915 36.67571758 -0.125 20.5 C-0.11494001 18.50130662 -0.10581955 16.50260828 -0.09765625 14.50390625 C-0.07590525 9.66914545 -0.0415456 4.83462955 0 0 Z " fill="#F4F4F4" transform="translate(103,145)"/>
<path d="M0 0 C1.98 0 3.96 0 6 0 C7.23195644 11.65958771 7.10247722 23.29079561 7 35 C4.69 35 2.38 35 0 35 C0 23.45 0 11.9 0 0 Z " fill="#FDFEFE" transform="translate(70,144)"/>
<path d="M0 0 C2.31 0 4.62 0 7 0 C7.12330415 11.71389465 6.8283506 23.31433979 6 35 C4.02 35 2.04 35 0 35 C0 23.45 0 11.9 0 0 Z " fill="#FDFEFE" transform="translate(70,107)"/>
<path d="M0 0 C3.04221065 -0.08132642 6.0822238 -0.14065374 9.125 -0.1875 C9.9809375 -0.21263672 10.836875 -0.23777344 11.71875 -0.26367188 C17.10987661 -0.32587718 20.16555103 0.4776788 25 3 C27.7188776 3.20597558 30.17641622 3.28948136 32.875 3.1875 C33.90753906 3.16719727 33.90753906 3.16719727 34.9609375 3.14648438 C36.64097001 3.1114837 38.3205935 3.05768954 40 3 C39.67 3.66 39.34 4.32 39 5 C35.04 5 31.08 5 27 5 C27.144375 6.44375 27.28875 7.8875 27.4375 9.375 C27.55931641 10.59316406 27.55931641 10.59316406 27.68359375 11.8359375 C27.89090114 14.04272805 27.89090114 14.04272805 29 16 C24.97078422 14.46542063 21.16009217 12.63068485 17.3125 10.6875 C16.07683018 10.06508975 14.84115304 9.44269403 13.60546875 8.8203125 C12.99880371 8.51383789 12.39213867 8.20736328 11.76708984 7.89160156 C9.22328617 6.60810184 6.67418364 5.33527357 4.125 4.0625 C2.75 3.375 1.375 2.6875 0 2 C0 1.34 0 0.68 0 0 Z " fill="#E9EEEF" transform="translate(342,292)"/>
<path d="M0 0 C2.64 0 5.28 0 8 0 C8.66 8.91 9.32 17.82 10 27 C2 26 2 26 0 25 C0 16.75 0 8.5 0 0 Z " fill="#FBFCFC" transform="translate(145,70)"/>
<path d="M0 0 C2.18467839 3.27701758 3.19696044 6.46296564 4.3125 10.1875 C4.5290625 10.89221436 4.745625 11.59692871 4.96875 12.32299805 C6.08341056 15.95249069 7.1757163 19.58841176 8.26171875 23.2265625 C10.38917965 30.28073093 12.69079713 37.04954487 15.984375 43.66796875 C17.046604 46.10700994 17.5720451 48.38110208 18 51 C16.906875 50.835 15.81375 50.67 14.6875 50.5 C11.12474127 49.93281816 11.12474127 49.93281816 8 50 C7.9906543 49.33057373 7.98130859 48.66114746 7.97167969 47.97143555 C7.91729608 44.87610201 7.83378747 41.78217188 7.75 38.6875 C7.73582031 37.63498047 7.72164062 36.58246094 7.70703125 35.49804688 C7.50156001 28.82023173 6.43026808 23.42707126 3.84863281 17.25317383 C3 15 3 15 3 12 C-6.9 12 -16.8 12 -27 12 C-27 11.34 -27 10.68 -27 10 C-17.43 10 -7.86 10 2 10 C1.34 8.02 0.68 6.04 0 4 C0 2.68 0 1.36 0 0 Z " fill="#CCD5D7" transform="translate(97,282)"/>
<path d="M0 0 C0.33 0 0.66 0 1 0 C0.99555878 0.8155838 0.99111755 1.6311676 0.98654175 2.47146606 C0.94599674 10.26416234 0.91578266 18.05680549 0.89637566 25.84958076 C0.8860621 29.85321784 0.87213915 33.85676577 0.84912109 37.86035156 C0.75756325 54.20195208 0.69759922 70.40463227 2.56689453 86.66748047 C3.03486725 90.80241217 3.07538668 94.8406734 3 99 C2.67 99 2.34 99 2 99 C1.07907719 94.34462644 0.87794003 89.85314567 0.9375 85.125 C0.94201172 84.43664062 0.94652344 83.74828125 0.95117188 83.0390625 C0.96283664 81.35933665 0.98076729 79.67965625 1 78 C-0.45880109 78.14107747 -1.91703551 78.28802415 -3.375 78.4375 C-4.18710938 78.51871094 -4.99921875 78.59992188 -5.8359375 78.68359375 C-8.04272805 78.89090114 -8.04272805 78.89090114 -10 80 C-10 67.46 -10 54.92 -10 42 C-9.01 41.505 -9.01 41.505 -8 41 C-8 52.22 -8 63.44 -8 75 C-5.69 75 -3.38 75 -1 75 C-1.00222061 74.17838379 -1.00444122 73.35676758 -1.00672913 72.51025391 C-1.02682037 64.74262201 -1.04201904 56.97500284 -1.05181217 49.20735168 C-1.05701626 45.21455775 -1.06406868 41.22178541 -1.07543945 37.22900391 C-1.08635663 33.37107126 -1.09229545 29.51315931 -1.09487724 25.6552124 C-1.09671564 24.18812739 -1.10030541 22.72104342 -1.10573006 21.25396729 C-1.13109858 14.10458473 -1.15126372 7.07489399 0 0 Z " fill="#C3CFD2" transform="translate(78,104)"/>
<path d="M0 0 C1.65497356 3.30994713 1.10084335 6.99123 1.0625 10.625 C1.05798828 11.42679687 1.05347656 12.22859375 1.04882812 13.0546875 C1.03703168 15.03649006 1.01909605 17.01825433 1 19 C-0.2684375 18.9690625 -0.2684375 18.9690625 -1.5625 18.9375 C-8.4551578 18.96685786 -8.4551578 18.96685786 -14.5390625 21.8125 C-16.63110128 23.95089845 -16.63110128 23.95089845 -18.4140625 26.1875 C-20 28 -20 28 -23 29 C-21.49199261 25.52364612 -19.45398105 23.13370098 -16.875 20.375 C-12.33756365 15.42839065 -8.1425077 10.27792736 -4 5 C-2.66808946 3.33219609 -1.3351297 1.66522799 0 0 Z " fill="#EEF1F2" transform="translate(443,312)"/>
<path d="M0 0 C5.99237179 -0.36147015 10.72705697 0.8764547 16.375 2.8125 C17.19355469 3.07353516 18.01210938 3.33457031 18.85546875 3.60351562 C20.02142578 3.99506836 20.02142578 3.99506836 21.2109375 4.39453125 C21.91524902 4.63018799 22.61956055 4.86584473 23.34521484 5.10864258 C25 6 25 6 26 9 C21.85418113 9.02886751 17.70838784 9.04675327 13.5625 9.0625 C11.78649414 9.07506836 11.78649414 9.07506836 9.97460938 9.08789062 C8.84990234 9.09111328 7.72519531 9.09433594 6.56640625 9.09765625 C5.00321655 9.10551147 5.00321655 9.10551147 3.40844727 9.11352539 C1 9 1 9 0 8 C-0.14115161 5.32941149 -0.04247107 2.67567762 0 0 Z " fill="#F4F6F6" transform="translate(331,59)"/>
<path d="M0 0 C1.02451301 3.23392606 0.95041862 5.64525388 0.44140625 8.984375 C0.30283203 9.91894531 0.16425781 10.85351562 0.02148438 11.81640625 C-0.12998047 12.78449219 -0.28144531 13.75257812 -0.4375 14.75 C-0.58509766 15.73355469 -0.73269531 16.71710938 -0.88476562 17.73046875 C-1.24958978 20.15478412 -1.62156746 22.57777798 -2 25 C-2.33 25 -2.66 25 -3 25 C-3 22.03 -3 19.06 -3 16 C-4.79206547 16.14084796 -6.58364917 16.28783701 -8.375 16.4375 C-9.87160156 16.55931641 -9.87160156 16.55931641 -11.3984375 16.68359375 C-13.97927613 16.84965626 -13.97927613 16.84965626 -16 18 C-16.495 17.01 -16.495 17.01 -17 16 C-39.11 16 -61.22 16 -84 16 C-84 15.34 -84 14.68 -84 14 C-56.94 14 -29.88 14 -2 14 C-1.67 10.04 -1.34 6.08 -1 2 C-0.67 1.34 -0.34 0.68 0 0 Z " fill="#D9DEDF" transform="translate(84,54)"/>
<path d="M0 0 C0.33 0.66 0.66 1.32 1 2 C13.87 2 26.74 2 40 2 C39.34 3.32 38.68 4.64 38 6 C37.505 5.01 37.505 5.01 37 4 C31.06 4 25.12 4 19 4 C19.14040213 7.29198191 19.28706875 10.58347446 19.4375 13.875 C19.47681641 14.81214844 19.51613281 15.74929688 19.55664062 16.71484375 C19.59853516 17.61074219 19.64042969 18.50664062 19.68359375 19.4296875 C19.72025146 20.25710449 19.75690918 21.08452148 19.79467773 21.93701172 C19.88238327 24.06179429 19.88238327 24.06179429 21 26 C19.68 27.32 18.36 28.64 17 30 C17 21.42 17 12.84 17 4 C10.4 4 3.8 4 -3 4 C-2.01 2.68 -1.02 1.36 0 0 Z " fill="#E3E5E6" transform="translate(387,290)"/>
<path d="M0 0 C-0.31045732 1.9169986 -0.62344671 3.83358723 -0.9375 5.75 C-1.11152344 6.81734375 -1.28554687 7.8846875 -1.46484375 8.984375 C-1.88704171 11.36347593 -2.37202884 13.66915211 -3 16 C-5.33294775 16.04241723 -7.66702567 16.04092937 -10 16 C-11 15 -11 15 -11.09765625 12.27734375 C-11.08605469 11.17519531 -11.07445312 10.07304688 -11.0625 8.9375 C-11.05347656 7.83277344 -11.04445312 6.72804688 -11.03515625 5.58984375 C-11.02355469 4.73519531 -11.01195312 3.88054688 -11 3 C-10.34 3 -9.68 3 -9 3 C-9 2.34 -9 1.68 -9 1 C-5.94152152 0.45627049 -3.11227195 0 0 0 Z " fill="#FCFCFC" transform="translate(156,52)"/>
<path d="M0 0 C3.63 0 7.26 0 11 0 C9.47005208 1.7578125 7.94010417 3.515625 6.41015625 5.2734375 C3.78513204 8.48745606 3.86492151 10.72567289 3.875 14.8125 C3.87242187 15.85019531 3.86984375 16.88789062 3.8671875 17.95703125 C3.98923825 20.75342942 4.36636645 23.27939879 5 26 C3.72125 25.71125 2.4425 25.4225 1.125 25.125 C-3.90171927 24.00617536 -8.94685368 22.9916404 -14 22 C-14 21.67 -14 21.34 -14 21 C-9.00067249 20.9138047 -5.02377899 21.1627035 0 22 C0 14.74 0 7.48 0 0 Z " fill="#E1E6E7" transform="translate(254,46)"/>
<path d="M0 0 C10.89 0 21.78 0 33 0 C33.25 13.6875 33.25 13.6875 33.29785156 17.97924805 C33.34377441 19.66594604 33.34377441 19.66594604 33.390625 21.38671875 C33.41157227 22.53358154 33.43251953 23.68044434 33.45410156 24.86206055 C34.10014876 28.57567621 35.44807183 30.28579765 38 33 C34.78956118 31.61811547 32.95063635 30.07578097 30.75 27.375 C29.96882812 26.42753906 29.96882812 26.42753906 29.171875 25.4609375 C28.78515625 24.97882813 28.3984375 24.49671875 28 24 C28.66 24 29.32 24 30 24 C30.33 16.74 30.66 9.48 31 2 C22.42 2 13.84 2 5 2 C5 2.66 5 3.32 5 4 C1.125 2.25 1.125 2.25 0 0 Z " fill="#D4DADC" transform="translate(485,105)"/>
<path d="M0 0 C0.66 0 1.32 0 2 0 C2 5.94 2 11.88 2 18 C13.55 18 25.1 18 37 18 C37 12.06 37 6.12 37 0 C37.99 0 38.98 0 40 0 C40 6.27 40 12.54 40 19 C26.8 19 13.6 19 0 19 C0 12.73 0 6.46 0 0 Z " fill="#E9ECEC" transform="translate(217,0)"/>
<path d="M0 0 C0 3.96 0 7.92 0 12 C11.55 12 23.1 12 35 12 C35 12.33 35 12.66 35 13 C29.93228645 13.16934619 24.86439163 13.32969528 19.79614258 13.48217773 C18.07666614 13.53512184 16.35725991 13.59040523 14.63793945 13.64819336 C5.35719151 13.95854114 -3.76622788 14.24844036 -13 13 C-2.09883229 0 -2.09883229 0 0 0 Z " fill="#E6E9EA" transform="translate(406,355)"/>
<path d="M0 0 C7.92 0 15.84 0 24 0 C24 2.64 24 5.28 24 8 C15.62594487 6.87158122 7.93515785 4.89830234 0 2 C0 1.34 0 0.68 0 0 Z " fill="#F7F8F8" transform="translate(343,32)"/>
<path d="M0 0 C0.99 0.495 0.99 0.495 2 1 C2 3.64 2 6.28 2 9 C2.66 9 3.32 9 4 9 C4.33 18.9 4.66 28.8 5 39 C5.66 37.35 6.32 35.7 7 34 C8.0326802 36.78823655 8.04509293 37.8677274 7.0625 40.75 C6.711875 41.4925 6.36125 42.235 6 43 C5.34 43 4.68 43 4 43 C0.42302148 28.69208592 -0.3055399 14.66591502 0 0 Z " fill="#BECBCF" transform="translate(103,170)"/>
<path d="M0 0 C0.8604464 2.95667697 1.0994281 5.51151072 1.02172852 8.58496094 C1.00163223 9.48559265 0.98153595 10.38622437 0.96083069 11.31414795 C0.93379562 12.27782288 0.90676056 13.2414978 0.87890625 14.234375 C0.85529526 15.22753723 0.83168427 16.22069946 0.80735779 17.24395752 C0.73084932 20.41278838 0.6467696 23.58136696 0.5625 26.75 C0.5092665 28.89972728 0.45652619 31.04946684 0.40429688 33.19921875 C0.27525153 38.46630158 0.13999115 43.73319735 0 49 C-0.66 49 -1.32 49 -2 49 C-2.33 38.44 -2.66 27.88 -3 17 C-3.99 17.99 -4.98 18.98 -6 20 C-5.81824219 19.47792969 -5.63648438 18.95585937 -5.44921875 18.41796875 C-3.37440957 12.34250187 -1.63584831 6.20694217 0 0 Z " fill="#DCE0E1" transform="translate(518,168)"/>
<path d="M0 0 C1.53434635 2.79553406 2.35115594 5.18628589 2.81640625 8.3359375 C2.94080078 9.15320313 3.06519531 9.97046875 3.19335938 10.8125 C3.31517578 11.658125 3.43699219 12.50375 3.5625 13.375 C3.81367474 15.04949827 4.06497403 16.72397787 4.31640625 18.3984375 C4.43258301 19.18702148 4.54875977 19.97560547 4.66845703 20.78808594 C5.0795999 23.5310568 5.53247958 26.26611867 6 29 C5.34 28.34 4.68 27.68 4 27 C1.77341846 26.62995706 1.77341846 26.62995706 -0.7890625 26.5859375 C-2.20058594 26.52792969 -2.20058594 26.52792969 -3.640625 26.46875 C-4.62546875 26.4378125 -5.6103125 26.406875 -6.625 26.375 C-7.61757812 26.33632813 -8.61015625 26.29765625 -9.6328125 26.2578125 C-12.08835385 26.1633686 -14.5438841 26.07780125 -17 26 C-17 25.01 -17 24.02 -17 23 C-10.4 23 -3.8 23 3 23 C2.505 20.69 2.01 18.38 1.5 16 C0.37900052 10.58680637 -0.33865504 5.53136572 0 0 Z " fill="#D3DBDD" transform="translate(85,231)"/>
<path d="M0 0 C2.57933891 2.57933891 3.97362706 4.43841328 5.6875 7.5625 C6.12449219 8.34753906 6.56148437 9.13257813 7.01171875 9.94140625 C8 12 8 12 8 14 C8.66 14 9.32 14 10 14 C10.33 15.32 10.66 16.64 11 18 C7.37 18 3.74 18 0 18 C0 12.06 0 6.12 0 0 Z " fill="#C9D1D3" transform="translate(142,388)"/>
<path d="M0 0 C0.33 0 0.66 0 1 0 C1 5.61 1 11.22 1 17 C1.99 17.33 2.98 17.66 4 18 C2.68 21.3 1.36 24.6 0 28 C-0.66 28 -1.32 28 -2 28 C-2 30.97 -2 33.94 -2 37 C-2.33 37 -2.66 37 -3 37 C-3.15344069 24.3667167 -2.47580429 12.42709531 0 0 Z " fill="#A9BCC0" transform="translate(106,70)"/>
<path d="M0 0 C13.86 0 27.72 0 42 0 C42 0.33 42 0.66 42 1 C30.45 1 18.9 1 7 1 C7 6.94 7 12.88 7 19 C4.36 18.67 1.72 18.34 -1 18 C-1 17.67 -1 17.34 -1 17 C0.98 17 2.96 17 5 17 C5 11.72 5 6.44 5 1 C3.35 1 1.7 1 0 1 C0 0.67 0 0.34 0 0 Z " fill="#CAD4D7" transform="translate(212,45)"/>
<path d="M0 0 C4.0548508 6.0822762 3.18337877 13.11959637 3.1875 20.1875 C3.19974609 21.27353516 3.21199219 22.35957031 3.22460938 23.47851562 C3.23680831 30.24892668 2.59777816 36.42647253 1 43 C0.7421875 44.17691406 0.484375 45.35382813 0.21875 46.56640625 C-0.0184375 47.55511719 -0.255625 48.54382813 -0.5 49.5625 C-0.7371875 50.57441406 -0.974375 51.58632813 -1.21875 52.62890625 C-1.4765625 53.41136719 -1.734375 54.19382812 -2 55 C-2.99 55.495 -2.99 55.495 -4 56 C-3.35929989 52.20744718 -2.71157345 48.416128 -2.0625 44.625 C-1.88009766 43.54476562 -1.69769531 42.46453125 -1.50976562 41.3515625 C-1.33251953 40.3203125 -1.15527344 39.2890625 -0.97265625 38.2265625 C-0.81031494 37.27346191 -0.64797363 36.32036133 -0.48071289 35.33837891 C0 33 0 33 1 31 C1.10094797 28.59209399 1.14081008 26.22014872 1.125 23.8125 C1.12209961 22.75675781 1.12209961 22.75675781 1.11914062 21.6796875 C1.06098264 14.42932579 0.58137691 7.22568443 0 0 Z " fill="#72949C" transform="translate(392,234)"/>
<path d="M0 0 C-0.66 0 -1.32 0 -2 0 C-2.66 1.98 -3.32 3.96 -4 6 C-6.22909871 6.02714735 -8.45829367 6.04646254 -10.6875 6.0625 C-11.92886719 6.07410156 -13.17023438 6.08570313 -14.44921875 6.09765625 C-17.46235454 6.01478673 -20.08275339 5.70839449 -23 5 C-22.67 4.34 -22.34 3.68 -22 3 C-18.7 3 -15.4 3 -12 3 C-12 2.34 -12 1.68 -12 1 C-3.96428571 -1.27678571 -3.96428571 -1.27678571 0 0 Z " fill="#EAEEEF" transform="translate(223,463)"/>
<path d="M0 0 C0.99 0 1.98 0 3 0 C3 8.58 3 17.16 3 26 C2.01 26 1.02 26 0 26 C0 17.42 0 8.84 0 0 Z " fill="#F0F0F0" transform="translate(329,443)"/>
<path d="M0 0 C0.99 0 1.98 0 3 0 C3 8.58 3 17.16 3 26 C2.01 26 1.02 26 0 26 C0 17.42 0 8.84 0 0 Z " fill="#EFEFEF" transform="translate(142,443)"/>
<path d="M0 0 C2.5 1.3125 2.5 1.3125 5 3 C5 3.99 5 4.98 5 6 C5.99 6.33 6.98 6.66 8 7 C8 7.33 8 7.66 8 8 C6.02 8 4.04 8 2 8 C2 8.66 2 9.32 2 10 C-9.88 9.67 -21.76 9.34 -34 9 C-34 8.67 -34 8.34 -34 8 C-22.78 8 -11.56 8 0 8 C0 5.36 0 2.72 0 0 Z " fill="#E9EAEB" transform="translate(479,134)"/>
<path d="M0 0 C5.28 0 10.56 0 16 0 C16 2.97 16 5.94 16 9 C10.0942118 7.44584521 5.02261107 4.40465533 0 1 C0 0.67 0 0.34 0 0 Z " fill="#C8D2D4" transform="translate(428,68)"/>
<path d="M0 0 C-0.99 0.66 -1.98 1.32 -3 2 C-3.38384509 4.93597539 -3.603843 7.68027373 -3.6875 10.625 C-3.72166016 11.42679687 -3.75582031 12.22859375 -3.79101562 13.0546875 C-3.87356878 15.03596318 -3.93845916 17.01796037 -4 19 C-4.99 19 -5.98 19 -7 19 C-7 13.72 -7 8.44 -7 3 C-8.32 3.33 -9.64 3.66 -11 4 C-9.71264403 1.42528807 -8.71510189 1.29583343 -6.0625 0.3125 C-5.35222656 0.04050781 -4.64195312 -0.23148437 -3.91015625 -0.51171875 C-2 -1 -2 -1 0 0 Z " fill="#F1F1F1" transform="translate(261,450)"/>
<path d="M0 0 C10.23 0 20.46 0 31 0 C31 0.66 31 1.32 31 2 C22.42 2 13.84 2 5 2 C5 2.66 5 3.32 5 4 C1.125 2.25 1.125 2.25 0 0 Z " fill="#E6E9E9" transform="translate(485,105)"/>
<path d="M0 0 C2.33294775 -0.04241723 4.66702567 -0.04092937 7 0 C8 1 8 1 8.09765625 3.28515625 C8.08605469 4.20167969 8.07445312 5.11820312 8.0625 6.0625 C8.05347656 6.98160156 8.04445313 7.90070313 8.03515625 8.84765625 C8.02355469 9.55792969 8.01195312 10.26820312 8 11 C3.68778655 9.07012289 1.73228831 6.82520363 -1 3 C-0.67 2.01 -0.34 1.02 0 0 Z " fill="#F4F5F6" transform="translate(322,69)"/>
<path d="M0 0 C0.66 0.99 1.32 1.98 2 3 C4.55395487 3.26711404 6.86274374 3.34849029 9.4140625 3.29296875 C10.14370209 3.28872391 10.87334167 3.28447906 11.62509155 3.28010559 C13.95876759 3.26329353 16.2915844 3.22563868 18.625 3.1875 C20.20571671 3.17245634 21.78644693 3.15876738 23.3671875 3.14648438 C27.24512344 3.11338201 31.12241598 3.06158404 35 3 C35 3.99 35 4.98 35 6 C22.79 6 10.58 6 -2 6 C-2 6.99 -2 7.98 -2 9 C-2.66 9 -3.32 9 -4 9 C-2.94124926 5.59687262 -1.99097846 2.98646769 0 0 Z " fill="#DBDFE0" transform="translate(483,251)"/>
<path d="M0 0 C0.66 0 1.32 0 2 0 C2.02505615 0.59538574 2.0501123 1.19077148 2.07592773 1.80419922 C2.19177494 4.49469136 2.31455196 7.1848234 2.4375 9.875 C2.47681641 10.81214844 2.51613281 11.74929688 2.55664062 12.71484375 C2.59853516 13.61074219 2.64042969 14.50664062 2.68359375 15.4296875 C2.72025146 16.25710449 2.75690918 17.08452148 2.79467773 17.93701172 C2.88238327 20.06179429 2.88238327 20.06179429 4 22 C2.68 23.32 1.36 24.64 0 26 C0 17.42 0 8.84 0 0 Z " fill="#E9EBEB" transform="translate(404,294)"/>
<path d="M0 0 C0.33 0.66 0.66 1.32 1 2 C7.6 2.33 14.2 2.66 21 3 C21 3.66 21 4.32 21 5 C20.31373535 5.02505615 19.6274707 5.0501123 18.92041016 5.07592773 C15.82174183 5.19171427 12.72339077 5.31451885 9.625 5.4375 C8.54476563 5.47681641 7.46453125 5.51613281 6.3515625 5.55664062 C5.3203125 5.59853516 4.2890625 5.64042969 3.2265625 5.68359375 C2.27346191 5.72025146 1.32036133 5.75690918 0.33837891 5.79467773 C-2.02132349 5.85763465 -2.02132349 5.85763465 -4 7 C-2.92598892 4.08482708 -2.22189824 2.22189824 0 0 Z " fill="#DBDFE0" transform="translate(460,289)"/>
<path d="M0 0 C0.33 0 0.66 0 1 0 C1.66 4.95 2.32 9.9 3 15 C1.72125 14.71125 0.4425 14.4225 -0.875 14.125 C-5.90171927 13.00617536 -10.94685368 11.9916404 -16 11 C-16 10.67 -16 10.34 -16 10 C-10.84828377 9.90961901 -6.08086796 10.15318867 -1 11 C-0.67 7.37 -0.34 3.74 0 0 Z " fill="#C1CDD0" transform="translate(256,57)"/>
<path d="M0 0 C2.31 0.33 4.62 0.66 7 1 C6.47557578 4.7758544 5.67345333 7.22372155 3 10 C2.01 10 1.02 10 0 10 C0 6.7 0 3.4 0 0 Z " fill="#F5F7F7" transform="translate(443,256)"/>
<path d="M0 0 C1.32 0.33 2.64 0.66 4 1 C4.33 1.66 4.66 2.32 5 3 C4.34 3 3.68 3 3 3 C2.67 9.6 2.34 16.2 2 23 C1.34 23 0.68 23 0 23 C0 15.41 0 7.82 0 0 Z " fill="#E9EAEB" transform="translate(180,446)"/>
<path d="M0 0 C1.98 0.66 3.96 1.32 6 2 C6 2.66 6 3.32 6 4 C6.66 4.33 7.32 4.66 8 5 C7.01 5 6.02 5 5 5 C4.67 4.34 4.34 3.68 4 3 C3.01 2.67 2.02 2.34 1 2 C1.33 13.55 1.66 25.1 2 37 C1.01 37 0.02 37 -1 37 C-0.67 24.79 -0.34 12.58 0 0 Z " fill="#D9DEDF" transform="translate(442,107)"/>
<path d="M0 0 C2.475 0.495 2.475 0.495 5 1 C5 1.66 5 2.32 5 3 C4.01 3 3.02 3 2 3 C2 9.27 2 15.54 2 22 C1.34 22 0.68 22 0 22 C0 14.74 0 7.48 0 0 Z " fill="#DFE3E4" transform="translate(404,85)"/>
<path d="M0 0 C1.65 0 3.3 0 5 0 C5.34833144 4.87664009 4.41685712 7.77050005 2 12 C1.34 12 0.68 12 0 12 C0 8.04 0 4.08 0 0 Z " fill="#F9FAFA" transform="translate(481,182)"/>
<path d="M0 0 C0.33 0.66 0.66 1.32 1 2 C0.34 2 -0.32 2 -1 2 C-1.33 3.98 -1.66 5.96 -2 8 C-2.33 6.68 -2.66 5.36 -3 4 C-6.63 4 -10.26 4 -14 4 C-14 3.01 -14 2.02 -14 1 C-9.38 0.67 -4.76 0.34 0 0 Z " fill="#E2E6E7" transform="translate(121,178)"/>
<path d="M0 0 C1.65497356 3.30994713 1.10084335 6.99123 1.0625 10.625 C1.05798828 11.42679687 1.05347656 12.22859375 1.04882812 13.0546875 C1.03703168 15.03649006 1.01909605 17.01825433 1 19 C0.34 19 -0.32 19 -1 19 C-2.21693876 16.56612247 -2.31959896 14.58161154 -2.5625 11.875 C-2.64628906 10.96492188 -2.73007812 10.05484375 -2.81640625 9.1171875 C-2.87699219 8.41851562 -2.93757813 7.71984375 -3 7 C-4.32 7.99 -5.64 8.98 -7 10 C-5.33248852 6.05860922 -2.77289351 3.2107188 0 0 Z " fill="#D1D9DA" transform="translate(443,312)"/>
<path d="M0 0 C2.475 0.495 2.475 0.495 5 1 C4.67 1.99 4.34 2.98 4 4 C-2.27 4 -8.54 4 -15 4 C-15.33 3.34 -15.66 2.68 -16 2 C-8.08 1.505 -8.08 1.505 0 1 C0 0.67 0 0.34 0 0 Z " fill="#47A4BC" transform="translate(189,115)"/>
<path d="M0 0 C3.84375 1.765625 3.84375 1.765625 5.25 3.875 C6 6 6 6 6 10 C4.33388095 10.042721 2.66617115 10.04063832 1 10 C0 9 0 9 -0.09765625 6.93359375 C-0.08605469 6.10988281 -0.07445312 5.28617187 -0.0625 4.4375 C-0.05347656 3.61121094 -0.04445312 2.78492188 -0.03515625 1.93359375 C-0.02355469 1.29550781 -0.01195312 0.65742188 0 0 Z " fill="#E9EDEE" transform="translate(144,394)"/>
<path d="M0 0 C-1 1 -1 1 -3.72265625 1.09765625 C-5.37587891 1.08025391 -5.37587891 1.08025391 -7.0625 1.0625 C-8.71958984 1.04896484 -8.71958984 1.04896484 -10.41015625 1.03515625 C-11.26480469 1.02355469 -12.11945313 1.01195312 -13 1 C-12.85892253 2.45880109 -12.71197585 3.91703551 -12.5625 5.375 C-12.44068359 6.59316406 -12.44068359 6.59316406 -12.31640625 7.8359375 C-12.10909886 10.04272805 -12.10909886 10.04272805 -11 12 C-13.91517292 10.92598892 -15.77810176 10.22189824 -18 8 C-17.01 8 -16.02 8 -15 8 C-15 5.36 -15 2.72 -15 0 C-12.87562788 -0.19448477 -10.75046809 -0.38038289 -8.625 -0.5625 C-7.44164062 -0.66691406 -6.25828125 -0.77132813 -5.0390625 -0.87890625 C-2 -1 -2 -1 0 0 Z " fill="#C5D1D3" transform="translate(382,296)"/>
<path d="M0 0 C0.33 0 0.66 0 1 0 C1.4207137 5.99517028 0.65750577 11.2006392 -0.875 17 C-1.04870117 17.6710376 -1.22240234 18.3420752 -1.40136719 19.03344727 C-1.86636762 20.70929678 -2.4262122 22.358213 -3 24 C-3.66 24.33 -4.32 24.66 -5 25 C-4.35929989 21.20744718 -3.71157345 17.416128 -3.0625 13.625 C-2.88009766 12.54476563 -2.69769531 11.46453125 -2.50976562 10.3515625 C-2.33251953 9.3203125 -2.15527344 8.2890625 -1.97265625 7.2265625 C-1.81031494 6.27346191 -1.64797363 5.32036133 -1.48071289 4.33837891 C-1 2 -1 2 0 0 Z " fill="#59818A" transform="translate(393,265)"/>
<path d="M0 0 C0.33 0 0.66 0 1 0 C1.95619733 3.99795892 2.1039592 7.70803922 2.0625 11.8125 C2.05347656 12.97394531 2.04445313 14.13539062 2.03515625 15.33203125 C2.02355469 16.21246094 2.01195312 17.09289062 2 18 C-1.875 16.25 -1.875 16.25 -3 14 C-2.34 14 -1.68 14 -1 14 C-0.67 9.38 -0.34 4.76 0 0 Z " fill="#277082" transform="translate(280,85)"/>
<path d="M0 0 C0 3.21536008 -0.34952303 4.31413064 -2 7 C-3.9453125 8.921875 -3.9453125 8.921875 -6.125 10.75 C-7.21167969 11.67039062 -7.21167969 11.67039062 -8.3203125 12.609375 C-8.87460937 13.06828125 -9.42890625 13.5271875 -10 14 C-10 9.84439769 -7.7179548 8.15900671 -5 5.3125 C-4.52304687 4.80138672 -4.04609375 4.29027344 -3.5546875 3.76367188 C-2.37640085 2.50290516 -1.18904747 1.25062314 0 0 Z " fill="#BECDD1" transform="translate(431,327)"/>
<path d="M0 0 C2.58047436 1.29023718 2.67022964 2.27089391 3.625 4.9375 C3.88539062 5.64777344 4.14578125 6.35804688 4.4140625 7.08984375 C5 9 5 9 5 11 C3.35 10.67 1.7 10.34 0 10 C0 6.7 0 3.4 0 0 Z " fill="#F7F8F8" transform="translate(107,318)"/>
<path d="M0 0 C-5.69414523 4.62133526 -9.72029767 6.68454718 -17.12890625 6.2109375 C-17.74636719 6.14132813 -18.36382812 6.07171875 -19 6 C-16.35512395 4.2367493 -14.53255516 3.42156855 -11.5625 2.5 C-9.18228932 1.75895302 -7.08915655 1.04914402 -4.90234375 -0.15625 C-3 -1 -3 -1 0 0 Z " fill="#317687" transform="translate(176,147)"/>
<path d="M0 0 C1 2 1 2 0.4375 4 C-1.60843348 6.84651615 -3.6582427 7.10029611 -7 8 C-8.03125 8.391875 -9.0625 8.78375 -10.125 9.1875 C-13.11278346 10.03187359 -14.13752465 9.86611379 -17 9 C-16.34773438 8.75765625 -15.69546875 8.5153125 -15.0234375 8.265625 C-6.89625391 5.18761732 -6.89625391 5.18761732 0 0 Z " fill="#ACBFC3" transform="translate(369,424)"/>
<path d="M0 0 C1.01126953 0.23009766 1.01126953 0.23009766 2.04296875 0.46484375 C5.46877952 1.08483857 8.83893447 1.3352574 12.3125 1.5625 C13.56675781 1.64628906 14.82101562 1.73007812 16.11328125 1.81640625 C17.54220703 1.90728516 17.54220703 1.90728516 19 2 C14.25858025 4.79564844 9.35919116 4.69937851 4 4 C1.3125 2 1.3125 2 0 0 Z " fill="#338498" transform="translate(334,417)"/>
<path d="M0 0 C2.18975773 3.28463659 2.99806563 6.20696275 4 10 C2.906875 9.835 1.81375 9.67 0.6875 9.5 C-2.87525873 8.93281816 -2.87525873 8.93281816 -6 9 C-6 8.01 -6 7.02 -6 6 C-3.69 6 -1.38 6 1 6 C0.67 4.02 0.34 2.04 0 0 Z " fill="#C5D0D3" transform="translate(111,323)"/>
<path d="M0 0 C2.31 0 4.62 0 7 0 C7.33 1.65 7.66 3.3 8 5 C5.69 4.67 3.38 4.34 1 4 C0.67 2.68 0.34 1.36 0 0 Z " fill="#F1F3F3" transform="translate(434,69)"/>
<path d="M0 0 C1.08667969 0.02707031 2.17335938 0.05414063 3.29296875 0.08203125 C4.54013672 0.13423828 4.54013672 0.13423828 5.8125 0.1875 C6.1425 0.8475 6.4725 1.5075 6.8125 2.1875 C5.99265625 2.12949219 5.1728125 2.07148438 4.328125 2.01171875 C1.0914601 1.87621244 -1.96676717 1.82248361 -5.1875 2.1875 C-7.86568983 4.48607106 -7.86568983 4.48607106 -9.1875 7.1875 C-9.8475 7.1875 -10.5075 7.1875 -11.1875 7.1875 C-8.5404966 1.28264626 -6.59771879 -0.21282964 0 0 Z " fill="#3F6D79" transform="translate(259.1875,196.8125)"/>
<path d="M0 0 C3.63 0 7.26 0 11 0 C10.67 0.99 10.34 1.98 10 3 C11.32 3.66 12.64 4.32 14 5 C13.01 5.495 13.01 5.495 12 6 C9.92803369 5.26821134 7.8891448 4.44100997 5.875 3.5625 C4.77929688 3.08941406 3.68359375 2.61632812 2.5546875 2.12890625 C1.71164062 1.75636719 0.86859375 1.38382813 0 1 C0 0.67 0 0.34 0 0 Z " fill="#508B99" transform="translate(328,196)"/>
<path d="M0 0 C4 1 4 1 7 3 C5.68 3 4.36 3 3 3 C3 5.64 3 8.28 3 11 C2.34 11 1.68 11 1 11 C0.67 7.37 0.34 3.74 0 0 Z " fill="#D2DADC" transform="translate(328,430)"/>
<path d="M0 0 C1.98 0.495 1.98 0.495 4 1 C3.01 1.495 3.01 1.495 2 2 C2 2.99 2 3.98 2 5 C4.64 4.67 7.28 4.34 10 4 C7.6870518 6.3129482 6.52095125 6.49580975 3.375 7.125 C2.55773437 7.29257812 1.74046875 7.46015625 0.8984375 7.6328125 C-0.04128906 7.81457031 -0.04128906 7.81457031 -1 8 C-0.67 5.36 -0.34 2.72 0 0 Z " fill="#DBE0E1" transform="translate(105,30)"/>
<path d="M0 0 C0.66 0 1.32 0 2 0 C0.59155282 3.21524305 -1.10344786 5.32183868 -3.625 7.75 C-4.57246094 8.67039062 -4.57246094 8.67039062 -5.5390625 9.609375 C-6.02117187 10.06828125 -6.50328125 10.5271875 -7 11 C-7.66 10.67 -8.32 10.34 -9 10 C-7.5484451 8.32742645 -6.08855591 6.66208242 -4.625 5 C-3.81289063 4.071875 -3.00078125 3.14375 -2.1640625 2.1875 C-1.44992187 1.465625 -0.73578125 0.74375 0 0 Z " fill="#4EAFC7" transform="translate(318,302)"/>
<path d="M0 0 C2.31 0 4.62 0 7 0 C5.1875 3 5.1875 3 3 6 C2.01 6 1.02 6 0 6 C0 4.02 0 2.04 0 0 Z " fill="#F5F6F7" transform="translate(256,47)"/>
<path d="M0 0 C1.5994614 3.19892281 2.42595236 5.35462576 3.125 8.75 C3.29257812 9.54921875 3.46015625 10.3484375 3.6328125 11.171875 C3.81457031 12.07679688 3.81457031 12.07679688 4 13 C3.34 12.67 2.68 12.34 2 12 C1.34 12.66 0.68 13.32 0 14 C0 9.38 0 4.76 0 0 Z " fill="#1F6475" transform="translate(327,308)"/>
<path d="M0 0 C3.26460973 1.80412643 4.88929795 2.83394693 7 6 C3.7 6 0.4 6 -3 6 C-3 5.34 -3 4.68 -3 4 C-1.35 3.67 0.3 3.34 2 3 C1.34 2.67 0.68 2.34 0 2 C0 1.34 0 0.68 0 0 Z " fill="#DBE1E2" transform="translate(484,138)"/>
<path d="M0 0 C3.63 0 7.26 0 11 0 C11 0.66 11 1.32 11 2 C7.37 2.33 3.74 2.66 0 3 C0 2.01 0 1.02 0 0 Z " fill="#F7F7F8" transform="translate(107,32)"/>
<path d="M0 0 C0 0.66 0 1.32 0 2 C-0.99 2.33 -1.98 2.66 -3 3 C-3.33 5.31 -3.66 7.62 -4 10 C-4.66 10 -5.32 10 -6 10 C-6 8.02 -6 6.04 -6 4 C-6.66 3.67 -7.32 3.34 -8 3 C-2.25 0 -2.25 0 0 0 Z " fill="#C6D0D2" transform="translate(298,433)"/>
<path d="M0 0 C2.97 0 5.94 0 9 0 C8.34 1.65 7.68 3.3 7 5 C6.67 4.34 6.34 3.68 6 3 C2.97065509 2.34227572 2.97065509 2.34227572 0 2 C0 1.34 0 0.68 0 0 Z " fill="#E8EAEB" transform="translate(444,254)"/>
<path d="M0 0 C2.97 0.495 2.97 0.495 6 1 C6 3.64 6 6.28 6 9 C3.59927045 6.11912454 1.52708963 3.43595166 0 0 Z " fill="#DCE0E1" transform="translate(363,104)"/>
<path d="M0 0 C0.66 0.33 1.32 0.66 2 1 C1.0919838 2.13199353 0.17316174 3.25532363 -0.75 4.375 C-1.26046875 5.00148437 -1.7709375 5.62796875 -2.296875 6.2734375 C-4.08199481 8.08312318 -5.67949644 9.00117455 -8 10 C-6.34908222 5.70761377 -3.26245434 3.1206085 0 0 Z " fill="#B3C5CA" transform="translate(156,160)"/>
<path d="M0 0 C2.97 0.495 2.97 0.495 6 1 C4.68 1.33 3.36 1.66 2 2 C2.33 4.97 2.66 7.94 3 11 C2.01 10.67 1.02 10.34 0 10 C0 6.7 0 3.4 0 0 Z " fill="#C2CED0" transform="translate(329,57)"/>
<path d="M0 0 C4.16138263 -0.08159574 7.9472484 0.01751476 12 1 C12 1.33 12 1.66 12 2 C11.21625 2.144375 10.4325 2.28875 9.625 2.4375 C7.03578982 2.87798925 7.03578982 2.87798925 5 4 C3.35 2.68 1.7 1.36 0 0 Z " fill="#B9C9CD" transform="translate(291,50)"/>
<path d="M0 0 C-0.66 0 -1.32 0 -2 0 C-2.33 0.99 -2.66 1.98 -3 3 C-5.97 2.67 -8.94 2.34 -12 2 C-4.86956522 -1.56521739 -4.86956522 -1.56521739 0 0 Z " fill="#A7BBC0" transform="translate(223,463)"/>
<path d="M0 0 C4.29 0 8.58 0 13 0 C13 0.33 13 0.66 13 1 C10.03 1 7.06 1 4 1 C4.33 1.99 4.66 2.98 5 4 C3.0625 3.6875 3.0625 3.6875 1 3 C0.67 2.01 0.34 1.02 0 0 Z " fill="#E1E6E7" transform="translate(344,293)"/>
<path d="M0 0 C0.33 0 0.66 0 1 0 C1 1.65 1 3.3 1 5 C4.3 4.67 7.6 4.34 11 4 C11 4.99 11 5.98 11 7 C7.37 7 3.74 7 0 7 C0 4.69 0 2.38 0 0 Z " fill="#E1E4E5" transform="translate(395,250)"/>
<path d="M0 0 C0.66 0.33 1.32 0.66 2 1 C-0.31 3.64 -2.62 6.28 -5 9 C-5.33 8.01 -5.66 7.02 -6 6 C-4.02 4.02 -2.04 2.04 0 0 Z " fill="#3F6D78" transform="translate(115,82)"/>
<path d="M0 0 C-1.5625 2 -1.5625 2 -4 4 C-7.75 4.25 -7.75 4.25 -11 4 C-9.71264403 1.42528807 -8.71510189 1.29583343 -6.0625 0.3125 C-5.35222656 0.04050781 -4.64195312 -0.23148437 -3.91015625 -0.51171875 C-2 -1 -2 -1 0 0 Z " fill="#ABBEC3" transform="translate(261,450)"/>
<path d="M0 0 C0.33 0.66 0.66 1.32 1 2 C4.3 1.67 7.6 1.34 11 1 C11 1.99 11 2.98 11 4 C6.71 3.67 2.42 3.34 -2 3 C-1.34 2.01 -0.68 1.02 0 0 Z " fill="#DADDDE" transform="translate(395,365)"/>
<path d="M0 0 C-0.33 2.97 -0.66 5.94 -1 9 C-1.33 9 -1.66 9 -2 9 C-2 6.69 -2 4.38 -2 2 C-4.31 2 -6.62 2 -9 2 C-9 1.67 -9 1.34 -9 1 C-5.94152152 0.45627049 -3.11227195 0 0 0 Z " fill="#B9CACE" transform="translate(156,52)"/>
<path d="M0 0 C6.625 -0.25 6.625 -0.25 10 2 C7 4 7 4 4 4 C4 3.34 4 2.68 4 2 C2.68 1.67 1.36 1.34 0 1 C0 0.67 0 0.34 0 0 Z " fill="#4A7680" transform="translate(286,48)"/>
<path d="M0 0 C0.99 0 1.98 0 3 0 C3 1.32 3 2.64 3 4 C0.36 4 -2.28 4 -5 4 C-2 2 -2 2 0 2 C0 1.34 0 0.68 0 0 Z " fill="#F7F9F9" transform="translate(289,437)"/>
<path d="M0 0 C0.66 0 1.32 0 2 0 C2.33 1.32 2.66 2.64 3 4 C0.36 4 -2.28 4 -5 4 C-5 3.34 -5 2.68 -5 2 C-3.35 2 -1.7 2 0 2 C0 1.34 0 0.68 0 0 Z " fill="#D6DDDE" transform="translate(150,402)"/>
<path d="M0 0 C0.33 0 0.66 0 1 0 C1.33 3.96 1.66 7.92 2 12 C1.01 12 0.02 12 -1 12 C-0.67 8.04 -0.34 4.08 0 0 Z " fill="#A2B5BA" transform="translate(256,57)"/>
<path d="M0 0 C0.99 0.33 1.98 0.66 3 1 C3 1.66 3 2.32 3 3 C3.99 3.33 4.98 3.66 6 4 C6 4.33 6 4.66 6 5 C4.02 5 2.04 5 0 5 C0 3.35 0 1.7 0 0 Z " fill="#FCFCFC" transform="translate(481,137)"/>
<path d="M0 0 C1.64767247 0.28109113 3.29313145 0.57518526 4.9375 0.875 C5.85402344 1.03742187 6.77054687 1.19984375 7.71484375 1.3671875 C8.46894531 1.57601562 9.22304688 1.78484375 10 2 C10.33 2.66 10.66 3.32 11 4 C6.545 3.01 6.545 3.01 2 2 C1.67 2.66 1.34 3.32 1 4 C0.67 2.68 0.34 1.36 0 0 Z " fill="#45A2B9" transform="translate(273,62)"/>
<path d="M0 0 C-2.31 1.32 -4.62 2.64 -7 4 C-7.99 3.34 -8.98 2.68 -10 2 C-3.375 -1.125 -3.375 -1.125 0 0 Z " fill="#4C91A2" transform="translate(176,147)"/>
</svg>
