<?xml version="1.0" encoding="UTF-8"?>
<svg version="1.1" xmlns="http://www.w3.org/2000/svg" width="350" height="267">
<path d="M0 0 C41.89758459 -1.8315386 85.4166433 11.06560823 117.76855469 38.11669922 C118.35072754 38.59880859 118.93290039 39.08091797 119.53271484 39.57763672 C123.31539415 42.71513704 127.0719239 45.87810578 130.76855469 49.11669922 C131.32148193 49.57536377 131.87440918 50.03402832 132.4440918 50.5065918 C133.76855469 52.11669922 133.76855469 52.11669922 133.94604492 54.05322266 C133.14467155 59.7362689 131.77512095 64.96936453 129.83105469 70.36669922 C129.52530518 71.22295898 129.21955566 72.07921875 128.90454102 72.96142578 C121.54964184 92.96966078 111.63040885 111.85518706 97.76855469 128.11669922 C96.90398576 129.16381444 96.0407868 130.21206178 95.17871094 131.26123047 C88.58836633 139.23103095 81.63755511 146.71431134 73.95605469 153.65966797 C73.23417969 154.47048828 72.51230469 155.28130859 71.76855469 156.11669922 C72.05615943 159.65226163 72.05615943 159.65226163 72.54589844 161.99951172 C72.9450156 165.79462575 71.70008546 168.8882835 69.76855469 172.11669922 C67.05576157 175.03150885 63.94660335 177.84105406 59.88574219 178.35498047 C59.14582031 178.37947266 58.40589844 178.40396484 57.64355469 178.42919922 C56.91910156 178.46658203 56.19464844 178.50396484 55.44824219 178.54248047 C52.65014048 178.09788413 51.36776216 177.31488183 48.98339844 175.86669922 C46.02312997 174.31692931 46.02312997 174.31692931 42.78125 174.48657227 C40.58142986 175.46704359 38.53743715 176.59230708 36.45605469 177.80419922 C28.33340839 182.08825344 20.10353112 185.33603941 11.39355469 188.24169922 C10.22268311 188.64348389 9.05181152 189.04526855 7.84545898 189.45922852 C6.73984619 189.82314697 5.6342334 190.18706543 4.49511719 190.56201172 C3.01906006 191.04951904 3.01906006 191.04951904 1.51318359 191.546875 C-1.48254276 192.16883064 -3.32352855 192.01166031 -6.23144531 191.11669922 C-37.5824726 164.95838866 -53.48164523 113.07760676 -57.23144531 74.11669922 C-58.53409255 56.988542 -58.23658002 40.17325279 -56.23144531 23.11669922 C-56.14072754 22.03227539 -56.05000977 20.94785156 -55.95654297 19.83056641 C-55.61676502 16.77577468 -55.20744186 14.03133099 -54.23144531 11.11669922 C-51.46311825 9.12365501 -50.42049998 8.7380246 -47.23144531 8.11669922 C-45.89436523 7.75487549 -45.89436523 7.75487549 -44.53027344 7.38574219 C-29.83089612 3.44789664 -15.18362944 0.79406727 0 0 Z M-8.23144531 13.11669922 C-8.56144531 13.77669922 -8.89144531 14.43669922 -9.23144531 15.11669922 C-3.13279427 18.50800517 2.42184611 20.15260264 9.26855469 21.36669922 C10.18636719 21.53943359 11.10417969 21.71216797 12.04980469 21.89013672 C14.28740885 22.3096875 16.5277274 22.71471875 18.76855469 23.11669922 C19.42855469 19.81669922 20.08855469 16.51669922 20.76855469 13.11669922 C11.28999722 11.35324667 1.26185537 11.53448244 -8.23144531 13.11669922 Z M37.76855469 15.11669922 C38.89421044 16.24235497 40.02166282 17.36624245 41.15527344 18.48388672 C42.32958177 19.67241186 43.47441138 20.89028203 44.60058594 22.12451172 C49.07286025 26.91536093 49.07286025 26.91536093 54.89355469 29.67919922 C60.44211151 31.4090434 63.17645021 35.29385609 65.95605469 40.22216797 C70.6494636 49.97134457 71.50037042 59.46044596 69.76855469 70.11669922 C69.12814287 71.79362943 68.46694414 73.4630746 67.76855469 75.11669922 C67.94755432 77.98069338 68.73608017 79.07750584 70.58105469 81.30419922 C76.31944393 88.68212824 78.39047524 96.79664175 77.47949219 106.05419922 C76.14307872 114.57100367 76.14307872 114.57100367 72.76855469 118.11669922 C67.43606677 118.64994801 62.07161639 117.79010388 56.76855469 117.11669922 C59.20502023 119.88726205 61.78994611 121.24618102 65.08105469 122.86669922 C70.27826094 125.61005212 73.29054421 128.41668506 76.76855469 133.11669922 C81.56285418 129.23828353 85.69531969 125.20331392 89.51855469 120.36669922 C90.02805664 119.724021 90.53755859 119.08134277 91.0625 118.41918945 C102.98829586 103.02577876 112.29146626 85.61176059 118.83105469 67.30419922 C119.14268555 66.43746582 119.45431641 65.57073242 119.77539062 64.67773438 C120.05286133 63.86739746 120.33033203 63.05706055 120.61621094 62.22216797 C120.8637915 61.50182373 121.11137207 60.78147949 121.36645508 60.03930664 C121.97997096 57.91138294 121.97997096 57.91138294 120.76855469 55.11669922 C118.76431239 53.32953361 116.77061048 51.6829667 114.64355469 50.05419922 C114.01755371 49.57104248 113.39155273 49.08788574 112.74658203 48.59008789 C101.096275 39.70379374 89.12637657 32.17024397 75.76855469 26.11669922 C75.15544434 25.83842285 74.54233398 25.56014648 73.91064453 25.2734375 C63.02190072 20.42717145 49.83137252 15.11669922 37.76855469 15.11669922 Z M-36.98144531 17.74169922 C-38.11066406 18.04333984 -39.23988281 18.34498047 -40.40332031 18.65576172 C-43.48624627 19.88504346 -43.48624627 19.88504346 -44.61425781 23.05419922 C-45.24132041 26.16569972 -45.38217044 28.9514715 -45.23144531 32.11669922 C-44.55082031 31.43607422 -43.87019531 30.75544922 -43.16894531 30.05419922 C-40.23144531 28.11669922 -40.23144531 28.11669922 -36.73144531 28.11669922 C-32.98274239 29.1877572 -31.14435743 30.59742387 -28.23144531 33.11669922 C-26.91144531 33.44669922 -25.59144531 33.77669922 -24.23144531 34.11669922 C-24.23144531 28.17669922 -24.23144531 22.23669922 -24.23144531 16.11669922 C-29.16973442 16.11669922 -32.35408728 16.43025904 -36.98144531 17.74169922 Z M-46.23144531 43.11669922 C-46.26074515 47.42918469 -46.27834434 51.74164415 -46.29394531 56.05419922 C-46.30232422 57.2665625 -46.31070313 58.47892578 -46.31933594 59.72802734 C-46.3370491 66.26418491 -46.31999132 72.66073139 -45.23144531 79.11669922 C-44.57144531 79.44669922 -43.91144531 79.77669922 -43.23144531 80.11669922 C-42.98910156 79.54822266 -42.74675781 78.97974609 -42.49707031 78.39404297 C-40.82416099 74.53991726 -39.1201109 70.79965453 -36.98144531 67.17919922 C-35.06606567 64.4151578 -35.06606567 64.4151578 -35.23144531 62.11669922 C-35.97394531 61.62169922 -36.71644531 61.12669922 -37.48144531 60.61669922 C-42.45043196 56.09943863 -44.07263358 49.5944568 -45.23144531 43.11669922 C-45.56144531 43.11669922 -45.89144531 43.11669922 -46.23144531 43.11669922 Z " fill="#FAFCFD" transform="translate(132.2314453125,64.88330078125)"/>
<path d="M0 0 C41.89758459 -1.8315386 85.4166433 11.06560823 117.76855469 38.11669922 C118.35072754 38.59880859 118.93290039 39.08091797 119.53271484 39.57763672 C123.31539415 42.71513704 127.0719239 45.87810578 130.76855469 49.11669922 C131.32148193 49.57536377 131.87440918 50.03402832 132.4440918 50.5065918 C133.76855469 52.11669922 133.76855469 52.11669922 133.94604492 54.05322266 C133.14467155 59.7362689 131.77512095 64.96936453 129.83105469 70.36669922 C129.52530518 71.22295898 129.21955566 72.07921875 128.90454102 72.96142578 C121.54964184 92.96966078 111.63040885 111.85518706 97.76855469 128.11669922 C96.90398576 129.16381444 96.0407868 130.21206178 95.17871094 131.26123047 C88.58836633 139.23103095 81.63755511 146.71431134 73.95605469 153.65966797 C73.23417969 154.47048828 72.51230469 155.28130859 71.76855469 156.11669922 C72.05615943 159.65226163 72.05615943 159.65226163 72.54589844 161.99951172 C72.9450156 165.79462575 71.70008546 168.8882835 69.76855469 172.11669922 C67.05576157 175.03150885 63.94660335 177.84105406 59.88574219 178.35498047 C59.14582031 178.37947266 58.40589844 178.40396484 57.64355469 178.42919922 C56.91910156 178.46658203 56.19464844 178.50396484 55.44824219 178.54248047 C52.65014048 178.09788413 51.36776216 177.31488183 48.98339844 175.86669922 C46.02312997 174.31692931 46.02312997 174.31692931 42.78125 174.48657227 C40.58142986 175.46704359 38.53743715 176.59230708 36.45605469 177.80419922 C28.33340839 182.08825344 20.10353112 185.33603941 11.39355469 188.24169922 C10.22268311 188.64348389 9.05181152 189.04526855 7.84545898 189.45922852 C6.73984619 189.82314697 5.6342334 190.18706543 4.49511719 190.56201172 C3.01906006 191.04951904 3.01906006 191.04951904 1.51318359 191.546875 C-1.48254276 192.16883064 -3.32352855 192.01166031 -6.23144531 191.11669922 C-37.5824726 164.95838866 -53.48164523 113.07760676 -57.23144531 74.11669922 C-58.53409255 56.988542 -58.23658002 40.17325279 -56.23144531 23.11669922 C-56.14072754 22.03227539 -56.05000977 20.94785156 -55.95654297 19.83056641 C-55.61676502 16.77577468 -55.20744186 14.03133099 -54.23144531 11.11669922 C-51.46311825 9.12365501 -50.42049998 8.7380246 -47.23144531 8.11669922 C-45.89436523 7.75487549 -45.89436523 7.75487549 -44.53027344 7.38574219 C-29.83089612 3.44789664 -15.18362944 0.79406727 0 0 Z M-8.23144531 13.11669922 C-8.56144531 13.77669922 -8.89144531 14.43669922 -9.23144531 15.11669922 C-3.13279427 18.50800517 2.42184611 20.15260264 9.26855469 21.36669922 C10.18636719 21.53943359 11.10417969 21.71216797 12.04980469 21.89013672 C14.28740885 22.3096875 16.5277274 22.71471875 18.76855469 23.11669922 C19.42855469 19.81669922 20.08855469 16.51669922 20.76855469 13.11669922 C11.28999722 11.35324667 1.26185537 11.53448244 -8.23144531 13.11669922 Z M37.76855469 15.11669922 C38.89421044 16.24235497 40.02166282 17.36624245 41.15527344 18.48388672 C42.32958177 19.67241186 43.47441138 20.89028203 44.60058594 22.12451172 C49.07286025 26.91536093 49.07286025 26.91536093 54.89355469 29.67919922 C60.44211151 31.4090434 63.17645021 35.29385609 65.95605469 40.22216797 C70.6494636 49.97134457 71.50037042 59.46044596 69.76855469 70.11669922 C69.12814287 71.79362943 68.46694414 73.4630746 67.76855469 75.11669922 C67.94755432 77.98069338 68.73608017 79.07750584 70.58105469 81.30419922 C76.31944393 88.68212824 78.39047524 96.79664175 77.47949219 106.05419922 C76.14307872 114.57100367 76.14307872 114.57100367 72.76855469 118.11669922 C67.43606677 118.64994801 62.07161639 117.79010388 56.76855469 117.11669922 C59.20502023 119.88726205 61.78994611 121.24618102 65.08105469 122.86669922 C70.27826094 125.61005212 73.29054421 128.41668506 76.76855469 133.11669922 C81.56285418 129.23828353 85.69531969 125.20331392 89.51855469 120.36669922 C90.02805664 119.724021 90.53755859 119.08134277 91.0625 118.41918945 C102.98829586 103.02577876 112.29146626 85.61176059 118.83105469 67.30419922 C119.14268555 66.43746582 119.45431641 65.57073242 119.77539062 64.67773438 C120.05286133 63.86739746 120.33033203 63.05706055 120.61621094 62.22216797 C120.8637915 61.50182373 121.11137207 60.78147949 121.36645508 60.03930664 C121.97997096 57.91138294 121.97997096 57.91138294 120.76855469 55.11669922 C118.76431239 53.32953361 116.77061048 51.6829667 114.64355469 50.05419922 C114.01755371 49.57104248 113.39155273 49.08788574 112.74658203 48.59008789 C101.096275 39.70379374 89.12637657 32.17024397 75.76855469 26.11669922 C75.15544434 25.83842285 74.54233398 25.56014648 73.91064453 25.2734375 C63.02190072 20.42717145 49.83137252 15.11669922 37.76855469 15.11669922 Z M-36.98144531 17.74169922 C-38.11066406 18.04333984 -39.23988281 18.34498047 -40.40332031 18.65576172 C-43.48624627 19.88504346 -43.48624627 19.88504346 -44.61425781 23.05419922 C-45.24132041 26.16569972 -45.38217044 28.9514715 -45.23144531 32.11669922 C-44.55082031 31.43607422 -43.87019531 30.75544922 -43.16894531 30.05419922 C-40.23144531 28.11669922 -40.23144531 28.11669922 -36.73144531 28.11669922 C-32.98274239 29.1877572 -31.14435743 30.59742387 -28.23144531 33.11669922 C-26.91144531 33.44669922 -25.59144531 33.77669922 -24.23144531 34.11669922 C-24.23144531 28.17669922 -24.23144531 22.23669922 -24.23144531 16.11669922 C-29.16973442 16.11669922 -32.35408728 16.43025904 -36.98144531 17.74169922 Z M-17.23144531 17.11669922 C-18.98097021 18.86622412 -18.52754508 21.17201901 -18.60644531 23.55419922 C-18.58361352 29.91665995 -16.89222354 36.45592099 -12.23144531 41.11669922 C-22.02882447 41.79891518 -29.56781785 39.57917091 -38.23144531 35.11669922 C-38.67616137 42.6398126 -38.9346007 48.01530844 -34.23144531 54.11669922 C-31.96464099 56.57240391 -30.50464029 57.97207186 -27.13378906 58.35498047 C-25.1647661 58.36539858 -23.19598612 58.24988843 -21.23144531 58.11669922 C-21.23144531 58.77669922 -21.23144531 59.43669922 -21.23144531 60.11669922 C-21.83085938 60.38482422 -22.43027344 60.65294922 -23.04785156 60.92919922 C-31.13524723 65.32735357 -35.07296202 75.42468009 -37.84863281 83.71044922 C-39.51069385 89.43037793 -39.72900172 94.87577393 -39.66894531 100.80419922 C-39.66137207 101.85784668 -39.65379883 102.91149414 -39.64599609 103.99707031 C-39.46535482 112.60060537 -38.2522027 120.00835045 -35.23144531 128.11669922 C-34.78414062 129.32712891 -34.33683594 130.53755859 -33.87597656 131.78466797 C-30.8726855 139.29692149 -27.23448274 145.7688818 -22.23144531 152.11669922 C-21.49087891 153.08542969 -21.49087891 153.08542969 -20.73535156 154.07373047 C-13.18570036 163.46476001 -3.13456963 169.38220613 8.76855469 171.11669922 C18.10051366 171.36790848 28.49690129 170.82840052 36.76855469 166.11669922 C37.85661705 164.28553064 37.85661705 164.28553064 37.76855469 162.11669922 C36.99613719 159.97506066 36.99613719 159.97506066 35.83105469 157.67919922 C33.6015397 151.92285564 33.31500301 146.59031062 33.26855469 140.49169922 C33.25058838 139.6094165 33.23262207 138.72713379 33.21411133 137.81811523 C33.28346956 129.99669715 35.51137871 123.0595938 40.76855469 117.11669922 C41.24292969 116.55982422 41.71730469 116.00294922 42.20605469 115.42919922 C44.0230536 113.90292013 45.45244325 113.51602878 47.76855469 113.11669922 C47.76855469 112.45669922 47.76855469 111.79669922 47.76855469 111.11669922 C55.02855469 111.11669922 62.28855469 111.11669922 69.76855469 111.11669922 C71.65961241 103.55246832 72.2195169 95.7927836 68.45605469 88.74169922 C64.73640241 83.25633249 59.51795028 80.20623208 53.76855469 77.11669922 C54.67541016 76.67970703 54.67541016 76.67970703 55.60058594 76.23388672 C58.74405902 74.6140069 62.13835161 72.85369644 63.39355469 69.39404297 C65.09167907 59.08147508 64.14564101 49.03142148 58.49511719 40.10498047 C57.1202564 38.22786264 57.1202564 38.22786264 54.76855469 36.11669922 C53.77855469 36.11669922 52.78855469 36.11669922 51.76855469 36.11669922 C51.43855469 38.75669922 51.10855469 41.39669922 50.76855469 44.11669922 C50.56101562 43.48763672 50.35347656 42.85857422 50.13964844 42.21044922 C46.55533677 32.25236156 40.42047773 24.82669494 30.76855469 20.11669922 C29.44855469 20.11669922 28.12855469 20.11669922 26.76855469 20.11669922 C26.90132813 20.68517578 27.03410156 21.25365234 27.17089844 21.83935547 C28.25703049 26.58821019 29.15167851 31.28450246 29.76855469 36.11669922 C29.11371094 35.71837891 28.45886719 35.32005859 27.78417969 34.90966797 C20.88198918 30.90288789 14.53477015 28.76656424 6.76855469 27.11669922 C3.95025247 26.49428991 1.14021451 25.841498 -1.66894531 25.17919922 C-2.68057739 24.96046143 -2.68057739 24.96046143 -3.71264648 24.73730469 C-8.10534327 23.70133793 -10.96874621 22.23303425 -14.23144531 19.11669922 C-14.56144531 18.45669922 -14.89144531 17.79669922 -15.23144531 17.11669922 C-15.89144531 17.11669922 -16.55144531 17.11669922 -17.23144531 17.11669922 Z M-46.23144531 43.11669922 C-46.26074515 47.42918469 -46.27834434 51.74164415 -46.29394531 56.05419922 C-46.30232422 57.2665625 -46.31070313 58.47892578 -46.31933594 59.72802734 C-46.3370491 66.26418491 -46.31999132 72.66073139 -45.23144531 79.11669922 C-44.57144531 79.44669922 -43.91144531 79.77669922 -43.23144531 80.11669922 C-42.98910156 79.54822266 -42.74675781 78.97974609 -42.49707031 78.39404297 C-40.82416099 74.53991726 -39.1201109 70.79965453 -36.98144531 67.17919922 C-35.06606567 64.4151578 -35.06606567 64.4151578 -35.23144531 62.11669922 C-35.97394531 61.62169922 -36.71644531 61.12669922 -37.48144531 60.61669922 C-42.45043196 56.09943863 -44.07263358 49.5944568 -45.23144531 43.11669922 C-45.56144531 43.11669922 -45.89144531 43.11669922 -46.23144531 43.11669922 Z " fill="#144B59" transform="translate(132.2314453125,64.88330078125)"/>
<path d="M0 0 C0.72445312 -0.01224609 1.44890625 -0.02449219 2.1953125 -0.03710938 C6.00700298 -0.04765833 7.7536304 0.0232536 11 2.1875 C5.39 2.1875 -0.22 2.1875 -6 2.1875 C-6 3.1775 -6 4.1675 -6 5.1875 C-5.01 5.5175 -4.02 5.8475 -3 6.1875 C-3 7.1775 -3 8.1675 -3 9.1875 C-2.01 9.8475 -1.02 10.5075 0 11.1875 C0 12.1775 0 13.1675 0 14.1875 C1.32 14.5175 2.64 14.8475 4 15.1875 C4 15.8475 4 16.5075 4 17.1875 C4.66 17.1875 5.32 17.1875 6 17.1875 C6 17.8475 6 18.5075 6 19.1875 C6.66 19.1875 7.32 19.1875 8 19.1875 C8 19.8475 8 20.5075 8 21.1875 C8.61875 21.414375 9.2375 21.64125 9.875 21.875 C12.74939757 23.6503632 13.20186198 24.92238994 14 28.1875 C13.74158794 33.01119185 12.75992244 36.22761128 10 40.1875 C10.66 40.5175 11.32 40.8475 12 41.1875 C11.5359375 42.4559375 11.5359375 42.4559375 11.0625 43.75 C9.98461179 47.2372854 9.43418696 50.56927535 9 54.1875 C9.66 54.5175 10.32 54.8475 11 55.1875 C11.33 55.5175 11.66 55.8475 12 56.1875 C11.505 50.2475 11.505 50.2475 11 44.1875 C13.44549768 46.63299768 13.69215909 48.58457697 14.0234375 51.96484375 C13.9756794 56.49390379 12.63623413 60.42941865 9.53125 63.765625 C6.00057716 66.77708125 3.46359846 68.34811259 -1.125 68.5 C-1.84945312 68.53738281 -2.57390625 68.57476562 -3.3203125 68.61328125 C-6.1184142 68.16868492 -7.40079252 67.38568261 -9.78515625 65.9375 C-12.74542472 64.38773009 -12.74542472 64.38773009 -15.98730469 64.55737305 C-18.18712483 65.53784437 -20.23111754 66.66310786 -22.3125 67.875 C-30.43514629 72.15905422 -38.66502357 75.40684019 -47.375 78.3125 C-48.54587158 78.71428467 -49.71674316 79.11606934 -50.9230957 79.5300293 C-52.58151489 80.07590698 -52.58151489 80.07590698 -54.2734375 80.6328125 C-55.25747559 80.95781738 -56.24151367 81.28282227 -57.25537109 81.61767578 C-60.25109744 82.23963142 -62.09208323 82.0824611 -65 81.1875 C-75.86055227 72.12579697 -83.86721899 57.19024873 -91 45.1875 C-91.46792969 44.42953125 -91.93585938 43.6715625 -92.41796875 42.890625 C-93.34414328 41.36069847 -94.18606667 39.77997826 -95 38.1875 C-94.67 37.5275 -94.34 36.8675 -94 36.1875 C-91.6859378 35.45674352 -89.35171131 34.78611742 -87 34.1875 C-84.10636996 36.96589699 -81.66283939 39.86199816 -79.25 43.0625 C-75.63588118 47.6323076 -71.89329417 51.05227559 -67 54.1875 C-66.2059375 54.69925781 -65.411875 55.21101563 -64.59375 55.73828125 C-52.16230581 62.68416347 -37.17586127 60.45313166 -24.0625 56.80859375 C-23.381875 56.60363281 -22.70125 56.39867187 -22 56.1875 C-22.4147291 52.20610063 -22.94440103 49.3194759 -24.515625 45.58984375 C-26.41160721 40.65011561 -26.47907533 35.99227103 -26.4375 30.75 C-26.45748047 29.85990234 -26.47746094 28.96980469 -26.49804688 28.05273438 C-26.49197896 19.74575386 -24.07058416 12.89190718 -18.5 6.625 C-17.64921875 5.63306641 -17.64921875 5.63306641 -16.78125 4.62109375 C-15 3.1875 -15 3.1875 -11 3.1875 C-11 2.5275 -11 1.8675 -11 1.1875 C-7.30054001 -0.04565333 -3.85232442 0.00342733 0 0 Z " fill="#154B59" transform="translate(191,174.8125)"/>
<path d="M0 0 C0.66 0 1.32 0 2 0 C2.70125 0.763125 3.4025 1.52625 4.125 2.3125 C9.72741044 7.54953584 17.06126156 8.53758855 24.375 9.875 C32.9132183 11.54530548 39.73858507 14.15905671 47 19 C46.68806536 17.27073126 46.37542638 15.54158956 46.0625 13.8125 C45.80146484 12.36810547 45.80146484 12.36810547 45.53515625 10.89453125 C45.0476265 8.25760028 44.53328895 5.6280095 44 3 C51.7349258 3.72514929 57.66270863 8.99264099 62.45703125 14.73046875 C65.03858308 18.52763738 66.5679292 22.65931335 68 27 C68.33 24.36 68.66 21.72 69 19 C72 19 72 19 74.4375 21.3125 C80.92267777 29.7432311 82.09914494 39.64758836 81 50 C79.39956698 54.95996267 77.3693233 56.63584416 72.9375 59.1875 C71 60 71 60 68 60 C65.34545157 58.67272578 64.95506813 56.9106052 63.79394531 54.28881836 C58.53426503 42.53550201 50.86255092 37.70612676 39 33 C38.01 32.67 37.02 32.34 36 32 C37.32 34.31 38.64 36.62 40 39 C34.48254332 38.23012232 34.48254332 38.23012232 31.88671875 36.9921875 C27.7588913 35.57342137 23.84023612 35.5329052 19.5 35.5 C18.61086914 35.49282959 17.72173828 35.48565918 16.80566406 35.47827148 C9.61277444 35.60918155 5.02810579 37.29123157 -1.30078125 40.7109375 C-5.51211726 42.72213994 -7.59799471 42.4673351 -12 41 C-16.54136103 38.000988 -19.30160797 35.1895312 -21 30 C-21.23127172 25.98615077 -21.17541905 22.0151472 -21 18 C-20.16662109 18.42925781 -20.16662109 18.42925781 -19.31640625 18.8671875 C-11.13921421 22.86615157 -4.12232022 24.63520992 5 24 C4.65066406 23.45730469 4.30132812 22.91460937 3.94140625 22.35546875 C3.48636719 21.64003906 3.03132813 20.92460938 2.5625 20.1875 C2.11003906 19.47980469 1.65757813 18.77210937 1.19140625 18.04296875 C-1.01446428 14.26044322 -1.13535126 11.17077361 -1.125 6.875 C-1.12886719 5.26238281 -1.12886719 5.26238281 -1.1328125 3.6171875 C-1 1 -1 1 0 0 Z " fill="#5DC6E1" transform="translate(115,82)"/>
<path d="M0 0 C0.66773438 0.38027344 1.33546875 0.76054687 2.0234375 1.15234375 C4.28858279 2.561413 5.79139349 3.58278699 7 6 C-0.26 6 -7.52 6 -15 6 C-15 6.66 -15 7.32 -15 8 C-16.051875 8.2784375 -16.051875 8.2784375 -17.125 8.5625 C-23.06549544 11.53274772 -26.20967886 16.5307689 -28.40234375 22.71191406 C-29.49295058 26.88722748 -29.48371465 31.01919831 -29.4375 35.3125 C-29.43500244 36.23732178 -29.43250488 37.16214355 -29.42993164 38.11499023 C-29.3084467 44.25348939 -28.50032 49.3579297 -25.77734375 54.94140625 C-24.85198423 57.39198145 -25.12545221 58.57436746 -26 61 C-27.98 61.495 -27.98 61.495 -30 62 C-30 61.67 -30 61.34 -30 61 C-31.44632813 60.81824219 -31.44632813 60.81824219 -32.921875 60.6328125 C-34.18515625 60.46523437 -35.4484375 60.29765625 -36.75 60.125 C-38.00296875 59.96257812 -39.2559375 59.80015625 -40.546875 59.6328125 C-43.48616408 59.0941645 -45.47107147 58.51991159 -48 57 C-48 56.34 -48 55.68 -48 55 C-49.051875 54.7215625 -49.051875 54.7215625 -50.125 54.4375 C-56.66455662 51.16772169 -60.31227595 44.5856275 -63 38 C-64.52529231 33.16990768 -64.08770259 28.01853698 -64 23 C-60.125 26.75 -60.125 26.75 -59 29 C-58.84144531 28.09378906 -58.68289062 27.18757813 -58.51953125 26.25390625 C-56.01788325 13.19281584 -52.28735323 5.94989463 -41.5625 -1.75 C-28.91468304 -7.91966681 -11.98526124 -6.85150927 0 0 Z " fill="#A7E0EE" transform="translate(195,170)"/>
<path d="M0 0 C2.46631641 1.2729375 3.9737335 3.0362335 5.9375 5 C9.35645471 7.28997904 12.82234853 9.34157576 16.9375 10 C16.9375 10.66 16.9375 11.32 16.9375 12 C17.55625 12.226875 18.175 12.45375 18.8125 12.6875 C21.68689757 14.4628632 22.13936198 15.73488994 22.9375 19 C22.6946492 23.61416513 22.09629158 26.56653089 18.9375 30 C15.62275488 28.89508496 15.34221949 28.4765235 13.5625 25.6875 C11.93749689 23.28891756 10.73909458 21.84127567 8.4375 20 C4.41911596 16.78529277 1.56568555 12.88455665 -0.0625 8 C1.07423622 17.82773212 7.76901126 25.21201878 14.3359375 32.22265625 C17.50941071 35.74443749 17.26349376 38.94496313 17.23046875 43.515625 C16.82287873 46.97198834 15.47473498 48.68663869 12.9375 51 C8.87564665 53.03092668 4.19906793 52.11401983 -0.0625 51 C-6.95694196 46.43355143 -10.1804091 37.71906004 -12.0625 30 C-13.40790469 20.66009524 -12.84161979 11.81602267 -7.0625 4 C-3.24854651 0 -3.24854651 0 0 0 Z " fill="#5CC5DF" transform="translate(182.0625,184)"/>
<path d="M0 0 C0.72445312 -0.01224609 1.44890625 -0.02449219 2.1953125 -0.03710938 C6.00700298 -0.04765833 7.7536304 0.0232536 11 2.1875 C5.39 2.1875 -0.22 2.1875 -6 2.1875 C-6 3.1775 -6 4.1675 -6 5.1875 C-5.01 5.5175 -4.02 5.8475 -3 6.1875 C-3 7.1775 -3 8.1675 -3 9.1875 C-2.01 9.8475 -1.02 10.5075 0 11.1875 C0 12.1775 0 13.1675 0 14.1875 C1.32 14.5175 2.64 14.8475 4 15.1875 C4 15.8475 4 16.5075 4 17.1875 C4.66 17.1875 5.32 17.1875 6 17.1875 C6 17.8475 6 18.5075 6 19.1875 C0.91374154 17.82289407 -3.03138866 15.59853785 -7 12.1875 C-7.33 11.5275 -7.66 10.8675 -8 10.1875 C-11.16031676 10.49923193 -12.60204879 10.74552764 -14.765625 13.1484375 C-15.50039062 14.34339844 -15.50039062 14.34339844 -16.25 15.5625 C-16.75015625 16.35398438 -17.2503125 17.14546875 -17.765625 17.9609375 C-21.60341663 24.88353633 -21.0703477 35.08372148 -19.10546875 42.6171875 C-18.40689021 44.47841796 -17.66807496 46.32546659 -16.875 48.1484375 C-16 50.1875 -16 50.1875 -16 52.1875 C-17.485 52.6825 -17.485 52.6825 -19 53.1875 C-19.33 53.8475 -19.66 54.5075 -20 55.1875 C-22 54.1875 -22 54.1875 -22.81640625 51.75390625 C-23.18572266 50.26697266 -23.18572266 50.26697266 -23.5625 48.75 C-24.50185245 44.86495953 -24.50185245 44.86495953 -26 41.1875 C-26.2944656 37.84033994 -26.27811163 34.4835971 -26.3125 31.125 C-26.34150391 30.20783203 -26.37050781 29.29066406 -26.40039062 28.34570312 C-26.47857748 19.85942265 -24.2014152 13.0390921 -18.5 6.625 C-17.9328125 5.96371094 -17.365625 5.30242187 -16.78125 4.62109375 C-15 3.1875 -15 3.1875 -11 3.1875 C-11 2.5275 -11 1.8675 -11 1.1875 C-7.30054001 -0.04565333 -3.85232442 0.00342733 0 0 Z " fill="#155362" transform="translate(191,174.8125)"/>
<path d="M0 0 C6.06553427 0.52920769 10.9270238 2.40773408 16.4375 4.9375 C17.31422363 5.33791504 18.19094727 5.73833008 19.09423828 6.15087891 C37.10447073 14.57918402 52.52037125 26.48790405 67 40 C66.505 40.99 66.505 40.99 66 42 C64.515 41.01 64.515 41.01 63 40 C62.67 40.99 62.34 41.98 62 43 C60.35 43 58.7 43 57 43 C58 41 59 39 60 37 C58.68 36.67 57.36 36.34 56 36 C56.33 36.99 56.66 37.98 57 39 C56.34 39.66 55.68 40.32 55 41 C55.66 41.99 56.32 42.98 57 44 C57.125 46.6875 57.125 46.6875 57 49 C55 46 55 46 55 44 C54.47019531 43.77441406 53.94039062 43.54882812 53.39453125 43.31640625 C50.19181772 41.5556975 47.50042583 39.24797691 44.6875 36.9375 C38.9660276 32.3107636 33.0436077 28.40905256 26.6237793 24.81811523 C25.05382255 23.92753298 23.5221652 22.97000724 22 22 C22 21.34 22 20.68 22 20 C26.61582471 21.70100159 30.47777122 24.10432723 34.59765625 26.7578125 C37.14143682 28.30620336 37.14143682 28.30620336 41 28 C42.78969026 25.57327433 42.78969026 25.57327433 44 23 C41.525 22.01 41.525 22.01 39 21 C39 20.34 39 19.68 39 19 C38.21625 18.79375 37.4325 18.5875 36.625 18.375 C32.57015732 16.83695622 29.18110451 14.7730998 25.49609375 12.51171875 C18.89051277 8.51115562 12.00914487 5.78987412 4.7578125 3.1484375 C2 2 2 2 0 0 Z " fill="#104858" transform="translate(198,76)"/>
<path d="M0 0 C2 3 2 3 3.3125 5.8125 C6.26107557 11.38203163 10.51954237 15.63155381 15 20 C17.33333333 22.33333333 19.66666667 24.66666667 22 27 C21.5359375 28.2684375 21.5359375 28.2684375 21.0625 29.5625 C19.98461179 33.0497854 19.43418696 36.38177535 19 40 C19.66 40.33 20.32 40.66 21 41 C21.495 41.495 21.495 41.495 22 42 C21.67 38.04 21.34 34.08 21 30 C23.44549768 32.44549768 23.69215909 34.39707697 24.0234375 37.77734375 C23.9756794 42.30640379 22.63623413 46.24191865 19.53125 49.578125 C15.13155566 53.33080547 12.2289161 54.38550054 6.59765625 54.3671875 C1.92576189 53.70679942 -1.97115394 51.35506659 -6 49 C-5.67 48.01 -5.34 47.02 -5 46 C-4.01 46 -3.02 46 -2 46 C-2.474375 45.608125 -2.94875 45.21625 -3.4375 44.8125 C-5.35179633 42.59191626 -5.61266988 40.86624291 -6 38 C-3.66666667 40.33333333 -1.33333333 42.66666667 1 45 C6.16533621 46.25598352 10.49100078 46.85805838 15.1875 44.1875 C17.77943437 39.6292706 18.29795726 36.10977428 17 31 C14.72307921 27.3100153 11.87269968 24.23366718 9 21 C7.67957726 19.25050372 6.3864014 17.48001778 5.125 15.6875 C4.57070312 14.90761719 4.01640625 14.12773437 3.4453125 13.32421875 C0.6272984 8.79254743 -0.24808613 5.33385181 0 0 Z " fill="#244D56" transform="translate(181,189)"/>
<path d="M0 0 C2.68855878 2.38196875 4.07704646 4.83838818 5.625 8.0625 C6.05039063 8.94035156 6.47578125 9.81820312 6.9140625 10.72265625 C7.45160156 11.84994141 7.45160156 11.84994141 8 13 C8.33 13.66 8.66 14.32 9 15 C-0.28637737 15.58343732 -8.37375029 14.67797068 -16.3125 9.48828125 C-16.869375 8.99714844 -17.42625 8.50601563 -18 8 C-18 7.34 -18 6.68 -18 6 C-17.01 5.67 -16.02 5.34 -15 5 C-14.34 5.66 -13.68 6.32 -13 7 C-10.66117862 6.70764733 -8.32716 6.37400786 -6 6 C-5.34 6.33 -4.68 6.66 -4 7 C-3.67 5.68 -3.34 4.36 -3 3 C-2.34 3 -1.68 3 -1 3 C-0.67 2.01 -0.34 1.02 0 0 Z " fill="#124F5F" transform="translate(112,92)"/>
<path d="M0 0 C0.33 0 0.66 0 1 0 C1.33 2.64 1.66 5.28 2 8 C2.99 7.67 3.98 7.34 5 7 C7.23554604 12.34047109 7.23554604 12.34047109 6.0625 15.625 C5.5365625 16.800625 5.5365625 16.800625 5 18 C5.24756445 20.07361988 5.24756445 20.07361988 6 22 C6.33333333 23.33333333 6.66666667 24.66666667 7 26 C6.34 25.67 5.68 25.34 5 25 C5 24.34 5 23.68 5 23 C4.01 23 3.02 23 2 23 C2 23.99 2 24.98 2 26 C2.66 26.33 3.32 26.66 4 27 C1 28 1 28 -1.69921875 26.671875 C-2.68535156 26.03765625 -3.67148438 25.4034375 -4.6875 24.75 C-6.17830078 23.81414062 -6.17830078 23.81414062 -7.69921875 22.859375 C-8.45847656 22.24578125 -9.21773437 21.6321875 -10 21 C-10 20.01 -10 19.02 -10 18 C-8.329375 17.4121875 -8.329375 17.4121875 -6.625 16.8125 C-4.1153895 15.70948571 -3.17594182 15.26391273 -1.625 12.9375 C-0.71409738 8.65625769 -0.32179969 4.3612326 0 0 Z " fill="#135465" transform="translate(196,122)"/>
<path d="M0 0 C0.33 0 0.66 0 1 0 C1.02578125 0.71285156 1.0515625 1.42570312 1.078125 2.16015625 C1.51712964 9.57334819 2.56940855 14.32436631 7.75 19.875 C11.10942188 21.55471094 14.26555334 21.68879611 18 22 C18 22.66 18 23.32 18 24 C16.609375 25.33203125 16.609375 25.33203125 14.75 26.8125 C11.74506767 29.29324535 9.31906006 31.84607831 7 35 C7.33 31.7 7.66 28.4 8 25 C6.515 27.475 6.515 27.475 5 30 C4.87625 29.360625 4.7525 28.72125 4.625 28.0625 C4.41875 27.381875 4.2125 26.70125 4 26 C3.34 25.67 2.68 25.34 2 25 C0.18746574 21.47032802 -0.03413269 19.74873099 1 16 C0.34 15.34 -0.32 14.68 -1 14 C-0.9765625 10.7421875 -0.9765625 10.7421875 -0.625 6.875 C-0.51414062 5.59367187 -0.40328125 4.31234375 -0.2890625 2.9921875 C-0.19367188 2.00476563 -0.09828125 1.01734375 0 0 Z " fill="#135162" transform="translate(93,101)"/>
<path d="M0 0 C2 3 2 3 3.3125 5.8125 C6.26107557 11.38203163 10.51954237 15.63155381 15 20 C17.33333333 22.33333333 19.66666667 24.66666667 22 27 C21.5359375 28.2684375 21.5359375 28.2684375 21.0625 29.5625 C19.98461179 33.0497854 19.43418696 36.38177535 19 40 C19.66 40.33 20.32 40.66 21 41 C20.34 41 19.68 41 19 41 C18.67 41.99 18.34 42.98 18 44 C16.96814534 40.90443602 17.1083941 39.59185352 17.4375 36.4375 C17.51830087 29.47852549 13.4007969 25.95377662 9 21 C7.67957726 19.25050372 6.3864014 17.48001778 5.125 15.6875 C4.57070312 14.90761719 4.01640625 14.12773437 3.4453125 13.32421875 C0.6272984 8.79254743 -0.24808613 5.33385181 0 0 Z " fill="#115467" transform="translate(181,189)"/>
<path d="M0 0 C0.72445312 -0.01224609 1.44890625 -0.02449219 2.1953125 -0.03710938 C6.00700298 -0.04765833 7.7536304 0.0232536 11 2.1875 C5.39 2.1875 -0.22 2.1875 -6 2.1875 C-6 3.1775 -6 4.1675 -6 5.1875 C-5.01 5.5175 -4.02 5.8475 -3 6.1875 C-3 7.1775 -3 8.1675 -3 9.1875 C-2.01 9.8475 -1.02 10.5075 0 11.1875 C0 12.1775 0 13.1675 0 14.1875 C1.32 14.5175 2.64 14.8475 4 15.1875 C4 15.8475 4 16.5075 4 17.1875 C4.66 17.1875 5.32 17.1875 6 17.1875 C6 17.8475 6 18.5075 6 19.1875 C0.91374154 17.82289407 -3.03138866 15.59853785 -7 12.1875 C-7.33 11.5275 -7.66 10.8675 -8 10.1875 C-9.32 10.1875 -10.64 10.1875 -12 10.1875 C-11.67 8.8675 -11.34 7.5475 -11 6.1875 C-12.32 7.5075 -13.64 8.8275 -15 10.1875 C-15 8.8675 -15 7.5475 -15 6.1875 C-15.99 6.1875 -16.98 6.1875 -18 6.1875 C-16.75 4.6875 -16.75 4.6875 -15 3.1875 C-13.68 3.1875 -12.36 3.1875 -11 3.1875 C-11 2.5275 -11 1.8675 -11 1.1875 C-7.30054001 -0.04565333 -3.85232442 0.00342733 0 0 Z " fill="#266070" transform="translate(191,174.8125)"/>
<path d="M0 0 C6.06553427 0.52920769 10.9270238 2.40773408 16.4375 4.9375 C17.31422363 5.33791504 18.19094727 5.73833008 19.09423828 6.15087891 C30.57959187 11.52571594 40.95128452 18.22963472 51 25.9375 C51.60634277 26.39817871 52.21268555 26.85885742 52.83740234 27.33349609 C54.28601924 28.48260453 55.65210938 29.73424647 57 31 C57 31.99 57 32.98 57 34 C56.22914063 33.3503125 55.45828125 32.700625 54.6640625 32.03125 C53.15972656 30.77828125 53.15972656 30.77828125 51.625 29.5 C50.62726563 28.6646875 49.62953125 27.829375 48.6015625 26.96875 C46.27795292 24.79885244 46.27795292 24.79885244 44 25 C44 24.34 44 23.68 44 23 C41.525 22.01 41.525 22.01 39 21 C39 20.34 39 19.68 39 19 C38.21625 18.79375 37.4325 18.5875 36.625 18.375 C32.57015732 16.83695622 29.18110451 14.7730998 25.49609375 12.51171875 C18.89051277 8.51115562 12.00914487 5.78987412 4.7578125 3.1484375 C2 2 2 2 0 0 Z " fill="#315A63" transform="translate(198,76)"/>
<path d="M0 0 C2.15502531 3.23253796 2.46856135 4.25150923 2 8 C0.875 9.8125 0.875 9.8125 -1 11 C-4.0625 11.375 -4.0625 11.375 -7 11 C-9.15502531 7.76746204 -9.46856135 6.74849077 -9 3 C-6.74087166 -0.63970677 -4.02464148 -0.51378402 0 0 Z " fill="#305B65" transform="translate(156,141)"/>
<path d="M0 0 C0.33 0 0.66 0 1 0 C0.48343351 6.89686067 -0.97621813 12.77656694 -3.375 19.25 C-3.71934082 20.18932373 -4.06368164 21.12864746 -4.41845703 22.09643555 C-15.01573344 50.00786672 -15.01573344 50.00786672 -21 53 C-20.35938627 49.84675688 -19.24824255 47.45685018 -17.625 44.6875 C-15.45859401 40.87462546 -13.6550128 37.06857314 -12 33 C-11.44699219 31.69095703 -11.44699219 31.69095703 -10.8828125 30.35546875 C-4.487004 15.49695986 -4.487004 15.49695986 0 0 Z " fill="#2A545D" transform="translate(264,120)"/>
<path d="M0 0 C0.66 0.598125 1.32 1.19625 2 1.8125 C3.051875 2.286875 4.10375 2.76125 5.1875 3.25 C8 4.8125 8 4.8125 8.875 7 C8.91625 7.598125 8.9575 8.19625 9 8.8125 C8.34 8.4825 7.68 8.1525 7 7.8125 C7 7.1525 7 6.4925 7 5.8125 C6.01 5.8125 5.02 5.8125 4 5.8125 C4 6.8025 4 7.7925 4 8.8125 C4.66 9.1425 5.32 9.4725 6 9.8125 C3 10.8125 3 10.8125 0.30078125 9.484375 C-1.17841797 8.53304687 -1.17841797 8.53304687 -2.6875 7.5625 C-3.68136719 6.93859375 -4.67523438 6.3146875 -5.69921875 5.671875 C-6.45847656 5.05828125 -7.21773437 4.4446875 -8 3.8125 C-8 2.8225 -8 1.8325 -8 0.8125 C-2.57617729 -1.52960526 -2.57617729 -1.52960526 0 0 Z " fill="#235A67" transform="translate(194,139.1875)"/>
<path d="M0 0 C2.46776816 1.27368679 4.04690184 2.98336197 5.9375 5 C6.5975 5.33 7.2575 5.66 7.9375 6 C7.9375 6.99 7.9375 7.98 7.9375 9 C7.2775 9 6.6175 9 5.9375 9 C5.9375 11.31 5.9375 13.62 5.9375 16 C0.9352458 11.91921368 -0.14184219 8.30719307 -1.0625 2 C-2.3825 2.99 -3.7025 3.98 -5.0625 5 C-5.7225 4.67 -6.3825 4.34 -7.0625 4 C-2.69886364 0 -2.69886364 0 0 0 Z " fill="#5CC0DC" transform="translate(182.0625,184)"/>
<path d="M0 0 C0.5775 0.2475 1.155 0.495 1.75 0.75 C0.12660195 2.45884005 -1.54319053 4.12446717 -3.25 5.75 C-3.91 5.75 -4.57 5.75 -5.25 5.75 C-5.4046875 6.5853125 -5.4046875 6.5853125 -5.5625 7.4375 C-6.25 9.75 -6.25 9.75 -7.71875 11.9375 C-9.57506863 15.34706483 -9.97059233 18.21949071 -10.4375 22.0625 C-10.59605469 23.31675781 -10.75460938 24.57101563 -10.91796875 25.86328125 C-11.02753906 26.81589844 -11.13710937 27.76851562 -11.25 28.75 C-12.24 28.42 -13.23 28.09 -14.25 27.75 C-12.59976248 17.566827 -10.69470008 9.40689101 -4.1875 1.125 C-2.25 -0.25 -2.25 -0.25 0 0 Z " fill="#B9E1E9" transform="translate(150.25,172.25)"/>
<path d="M0 0 C2.33333333 2.33333333 4.66666667 4.66666667 7 7 C11.98856975 8.06840544 16.48404172 8.68366746 21.1875 6.5625 C21.785625 6.046875 22.38375 5.53125 23 5 C22.67 6.65 22.34 8.3 22 10 C15.85187714 11.60816091 11.01717266 12.76789942 5 10 C1.81077134 6.89469841 0.50455946 4.41489526 0 0 Z " fill="#0C4F60" transform="translate(175,227)"/>
<path d="M0 0 C1.32 0.33 2.64 0.66 4 1 C3.34 1 2.68 1 2 1 C3.32 3.31 4.64 5.62 6 8 C0.45879019 7.22680793 0.45879019 7.22680793 -2.078125 5.97265625 C-6.39511481 4.53558344 -10.54554317 4.75062388 -15.0625 4.8125 C-15.96033203 4.81314453 -16.85816406 4.81378906 -17.78320312 4.81445312 C-21.70555156 4.84069932 -25.20841112 4.9166117 -29 6 C-28.67 5.01 -28.34 4.02 -28 3 C-18.76 3 -9.52 3 0 3 C0 2.01 0 1.02 0 0 Z " fill="#96D6E8" transform="translate(149,113)"/>
<path d="M0 0 C3 0 3 0 5.5 2.4375 C8.49072178 6.20526732 9.745952 10.4120195 11 15 C7.30017452 12.53344968 7.08136405 10.85115665 5.84375 6.77734375 C5.5653125 6.19082031 5.286875 5.60429688 5 5 C4.01 4.67 3.02 4.34 2 4 C2 5.65 2 7.3 2 9 C2.66 9 3.32 9 4 9 C3.34 10.98 2.68 12.96 2 15 C1.34 15 0.68 15 0 15 C-1.09651823 11.58860997 -0.94215473 8.79344419 -0.5625 5.25 C-0.46066406 4.26515625 -0.35882813 3.2803125 -0.25390625 2.265625 C-0.17011719 1.51796875 -0.08632812 0.7703125 0 0 Z " fill="#52AEC5" transform="translate(184,101)"/>
<path d="M0 0 C0.495 0.309375 0.99 0.61875 1.5 0.9375 C4.97986781 2.41644382 8.24028509 2.62402851 12 3 C12 3.66 12 4.32 12 5 C10.609375 6.33203125 10.609375 6.33203125 8.75 7.8125 C5.74506767 10.29324535 3.31906006 12.84607831 1 16 C1.08708669 14.54054712 1.19526907 13.08234132 1.3125 11.625 C1.37050781 10.81289062 1.42851563 10.00078125 1.48828125 9.1640625 C2 7 2 7 5 5 C4.01 4.67 3.02 4.34 2 4 C0.8125 1.9375 0.8125 1.9375 0 0 Z " fill="#215B66" transform="translate(99,120)"/>
<path d="M0 0 C5.4185766 -0.22577402 9.77487721 0.53329887 15 2 C15 2.66 15 3.32 15 4 C12.03 3.67 9.06 3.34 6 3 C6.55429688 3.47050781 7.10859375 3.94101563 7.6796875 4.42578125 C8.40414062 5.04839844 9.12859375 5.67101562 9.875 6.3125 C10.59429687 6.92738281 11.31359375 7.54226562 12.0546875 8.17578125 C14 10 14 10 16 13 C12.78348751 11.53461846 10.1955451 9.70270269 7.4375 7.5 C4.99531495 5.55613602 2.60022728 3.73348485 0 2 C0 1.34 0 0.68 0 0 Z " fill="#224E5A" transform="translate(165,78)"/>
<path d="M0 0 C0.66 0.33 1.32 0.66 2 1 C0.29682739 3.52445335 -1.41232108 6.04450703 -3.125 8.5625 C-3.599375 9.26697266 -4.07375 9.97144531 -4.5625 10.69726562 C-7.77571202 15.4085292 -11.21846955 19.73034915 -15 24 C-15.66 23.67 -16.32 23.34 -17 23 C-16.05016642 21.49460339 -15.08988109 19.99579653 -14.125 18.5 C-13.59132812 17.6646875 -13.05765625 16.829375 -12.5078125 15.96875 C-12.01023438 15.3190625 -11.51265625 14.669375 -11 14 C-10.34 14 -9.68 14 -9 14 C-8.67 12.68 -8.34 11.36 -8 10 C-7.34 10 -6.68 10 -6 10 C-5.62875 9.195625 -5.62875 9.195625 -5.25 8.375 C-3.70303025 5.43575748 -1.86985631 2.74245592 0 0 Z " fill="#244E58" transform="translate(241,174)"/>
<path d="M0 0 C0.66 0.66 1.32 1.32 2 2 C0.08302447 5.64225351 -1.16218149 7.48143872 -5 9 C-8.05000064 9.46179587 -10.95084715 9.48115072 -14 9 C-16.5625 7 -16.5625 7 -18 5 C-17.40832031 5.08378906 -16.81664062 5.16757813 -16.20703125 5.25390625 C-11.8618825 5.81388464 -8.29024875 6.13565408 -4 5 C-3.01 5 -2.02 5 -1 5 C-0.67 3.35 -0.34 1.7 0 0 Z " fill="#0E4856" transform="translate(198,232)"/>
<path d="M0 0 C2.875 -0.1875 2.875 -0.1875 6 0 C6.66 0.99 7.32 1.98 8 3 C7.34 3 6.68 3 6 3 C6 3.66 6 4.32 6 5 C5.360625 5.12375 4.72125 5.2475 4.0625 5.375 C3.0415625 5.684375 3.0415625 5.684375 2 6 C1.67 6.66 1.34 7.32 1 8 C0.01 8 -0.98 8 -2 8 C-2 6.02 -2 4.04 -2 2 C-1.34 2 -0.68 2 0 2 C0 1.34 0 0.68 0 0 Z " fill="#5DC8E5" transform="translate(194,197)"/>
<path d="M0 0 C0.33 0 0.66 0 1 0 C0.80535041 4.46720803 0.49410553 8.06880111 -1.625 12.0625 C-4.8250904 14.67310006 -6.98389835 14.38616362 -11 14 C-10.34 13.34 -9.68 12.68 -9 12 C-8.01 12 -7.02 12 -6 12 C-6 10.68 -6 9.36 -6 8 C-5.01 8 -4.02 8 -3 8 C-3 7.01 -3 6.02 -3 5 C-2.01 5 -1.02 5 0 5 C0 3.35 0 1.7 0 0 Z " fill="#174350" transform="translate(209,170)"/>
<path d="M0 0 C0.33 0.99 0.66 1.98 1 3 C1.99 2.01 2.98 1.02 4 0 C4.66 0.33 5.32 0.66 6 1 C5.07347299 2.17539996 4.13336613 3.34010577 3.1875 4.5 C2.40439453 5.47453125 2.40439453 5.47453125 1.60546875 6.46875 C0 8 0 8 -3 8 C-3 8.66 -3 9.32 -3 10 C-3.99 10 -4.98 10 -6 10 C-4.79157144 5.56909529 -3.48331435 3.01887244 0 0 Z " fill="#0E4758" transform="translate(176,180)"/>
<path d="M0 0 C0.87011719 0.00902344 1.74023438 0.01804688 2.63671875 0.02734375 C4.7579342 0.05065381 6.87900562 0.08651421 9 0.125 C9 0.455 9 0.785 9 1.125 C8.12263184 1.20016846 8.12263184 1.20016846 7.22753906 1.27685547 C4.56754819 1.50951235 1.90884651 1.75462436 -0.75 2 C-1.67039063 2.07863281 -2.59078125 2.15726563 -3.5390625 2.23828125 C-4.87324219 2.36396484 -4.87324219 2.36396484 -6.234375 2.4921875 C-7.45979004 2.60216064 -7.45979004 2.60216064 -8.70996094 2.71435547 C-11.12658623 3.14769915 -12.82543797 4.01988557 -15 5.125 C-18.25 5.25 -18.25 5.25 -21 5.125 C-16.52398622 -1.02951895 -6.788148 -0.13555441 0 0 Z " fill="#BFE6EC" transform="translate(174,164.875)"/>
<path d="M0 0 C0.66 0.66 1.32 1.32 2 2 C2.33 1.34 2.66 0.68 3 0 C3.66 0 4.32 0 5 0 C5 0.66 5 1.32 5 2 C5.99 2.33 6.98 2.66 8 3 C7.34 3 6.68 3 6 3 C6 3.66 6 4.32 6 5 C7.32 4.67 8.64 4.34 10 4 C10 4.66 10 5.32 10 6 C9.34 6 8.68 6 8 6 C7.67 6.66 7.34 7.32 7 8 C6.48050781 7.6390625 5.96101562 7.278125 5.42578125 6.90625 C0.19731053 3.2949721 0.19731053 3.2949721 -6 3 C-6 2.01 -6 1.02 -6 0 C-3 -1 -3 -1 0 0 Z " fill="#145164" transform="translate(164,83)"/>
<path d="M0 0 C-0.33 4.29 -0.66 8.58 -1 13 C-2.32 12.34 -3.64 11.68 -5 11 C-5.49095023 4.61764706 -5.49095023 4.61764706 -3.0625 1.5625 C-1 0 -1 0 0 0 Z " fill="#0D4A59" transform="translate(170,196)"/>
<path d="M0 0 C0.66 0 1.32 0 2 0 C2.42410156 0.43441406 2.84820312 0.86882812 3.28515625 1.31640625 C6.14063517 4.11984911 9.769436 5.59665102 13.30859375 7.40234375 C16.02175511 9.01291413 17.9541524 10.60592302 20 13 C20 13.66 20 14.32 20 15 C19.34 15 18.68 15 18 15 C17.38125 14.29875 16.7625 13.5975 16.125 12.875 C12.67582622 9.18542926 8.09896982 7.53137574 3.546875 5.52734375 C1 4 1 4 0.140625 1.81640625 C0.09421875 1.21699219 0.0478125 0.61757812 0 0 Z " fill="#224F58" transform="translate(187,181)"/>
<path d="M0 0 C3.09902323 3.09902323 2.9898579 5.39147385 3.0625 9.75 C3.041875 10.8225 3.02125 11.895 3 13 C-1.49797113 11.31326082 -5.72886302 9.18326108 -10 7 C-6.06204091 5.77580837 -3.83887763 6.51679728 0 8 C0 5.36 0 2.72 0 0 Z " fill="#1C697D" transform="translate(159,88)"/>
<path d="M0 0 C0.91007813 0.00902344 1.82015625 0.01804687 2.7578125 0.02734375 C3.45648438 0.03894531 4.15515625 0.05054687 4.875 0.0625 C4.875 0.7225 4.875 1.3825 4.875 2.0625 C0.42 2.5575 0.42 2.5575 -4.125 3.0625 C-0.67791141 5.15756252 -0.67791141 5.15756252 2.875 7.0625 C2.875 7.7225 2.875 8.3825 2.875 9.0625 C-0.61170834 7.9530928 -3.89984237 6.79912334 -7.125 5.0625 C-7.125 3.7425 -7.125 2.4225 -7.125 1.0625 C-4.60024538 -0.19987731 -2.81299534 -0.03606404 0 0 Z " fill="#265662" transform="translate(128.125,75.9375)"/>
<path d="M0 0 C0.66 0 1.32 0 2 0 C2.103125 1.093125 2.20625 2.18625 2.3125 3.3125 C2.97307727 6.85559629 3.2027092 7.93243723 6 10 C5.67 10.99 5.34 11.98 5 13 C2.9375 13.6875 2.9375 13.6875 1 14 C1 13.34 1 12.68 1 12 C-0.32 12.33 -1.64 12.66 -3 13 C-2.505 12.154375 -2.01 11.30875 -1.5 10.4375 C0.14747708 6.66203168 0.24430947 4.07182452 0 0 Z " fill="#105061" transform="translate(204,201)"/>
<path d="M0 0 C7.07552335 1.57376017 12.43053133 3.27805917 18 8 C18.33 8.66 18.66 9.32 19 10 C16.03 9.34 13.06 8.68 10 8 C9.67 6.68 9.34 5.36 9 4 C8.071875 3.896875 7.14375 3.79375 6.1875 3.6875 C2.85034764 2.96772204 2.16813468 2.42857128 0 0 Z " fill="#BAE2E9" transform="translate(183,166)"/>
<path d="M0 0 C5.41736059 2.02788899 10.10471399 4.95508526 15 8 C15.65355469 8.39960937 16.30710938 8.79921875 16.98046875 9.2109375 C18.35913419 10.08201828 19.68711704 11.03261256 21 12 C21 12.66 21 13.32 21 14 C16.48431584 12.42596152 12.77105435 10.05585413 8.8125 7.4375 C4.50834802 4.54506253 4.50834802 4.54506253 0 2 C0 1.34 0 0.68 0 0 Z " fill="#234E5C" transform="translate(220,96)"/>
<path d="M0 0 C1.5 1.375 1.5 1.375 3 3 C3 3.66 3 4.32 3 5 C3.66 5 4.32 5 5 5 C5.66 6.65 6.32 8.3 7 10 C7.66 10 8.32 10 9 10 C9 10.99 9 11.98 9 13 C9.639375 13.226875 10.27875 13.45375 10.9375 13.6875 C13 15 13 15 13.75 17.625 C13.8325 18.40875 13.915 19.1925 14 20 C10.37194126 16.5072685 7.23294074 12.90528476 4.1875 8.875 C3.00220703 7.32425781 3.00220703 7.32425781 1.79296875 5.7421875 C0 3 0 3 0 0 Z " fill="#1E4853" transform="translate(110,233)"/>
<path d="M0 0 C1.90389849 2.85584773 2.69462177 4.9311762 3.625 8.1875 C3.88539063 9.08855469 4.14578125 9.98960937 4.4140625 10.91796875 C4.60742188 11.60503906 4.80078125 12.29210937 5 13 C4.01 13.33 3.02 13.66 2 14 C1.67 14.66 1.34 15.32 1 16 C0.34 15.67 -0.32 15.34 -1 15 C-1 13.68 -1 12.36 -1 11 C-0.34 11 0.32 11 1 11 C0.835 10.484375 0.67 9.96875 0.5 9.4375 C-0.15049 6.26636124 -0.0620734 3.22781666 0 0 Z " fill="#1D5B67" transform="translate(170,214)"/>
<path d="M0 0 C6.13532814 3.87718653 11.66105169 8.08293044 17 13 C16.67 13.66 16.34 14.32 16 15 C14.84371094 14.02546875 14.84371094 14.02546875 13.6640625 13.03125 C12.66117188 12.1959375 11.65828125 11.360625 10.625 10.5 C9.12839844 9.24703125 9.12839844 9.24703125 7.6015625 7.96875 C5.27795292 5.79885244 5.27795292 5.79885244 3 6 C3 5.34 3 4.68 3 4 C0.525 3.01 0.525 3.01 -2 2 C-1.34 1.34 -0.68 0.68 0 0 Z " fill="#255760" transform="translate(239,95)"/>
<path d="M0 0 C1.49609375 1.1953125 1.49609375 1.1953125 3 3 C3.22265625 5.3046875 3.22265625 5.3046875 3.0625 7.875 C2.92427587 11.83166559 3.34716233 14.36375713 5 18 C4.67 18.99 4.34 19.98 4 21 C0.13205111 13.7686173 -0.14072377 8.05252669 0 0 Z " fill="#B9E0E8" transform="translate(131,193)"/>
<path d="M0 0 C1.258125 0.33 2.51625 0.66 3.8125 1 C9.22793168 2.22450844 14.47495171 2.18588948 20 2 C19.67 1.34 19.34 0.68 19 0 C19.99 0.33 20.98 0.66 22 1 C22 1.99 22 2.98 22 4 C15.4 4 8.8 4 2 4 C1.34 2.68 0.68 1.36 0 0 Z " fill="#439DB1" transform="translate(100,104)"/>
<path d="M0 0 C1.2077558 3.62326739 0.54311128 4.64146369 -1 8 C-3.97 7.505 -3.97 7.505 -7 7 C-5.54744301 3.17053157 -3.57104439 1.87949705 0 0 Z " fill="#11414E" transform="translate(201,135)"/>
<path d="M0 0 C2.34541891 2.87846866 3.68313732 5.54323547 5 9 C5.98482022 11.00751815 6.98152514 13.00934459 8 15 C4.15426577 13.76387114 2.62019666 11.37142111 0.75 7.88671875 C-0.31578288 5.2056087 -0.27721403 2.84144377 0 0 Z " fill="#1E4B55" transform="translate(88,111)"/>
<path d="M0 0 C3.26954202 0.56371414 4.82575883 1.49962266 7 4 C6.67 4.66 6.34 5.32 6 6 C5.01 5.34 4.02 4.68 3 4 C2.67 4.99 2.34 5.98 2 7 C0.35 7 -1.3 7 -3 7 C-2.690625 6.401875 -2.38125 5.80375 -2.0625 5.1875 C-0.89790296 2.91043228 -0.89790296 2.91043228 0 0 Z " fill="#1C4F5E" transform="translate(258,112)"/>
<path d="M0 0 C-7.20807175 5.87892377 -7.20807175 5.87892377 -11.6015625 6.17578125 C-13.78727992 5.90863801 -15.86990244 5.55392608 -18 5 C-18 4.67 -18 4.34 -18 4 C-16.95199219 3.81824219 -16.95199219 3.81824219 -15.8828125 3.6328125 C-14.51769531 3.38144531 -14.51769531 3.38144531 -13.125 3.125 C-11.76761719 2.88136719 -11.76761719 2.88136719 -10.3828125 2.6328125 C-7.83494012 2.16955297 -7.83494012 2.16955297 -6 0 C-2.44444444 -1.22222222 -2.44444444 -1.22222222 0 0 Z " fill="#60AEBE" transform="translate(121,118)"/>
<path d="M0 0 C8.91 1.98 8.91 1.98 18 4 C18 4.33 18 4.66 18 5 C10.71304215 5.474377 6.02818509 5.28670939 0 1 C0 0.67 0 0.34 0 0 Z " fill="#4AA6B8" transform="translate(125,89)"/>
<path d="M0 0 C5.75 0.75 5.75 0.75 8 3 C7.01 3.66 6.02 4.32 5 5 C5 5.99 5 6.98 5 8 C3.35 8 1.7 8 0 8 C0.33 7.34 0.66 6.68 1 6 C1.66 6 2.32 6 3 6 C2.2575 5.071875 2.2575 5.071875 1.5 4.125 C0 2 0 2 0 0 Z " fill="#D5F7FD" transform="translate(151,114)"/>
<path d="M0 0 C0.33 0.99 0.66 1.98 1 3 C-0.9375 5.6875 -0.9375 5.6875 -3 8 C-4.32 7.34 -5.64 6.68 -7 6 C-4.69 4.02 -2.38 2.04 0 0 Z " fill="#5DBED7" transform="translate(198,227)"/>
<path d="M0 0 C0.763125 0.20625 1.52625 0.4125 2.3125 0.625 C1.9825 1.945 1.6525 3.265 1.3125 4.625 C-0.0075 4.955 -1.3275 5.285 -2.6875 5.625 C-2.6875 4.965 -2.6875 4.305 -2.6875 3.625 C-3.6775 2.965 -4.6675 2.305 -5.6875 1.625 C-2.6875 -0.375 -2.6875 -0.375 0 0 Z " fill="#A8D8E5" transform="translate(167.6875,226.375)"/>
<path d="M0 0 C0.99 0 1.98 0 3 0 C3.33 0.66 3.66 1.32 4 2 C4.99 2 5.98 2 7 2 C7 2.66 7 3.32 7 4 C6.34 4 5.68 4 5 4 C4.67 4.99 4.34 5.98 4 7 C2 5.75 2 5.75 0 4 C0 2.68 0 1.36 0 0 Z " fill="#124452" transform="translate(198,145)"/>
<path d="M0 0 C3.19982787 0.59531681 5.37306349 1.28123945 7.546875 3.7734375 C11.13272108 9.19249702 11.13272108 9.19249702 10.62890625 12.2578125 C10.42136719 12.83273438 10.21382812 13.40765625 10 14 C9.61328125 13.32453125 9.2265625 12.6490625 8.828125 11.953125 C8.30734375 11.06109375 7.7865625 10.1690625 7.25 9.25 C6.73953125 8.36828125 6.2290625 7.4865625 5.703125 6.578125 C4.02287452 4.03462657 2.22580968 2.07097075 0 0 Z " fill="#74CADA" transform="translate(169,122)"/>
<path d="M0 0 C0.60972656 0.34417969 1.21945313 0.68835938 1.84765625 1.04296875 C0.08123942 1.74173805 -1.69067039 2.42663458 -3.46484375 3.10546875 C-4.94404297 3.67974609 -4.94404297 3.67974609 -6.453125 4.265625 C-9.15234375 5.04296875 -9.15234375 5.04296875 -12.15234375 4.04296875 C-3.35034346 -1.48971715 -3.35034346 -1.48971715 0 0 Z " fill="#1A464F" transform="translate(150.15234375,248.95703125)"/>
<path d="M0 0 C0.33 0.66 0.66 1.32 1 2 C0.67 2.99 0.34 3.98 0 5 C-3.25608216 6.40070201 -5.87028325 5.81848927 -9.25 5.0625 C-10.14203125 4.86785156 -11.0340625 4.67320312 -11.953125 4.47265625 C-12.62859375 4.31667969 -13.3040625 4.16070312 -14 4 C-11.45083515 3.28579433 -9.69394137 3.01275244 -7 3.125 C-3.60751544 2.98364648 -2.45008851 2.26162017 0 0 Z " fill="#247184" transform="translate(197,232)"/>
<path d="M0 0 C3.59253891 3.45436433 6.79239749 7.19364503 10 11 C9.67 11.66 9.34 12.32 9 13 C1.95180723 7.36144578 1.95180723 7.36144578 0 4 C0 2.68 0 1.36 0 0 Z " fill="#4BA7BC" transform="translate(184,202)"/>
<path d="M0 0 C1.94045688 0.4241929 3.87731761 0.86485995 5.8125 1.3125 C7.43091797 1.67794922 7.43091797 1.67794922 9.08203125 2.05078125 C11.9447156 2.98201592 13.15397066 3.68760535 15 6 C9.47293087 5.27275406 4.30039859 3.66554027 -1 2 C-0.67 1.34 -0.34 0.68 0 0 Z " fill="#214E5A" transform="translate(190,83)"/>
<path d="M0 0 C0.66 0 1.32 0 2 0 C0.4169423 4.2742558 -2.50568404 6.26531794 -6 9 C-5.67 7.35 -5.34 5.7 -5 4 C-4.0409375 3.8453125 -4.0409375 3.8453125 -3.0625 3.6875 C-2.381875 3.460625 -1.70125 3.23375 -1 3 C-0.67 2.01 -0.34 1.02 0 0 Z " fill="#1A4552" transform="translate(221,200)"/>
<path d="M0 0 C0.66 0.33 1.32 0.66 2 1 C0.38405168 3.04119788 -1.2856382 5.04072937 -3 7 C-3.66 7 -4.32 7 -5 7 C-5.66 8.32 -6.32 9.64 -7 11 C-7 7.22089522 -6.00296038 6.53893899 -3.5 3.8125 C-2.8503125 3.09707031 -2.200625 2.38164063 -1.53125 1.64453125 C-1.0259375 1.10183594 -0.520625 0.55914062 0 0 Z " fill="#BED2D7" transform="translate(109,125)"/>
<path d="M0 0 C0.58203125 1.890625 0.58203125 1.890625 1 4 C-0.3125 5.75 -0.3125 5.75 -2 7 C-2.66 7 -3.32 7 -4 7 C-4.33 8.32 -4.66 9.64 -5 11 C-5.33 10.01 -5.66 9.02 -6 8 C-4.78515625 5.95703125 -4.78515625 5.95703125 -3.0625 3.8125 C-2.49660156 3.09707031 -1.93070313 2.38164062 -1.34765625 1.64453125 C-0.90292969 1.10183594 -0.45820313 0.55914062 0 0 Z " fill="#16414A" transform="translate(223,182)"/>
<path d="M0 0 C1.75 0.9375 1.75 0.9375 2.75 3.9375 C1.43 4.2675 0.11 4.5975 -1.25 4.9375 C-1.25 3.9475 -1.25 2.9575 -1.25 1.9375 C-2.57 2.9275 -3.89 3.9175 -5.25 4.9375 C-5.91 4.6075 -6.57 4.2775 -7.25 3.9375 C-2.86764706 -0.07965686 -2.86764706 -0.07965686 0 0 Z " fill="#4CA6B9" transform="translate(182.25,184.0625)"/>
<path d="M0 0 C4.84455959 2.20207254 4.84455959 2.20207254 7 4 C7.9375 7.75 7.9375 7.75 8 11 C6 8 6 8 6 6 C5.38125 5.7525 4.7625 5.505 4.125 5.25 C1.64931313 3.79371361 1.04874998 2.62187494 0 0 Z " fill="#1F4B57" transform="translate(247,114)"/>
<path d="M0 0 C4 2 4 2 6 4 C4.35 4 2.7 4 1 4 C1 6.64 1 9.28 1 12 C0.67 12 0.34 12 0 12 C0 8.04 0 4.08 0 0 Z " fill="#50A4BB" transform="translate(94,100)"/>
<path d="M0 0 C2.625 0.9375 2.625 0.9375 5 2 C5 2.66 5 3.32 5 4 C5.66 4 6.32 4 7 4 C7 4.66 7 5.32 7 6 C3.22454612 4.90931332 0.52956528 4.0916909 -2 1 C-1.34 0.67 -0.68 0.34 0 0 Z " fill="#1C5F76" transform="translate(190,188)"/>
<path d="M0 0 C0.33 0 0.66 0 1 0 C1.33 2.64 1.66 5.28 2 8 C3.65 8 5.3 8 7 8 C7 8.33 7 8.66 7 9 C4.125 9.1875 4.125 9.1875 1 9 C-1.14809171 5.77786243 -1.29386153 4.72224599 -1 1 C-0.67 0.67 -0.34 0.34 0 0 Z " fill="#3C626A" transform="translate(148,143)"/>
<path d="M0 0 C2.17854707 3.2678206 3.49760034 6.38058265 5 10 C4.01 10.33 3.02 10.66 2 11 C0.19769832 7.17010894 -0.19622241 4.21878192 0 0 Z " fill="#19677E" transform="translate(181,189)"/>
<path d="M0 0 C2.475 0.495 2.475 0.495 5 1 C4.67 2.32 4.34 3.64 4 5 C3.01 5 2.02 5 1 5 C0.67 3.35 0.34 1.7 0 0 Z " fill="#0C4859" transform="translate(149,145)"/>
<path d="M0 0 C2.97 0.495 2.97 0.495 6 1 C5.01 1.33 4.02 1.66 3 2 C2.67 2.99 2.34 3.98 2 5 C0.68 4.67 -0.64 4.34 -2 4 C-1.34 2.68 -0.68 1.36 0 0 Z " fill="#0C495A" transform="translate(132,86)"/>
<path d="M0 0 C0.66 0 1.32 0 2 0 C2 0.66 2 1.32 2 2 C2.9590625 2.3403125 2.9590625 2.3403125 3.9375 2.6875 C6 4 6 4 6.75 6.625 C6.8325 7.40875 6.915 8.1925 7 9 C4.03595495 6.19195732 1.55500981 3.81684226 0 0 Z " fill="#18414B" transform="translate(117,244)"/>
<path d="M0 0 C0.66 0 1.32 0 2 0 C2.33 2.64 2.66 5.28 3 8 C2.01 7.67 1.02 7.34 0 7 C-1.17755913 4.05610218 -1.03348696 3.10046087 0 0 Z " fill="#104958" transform="translate(168,217)"/>
<path d="M0 0 C2 3 2 3 1.8125 6.5 C1.03631971 9.84354588 0.68478605 11.01559292 -2 13 C-1.53804695 10.62424144 -1.07450577 8.27318783 -0.4375 5.9375 C0.14684058 3.68075284 0.14684058 3.68075284 0 0 Z " fill="#55B0C4" transform="translate(203,200)"/>
<path d="M0 0 C2.52259061 1.97420135 2.9929808 2.96745642 3.6875 6.1875 C3.790625 7.115625 3.89375 8.04375 4 9 C3.34 9 2.68 9 2 9 C2 8.34 2 7.68 2 7 C1.34 6.67 0.68 6.34 0 6 C0 4.02 0 2.04 0 0 Z " fill="#184553" transform="translate(197,103)"/>
<path d="M0 0 C2.45823172 3.68734758 3.01242616 6.69699971 4 11 C2 9.4375 2 9.4375 0 7 C-0.25 3.25 -0.25 3.25 0 0 Z " fill="#156074" transform="translate(170,214)"/>
<path d="M0 0 C1.32 1.65 2.64 3.3 4 5 C3.67 5.66 3.34 6.32 3 7 C1.68 7 0.36 7 -1 7 C-0.67 4.69 -0.34 2.38 0 0 Z " fill="#2F5C66" transform="translate(101,203)"/>
<path d="M0 0 C0.33 0.99 0.66 1.98 1 3 C4.00847418 4.22520264 4.00847418 4.22520264 7 5 C7 5.33 7 5.66 7 6 C4.36 6 1.72 6 -1 6 C-0.67 4.02 -0.34 2.04 0 0 Z " fill="#D5EEF3" transform="translate(180,138)"/>
<path d="M0 0 C1.1875 2.0625 1.1875 2.0625 2 4 C-0.64 3.67 -3.28 3.34 -6 3 C-6 2.01 -6 1.02 -6 0 C-3 -1 -3 -1 0 0 Z " fill="#1B6375" transform="translate(164,83)"/>
<path d="M0 0 C2.5 2.3125 2.5 2.3125 5 5 C5 5.99 5 6.98 5 8 C4.01 7.67 3.02 7.34 2 7 C0.8125 3.4375 0.8125 3.4375 0 0 Z " fill="#13596F" transform="translate(175,227)"/>
<path d="M0 0 C0.33 0.99 0.66 1.98 1 3 C1.99 3.66 2.98 4.32 4 5 C4 5.66 4 6.32 4 7 C1.11562221 5.70700306 -0.87219421 4.34058637 -3 2 C-2.01 1.34 -1.02 0.68 0 0 Z " fill="#194651" transform="translate(243,108)"/>
<path d="M0 0 C0.66 0 1.32 0 2 0 C1.34 4.29 0.68 8.58 0 13 C-0.33 13 -0.66 13 -1 13 C-1.02686553 11.02090602 -1.04633375 9.04171029 -1.0625 7.0625 C-1.07410156 5.96035156 -1.08570312 4.85820313 -1.09765625 3.72265625 C-1 1 -1 1 0 0 Z " fill="#4492A6" transform="translate(115,82)"/>
</svg>
